SplineFontDB: 3.0
FontName: Aenniway-Bold
FullName: Aenniway Bold
FamilyName: Aenniway
Weight: Bold
Copyright: Anna-Lisa Wehmann & Christoph Pfeiffer
UComments: "Aenniway, liebevoll fontifizierte Handschrift.+AAoACgAA-Perfectly different artifacts of a summer emerge from the glyphs, from their loveable, purple lines through their rough edges and spikes.+AAoACgAA-https://maybegeek.github.io/Aenniway/"
Version: 1.7.1
ItalicAngle: -11.9
UnderlinePosition: -153
UnderlineWidth: 51
Ascent: 819
Descent: 205
InvalidEm: 0
LayerCount: 2
Layer: 0 0 "Back" 1
Layer: 1 0 "Zeichen" 0
XUID: [1021 862 158305084 7697856]
StyleMap: 0x0020
FSType: 0
OS2Version: 4
OS2_WeightWidthSlopeOnly: 0
OS2_UseTypoMetrics: 1
CreationTime: 1502261341
ModificationTime: 1531240878
PfmFamily: 65
TTFWeight: 700
TTFWidth: 5
LineGap: 92
VLineGap: 0
Panose: 3 0 8 0 0 0 0 0 0 0
OS2TypoAscent: 0
OS2TypoAOffset: 1
OS2TypoDescent: 0
OS2TypoDOffset: 1
OS2TypoLinegap: 92
OS2WinAscent: 0
OS2WinAOffset: 1
OS2WinDescent: 0
OS2WinDOffset: 1
HheadAscent: 0
HheadAOffset: 1
HheadDescent: 0
HheadDOffset: 1
OS2Vendor: 'CLGR'
OS2CodePages: 00000001.00000000
OS2UnicodeRanges: 00000003.00000000.00000000.00000000
Lookup: 4 0 1 "'liga' Standard Ligatures in Latin lookup 0" { "'liga' Standard Ligatures in Latin lookup 0 subtable"  } ['liga' ('DFLT' <'dflt' > 'latn' <'dflt' > ) ]

StartChar: .notdef
Encoding: 1114112 -1 0
Width: 372
VWidth: 1004
Flags: HW
HStem: -20 34<68 271> 628 34<68 271>
VStem: 34 34<14 628> 271 34<14 628>
LayerCount: 2
Fore
SplineSet
34 -20 m 1
 34 662 l 1
 305 662 l 1
 305 -20 l 1
 34 -20 l 1
68 14 m 1
 271 14 l 1
 271 628 l 1
 68 628 l 1
 68 14 l 1
EndSplineSet
EndChar

StartChar: exclam
Encoding: 33 33 5
Width: 220
VWidth: 968
Flags: HW
HStem: -6.75293 61.5908<53.851 126.396> 656.043 20G<111.398 115.054>
VStem: 49.7422 88.7656<0.414325 43.6775> 59.5762 52.8135<190.716 511.434>
LayerCount: 2
Fore
SplineSet
50.0719636931 25.8592515136 m 0xe0
 49.8521128977 27.2571707219 49.7421875 28.6201676132 49.7421875 29.9482421875 c 0
 49.7421875 34.623246581 51.0707929691 38.6976816362 53.7280039072 42.1715473531 c 0
 56.3852148453 45.64541307 59.7241905479 48.3050649074 63.7449310148 50.1505028651 c 0
 67.7656714817 51.9959408228 72.4340500855 53.3374340883 77.7500668261 54.1749826615 c 0
 79.1455628943 54.394844491 80.5311167525 54.5602946089 81.9067284006 54.6713330154 c 0
 83.2823400487 54.7823714218 84.6467639151 54.837890625 86 54.837890625 c 0
 91.1115879145 54.837890625 96.0363324742 54.0211531829 100.774233679 52.3876782987 c 0
 105.512134884 50.7542034146 109.932583479 48.3997488349 114.035579465 45.3243145597 c 0
 118.138575452 42.2488802845 121.949804165 38.4841841139 125.469265605 34.030226048 c 2
 125.704103804 33.7176224445 l 2
 126.142872481 33.1028282438 126.78260279 32.2103252665 127.623294733 31.0401135127 c 0
 134.879639911 20.9395523153 138.5078125 13.5332208084 138.5078125 8.82111899189 c 0
 137.698385049 1.2469015774 129.524857348 -3.65522221981 113.987229398 -5.88525239976 c 0
 110.309773314 -6.46370392492 106.645084869 -6.7529296875 102.993164062 -6.7529296875 c 0
 93.2218735195 -6.7529296875 83.5950156055 -4.68951284106 74.1125903202 -0.562679148171 c 0
 59.8858642177 5.63038397346 51.8723220086 14.437694194 50.0719636931 25.8592515136 c 0xe0
119.192382812 29.0703125 m 1025
93.3266503454 647.939254038 m 0
 95.0690919794 656.421338972 97.5001663853 663.225812657 100.619873563 668.352675094 c 0
 103.73958074 673.479537531 108.348711428 676.04296875 114.447265625 676.04296875 c 0
 115.66018478 676.04296875 116.920888375 675.88941065 118.22937641 675.582294449 c 0
 118.802210623 675.447844105 119.353501451 675.25257248 119.883248894 674.996479573 c 0
 125.42574269 672.317102141 128.890827497 666.578008324 130.278503316 657.779198121 c 0
 131.086009289 652.653701676 132.738059077 648.342357692 135.234652681 644.845166169 c 0
 139.025169256 639.533301696 141.192166358 635.337816107 141.735643988 632.258709402 c 0
 141.835919501 631.690592175 141.874293605 631.118324076 141.8507663 630.541905106 c 0
 141.357515971 618.457272064 140.489096842 604.8485792 139.245508911 589.715826513 c 0
 138.00192098 574.583073826 136.386490152 557.947209027 134.399216428 539.808232115 c 0
 132.411942704 521.669255202 130.04865096 501.975885436 127.309341196 480.728122817 c 0
 117.363849439 403.580314192 112.39061852 339.377645649 112.389648438 288.120117188 c 0
 112.389648438 278.554176758 112.564309231 269.431621281 112.913630816 260.752450756 c 0
 113.262952402 252.073280231 113.782610907 243.88202993 114.472606332 236.178699851 c 0
 115.162601757 228.475369772 116.022199637 221.238402455 117.051399974 214.4677979 c 0
 117.839736594 209.46401037 119.044360304 205.615967931 120.665271103 202.923670584 c 0
 124.179439326 199.636457334 125.936523438 195.489374431 125.936523438 190.482421875 c 0
 125.936523438 189.018480271 125.740401241 187.366606518 125.348156846 185.526800616 c 0
 124.955912451 183.686994714 124.500183021 182.00723143 123.980968554 180.487510764 c 0
 123.461754087 178.967790098 122.881560624 177.470056163 122.240388163 175.994308958 c 0
 120.846447192 171.730545457 119.003590479 168.390813506 116.711818024 165.975113104 c 0
 114.420045569 163.559412701 111.339022894 162.3515625 107.46875 162.3515625 c 0
 101.878675103 162.3515625 95.6953367038 165.904045964 88.9187348031 173.009012891 c 0
 77.2247265099 185.270670535 68.6947638874 205.100175377 63.3288469355 232.497527416 c 0
 63.3053491718 232.617502531 63.2826442838 232.755331225 63.2607322714 232.911013497 c 0
 60.8043586738 259.483572824 59.576171875 287.65320895 59.576171875 317.419921875 c 0xd0
 59.576171875 360.019794504 62.0601064086 406.16987587 67.0279754758 455.870165972 c 0
 75.447592449 540.075153083 84.2138174055 604.098182439 93.3266503454 647.939254038 c 0
71.1796875 234.03515625 m 1025
EndSplineSet
EndChar

StartChar: comma
Encoding: 44 44 6
Width: 142
VWidth: 968
Flags: HW
HStem: -83.9658 141.305<49.3931 69.7879>
VStem: 24.7627 78.9033<-38.3381 31.8875>
LayerCount: 2
Fore
SplineSet
34.1352832203 1.30089518273 m 0
 40.8610918094 23.5476859142 49.4807356237 38.4675219393 59.994214663 46.060403258 c 0
 70.4053606774 53.579379211 78.8210261022 57.3388671875 85.2412109375 57.3388671875 c 0
 91.032736369 57.3388671875 95.5514185081 55.2903556279 98.7972573549 51.1933325087 c 0
 102.043096202 47.0963093895 103.666015625 42.0989225116 103.666015625 36.201171875 c 0
 103.666015625 29.8430934122 102.436950318 21.0093625849 99.9788197027 9.69997939309 c 0
 97.502495944 -1.69382015934 90.6180210055 -19.153138268 79.3253948874 -42.677974933 c 0
 75.9934087361 -49.6200125546 73.4666445699 -54.7553035374 71.7451023888 -58.0838478813 c 2
 65.1522960091 -69.5264313126 l 2
 63.6463765544 -71.9364724431 62.1748722553 -73.9991654535 60.7377831116 -75.7145103437 c 0
 59.3006939679 -77.4298552339 57.7389966339 -78.8954765085 56.0526911094 -80.1113741676 c 0
 52.4889186819 -82.6810049309 48.6529956037 -83.9658203125 44.544921875 -83.9658203125 c 0
 31.3567708333 -83.9658203125 24.7626953125 -73.0758463542 24.7626953125 -51.2958984375 c 0
 24.7626953125 -36.9020022368 27.8868912818 -19.3697376967 34.1352832203 1.30089518273 c 0
EndSplineSet
EndChar

StartChar: period
Encoding: 46 46 7
Width: 181
VWidth: 968
Flags: HW
HStem: -7.22461 73.0518<38.0903 115.322>
VStem: 36.7431 81.8482<22.1886 60.8863>
LayerCount: 2
Fore
SplineSet
35.7889298392 20.3175098153 m 0
 35.2499557797 23.3058043855 34.98046875 26.1654625721 34.98046875 28.896484375 c 0
 34.98046875 33.2361215257 35.6592628784 37.248872608 37.0168511353 40.934737622 c 0
 38.6387557459 45.3314893207 41.788446601 49.5236682125 46.4659237007 53.5112742975 c 0
 47.6083179933 54.4846326885 48.8010625583 55.3943991646 50.0441573958 56.2405737258 c 0
 51.2872522333 57.086748287 52.5707020715 57.8636247997 53.8945069105 58.571203264 c 0
 55.2183117496 59.2787817283 56.5813258096 59.9186724466 57.9835490906 60.4908754187 c 0
 59.3857723717 61.0630783908 60.8231419382 61.5658013152 62.2956577903 61.9990441917 c 0
 70.9574642182 64.5511136889 78.3413334964 65.8271484375 84.447265625 65.8271484375 c 0
 88.2982191293 65.8271484375 91.6925374928 65.3232592247 94.6302207154 64.3154807991 c 0
 101.884102151 61.8310703172 108.016140544 56.3014426702 113.026335895 47.7265978579 c 0
 114.385875863 45.3999831979 115.519078097 43.2072420223 116.425942596 41.1483743311 c 0
 117.332807095 39.0895066399 118.054613517 36.9604974413 118.59136186 34.7613467353 c 0
 119.128110203 32.5621960293 119.396484375 30.4233226384 119.396484375 28.3447265625 c 2
 118.474604696 22.1886013281 l 2
 114.458580539 9.55576679141 104.741597381 0.79452459767 89.3236552215 -4.09512525313 c 0
 82.7527026404 -6.17993283064 76.5289321499 -7.2230942046 70.65234375 -7.224609375 c 0
 65.89285344 -7.224609375 61.3240694307 -6.51676412177 56.9459917221 -5.1010736153 c 0
 52.5679140135 -3.68538310883 48.4998283816 -1.59173838495 44.7417348265 1.17986055634 c 0
 43.176258367 2.33446040611 41.8242552907 3.74636551802 40.6857255974 5.41557589206 c 0
 39.6013138383 7.00928352215 38.720959379 8.85205037407 38.0446622195 10.9438764478 c 0
 37.4673103512 12.7309179451 37.0334642423 14.2577287475 36.7431238928 15.5243088551 c 0
 36.5966858369 16.1617672994 36.4453798537 16.8737654544 36.289205943 17.6603033201 c 0
 36.1330320323 18.4468411858 35.9662733311 19.3325766842 35.7889298392 20.3175098153 c 0
EndSplineSet
EndChar

StartChar: question
Encoding: 63 63 8
Width: 387
VWidth: 968
Flags: HW
HStem: -1 54<158 198> 189 51<153.354 167.617> 633 44.7576<143.514 281.36>
VStem: 94 54.4211<246.406 357.611> 142 75<1.00024 50.8906> 288 52<536.398 625.351>
LayerCount: 2
Fore
SplineSet
143 28 m 0xec
 143.666666667 28.6666666667 143.333333333 30.3333333333 142 33 c 0
 141.333333333 33.6666666667 141.666666667 35.3333333333 143 38 c 0
 143.666666667 39.3333333333 144.333333333 40.3333333333 145 41 c 0
 145 42.3333333333 145.333333333 43 146 43 c 0
 147.333333333 43 148 43.3333333333 148 44 c 0
 148.666666667 45.3333333333 149.666666667 46.6666666667 151 48 c 0
 151.666666667 48.6666666667 152.666666667 49.3333333333 154 50 c 2
 167 53 l 2
 169 53 169 53 169 53 c 0
 169 53 169 53 170 53 c 2
 195 52 l 2
 195.666666667 51.3333333333 196.333333333 51 197 51 c 0
 197 51 197 51 198 51 c 2
 212 44 l 2
 214 42.6666666667 215.333333333 40.6666666667 216 38 c 0
 216.666666667 35.3333333333 217 30 217 22 c 0
 217 6.66666666667 206.666666667 -1 186 -1 c 0
 182 -1 182 -1 177 -1 c 0
 171 -1 171 -1 169 -1 c 0
 166 -1 166 -1 163 -1 c 0
 158 -1 158 -1 158 -1 c 0
 154 1 154 1 154 1 c 0
 152.666666667 1 151.333333333 1.33333333333 150 2 c 0
 148 3.33333333333 146.666666667 4.33333333333 146 5 c 0
 144 7.66666666667 143 9.33333333333 143 10 c 0
 142.333333333 14.6666666667 142 17.3333333333 142 18 c 0
 142 20 142 20 142 20 c 0
 140.666666667 22 141 24.6666666667 143 28 c 0xec
284 670 m 0
 299.333333333 664.666666667 310.333333333 659.333333333 317 654 c 0
 320.333333333 651.333333333 324 647.333333333 328 642 c 0
 332 636.666666667 334.666666667 631.666666667 336 627 c 0
 338.666666667 619 340 612.666666667 340 608 c 0
 340 607 340 607 340 607 c 0
 341.333333333 604.333333333 340 594.666666667 336 578 c 0
 334.666666667 571.333333333 331.333333333 562.333333333 326 551 c 0
 322.666666667 543.666666667 319 536.666666667 315 530 c 0
 310.333333333 522 305.666666667 515 301 509 c 0
 291.666666667 496.333333333 286 489 284 487 c 0
 277.333333333 479.666666667 258.666666667 460 228 428 c 0
 215.333333333 414.666666667 202.333333333 399.666666667 189 383 c 0
 173.666666667 363.666666667 162.666666667 345.666666667 156 329 c 0
 150.947368421 315.947368421 148.421052632 303.16066482 148.421052632 290.639889197 c 0
 148.421052632 283.336103416 149.280701755 276.122807017 151 269 c 0
 151.666666667 266.333333333 152.333333333 264.333333333 153 263 c 0
 154.333333333 260.333333333 155.333333333 258.666666667 156 258 c 0
 158 256 158 256 160 254 c 0
 161.333333333 252.666666667 163 251.333333333 165 250 c 0
 168 248 168 248 171 246 c 0
 173.666666667 244.666666667 177 243.666666667 181 243 c 0
 185 242.333333333 190 241.666666667 196 241 c 0
 202 240.333333333 208.333333333 240 215 240 c 0
 220.333333333 240 226 240.333333333 232 241 c 0
 239.333333333 241.666666667 245 242.666666667 249 244 c 0
 267 249.333333333 284.666666667 254.666666667 302 260 c 2
 303 260 l 2
 307.666666667 261.333333333 310.666666667 261.666666667 312 261 c 0
 314 260.333333333 315.666666667 259.666666667 317 259 c 0
 322.333333333 256.333333333 325 248.333333333 325 235 c 0
 325 235 325 235 325 233 c 2
 325 231 l 1
 324 230 l 1
 322 226 l 1
 306 212.666666667 286 203 262 197 c 0
 257 196 257 196 252 195 c 0
 247.333333333 194.333333333 244 193.666666667 242 193 c 0
 237.333333333 193 234 192.666666667 232 192 c 0
 228 190.666666667 224.333333333 190 221 190 c 0
 215 190 215 190 209 190 c 0
 205 189.333333333 201 189 197 189 c 0
 185 189 185 189 185 189 c 0
 179.666666667 188.333333333 171.666666667 189 161 191 c 0
 151 193 144.333333333 194.666666667 141 196 c 0
 135 198.666666667 131.333333333 200.666666667 130 202 c 0
 127.333333333 204 124.666666667 206.333333333 122 209 c 0
 119.333333333 211 116.666666667 213.666666667 114 217 c 0
 100.666666667 234.333333333 94 256.666666667 94 284 c 0xf4
 94 290 94.6666666667 298 96 308 c 0
 97.3333333333 316 99 324.666666667 101 334 c 0
 105 350.666666667 114.666666667 369 130 389 c 0
 148 412.333333333 175 440.333333333 211 473 c 0
 234.333333333 493.666666667 253.666666667 516.333333333 269 541 c 0
 275 550.333333333 279.666666667 559.333333333 283 568 c 0
 285.666666667 574 287.333333333 581 288 589 c 0
 288.666666667 594.333333333 288 599 286 603 c 0
 284 607 281.666666667 610.666666667 279 614 c 0
 276.333333333 617.333333333 272.666666667 620.666666667 268 624 c 0
 259.333333333 630 247 633 231 633 c 0
 226.333333333 633 222 632.666666667 218 632 c 0
 213 631 213 631 203 629 c 0
 186.333333333 625 171 620.666666667 157 616 c 0
 137.666666667 608.666666667 122.666666667 602.666666667 112 598 c 0
 95.3333333333 590 86.6666666667 586 86 586 c 0
 78.6666666667 583.333333333 72.6666666667 581 68 579 c 0
 63.3333333333 577 60 575.666666667 58 575 c 0
 58 574.333333333 56 574 52 574 c 0
 50 574 48 574.666666667 46 576 c 0
 44 577.333333333 42.3333333333 578.333333333 41 579 c 0
 40.3333333333 580.333333333 39 581.666666667 37 583 c 0
 34.3333333333 585 32.3333333333 587.333333333 31 590 c 0
 29.6666666667 592.666666667 29 595.666666667 29 599 c 2
 31 606 l 1
 37.6666666667 612.666666667 48 620 62 628 c 0
 66.6666666667 630.666666667 70.6666666667 632.666666667 74 634 c 0
 76 635.333333333 80.6666666667 637.666666667 88 641 c 0
 92.6666666667 643 97.6666666667 645 103 647 c 0
 119 653 119 653 119 653 c 0
 126.333333333 655 146.666666667 660.333333333 180 669 c 0
 200.606060606 674.838383839 219.796755433 677.757575758 237.572084481 677.757575758 c 0
 254.301805938 677.757575758 269.777777778 675.171717172 284 670 c 0
EndSplineSet
EndChar

StartChar: A
Encoding: 65 65 9
Width: 508
VWidth: 1084
Flags: HW
HStem: -28 42.6445<-39.2378 55.3365> 182.4 39.5996<121.032 198> 686.017 20G<447.883 458.372>
VStem: 287 44<-0.936279 125.167> 437.711 41.2891<554.483 658.368>
LayerCount: 2
Fore
SplineSet
121 190 m 2
 118 204 l 2
 117.333333333 204.666666667 117 205.333333333 117 206 c 0
 117 206.666666667 117.333333333 207.666666667 118 209 c 2
 121 216 l 2
 121.666666667 218 122.666666667 219.333333333 124 220 c 2
 126 221 l 2
 126.666666667 221.666666667 127.333333333 222 128 222 c 0
 129 222 129 222 130 222 c 0
 178.666666667 225.333333333 220.666666667 231 256 239 c 1
 263.333333333 247.666666667 268 253.666666667 270 257 c 0
 273.333333333 261.666666667 276 265.333333333 278 268 c 0
 281 274 281 274 281 274 c 0
 281.666666667 274.666666667 283.666666667 288.333333333 287 315 c 0
 290.333333333 335.666666667 292 348.333333333 292 353 c 0
 294 381 300.666666667 422 312 476 c 0
 320 512 330 545.666666667 342 577 c 0
 353.333333333 607 367.333333333 633.666666667 384 657 c 0
 406 689 427 705.333333333 447 706 c 0
 447.355555556 706.011111111 447.708148148 706.016666667 448.057777778 706.016666667 c 0
 468.685925926 706.016666667 479 686.677777777 479 648 c 0
 479 636 478 620.666666667 476 602 c 0
 474.666666667 592 472 579 468 563 c 0
 451.333333333 501.666666667 436 456.666666667 422 428 c 0
 414 412 409 401.666666667 407 397 c 0
 407 397 407 397 391 365 c 0
 388.333333333 359.666666667 382.333333333 348.333333333 373 331 c 0
 367.666666667 320.333333333 361.666666667 309.333333333 355 298 c 0
 349 286 342.666666667 274.333333333 336 263 c 0
 336 258 336 258 336 257 c 0
 336 254 336 254 336 252 c 1
 347.333333333 254.666666667 361.666666667 257.666666667 379 261 c 2
 443 274 l 2
 461 277.333333333 471 279 473 279 c 0
 473 279.666666667 475 279.666666667 479 279 c 0
 489.666666667 277.666666667 495.333333333 277 496 277 c 0
 500 277 504.666666667 276.333333333 510 275 c 0
 516 273.666666667 520 271.666666667 522 269 c 0
 524 266.333333333 525 263.333333333 525 260 c 2
 524 256 l 2
 523.333333333 254.666666667 522 253.333333333 520 252 c 0
 518 250.666666667 515 249.333333333 511 248 c 0
 508.333333333 246.666666667 504 245 498 243 c 0
 494 241.666666667 488.333333333 240 481 238 c 0
 473.666666667 236 466.666666667 234.333333333 460 233 c 0
 447.333333333 229 438.666666667 226.666666667 434 226 c 0
 416 222.666666667 406 220.666666667 404 220 c 0
 389.333333333 215.333333333 378 212.333333333 370 211 c 0
 356 208.333333333 343.333333333 205.333333333 332 202 c 1
 330.5 178.999999994 329.749999999 158.81249999 329.749999999 141.437499988 c 0
 329.749999999 135.645833326 329.833333333 130.166666664 330 125 c 0
 330.666666667 87 331 59.3333333333 331 42 c 0
 331 40.6666666667 331.333333333 36.6666666667 332 30 c 0
 332 19 332 19 332 17 c 0
 332 15.6666666667 331.666666667 12.6666666667 331 8 c 0
 331 3.33333333333 330.333333333 0.333333333333 329 -1 c 0
 326.333333333 -3.66666666667 324.666666667 -5 324 -5 c 0
 323.333333333 -5 322.333333333 -5.33333333333 321 -6 c 2
 305 -8 l 2
 304 -8 304 -8 304 -8 c 0
 292.666666667 -4 287 -0.333333333333 287 3 c 0
 287 4 287 4 287 4 c 0
 285 6 284 16 284 34 c 0
 284 36 283.666666667 40 283 46 c 0
 283 55 283 55 283 55 c 0
 282.333333333 57 282 59.6666666667 282 63 c 0
 280.666666667 81.6666666667 277 98.6666666667 271 114 c 0
 266.333333333 126 257.666666667 136 245 144 c 1
 211 104.666666667 187.666666667 79 175 67 c 0
 109 3.66666666667 53 -28 7 -28 c 0
 -10.3333333333 -28 -27 -19.6666666667 -43 -3 c 0
 -44.3333333333 -2.33333333333 -45.1596504155 -1.36203242913 -45.4789512464 -0.08609728739 c 0
 -45.7982520773 1.18983785435 -46.0360128422 2.1770785252 -46.192233541 2.87562472517 c 0
 -46.3484542398 3.57417092513 -46.2185203572 4.83602658414 -45.8024318931 6.66119170219 c 0
 -45.3863434291 8.48635682024 -44.4222969622 10.0530622198 -42.9102924923 11.3613079009 c 0
 -42.103508705 12.059368936 -41.1935009413 12.5753955083 -40.1802692012 12.9093876178 c 0
 -38.3818841906 13.5021902113 -36.7824345656 13.939581465 -35.3819203263 14.221561379 c 0
 -33.981406087 14.503541293 -32.4817630652 14.64453125 -30.8829912609 14.64453125 c 2
 -15.2413896984 13.98046875 l 2
 40.4993714188 13.98046875 107.723602457 60.9203906037 186.431303416 154.800234311 c 0
 190.216984577 159.31515766 194.347690534 164.279356829 198.823421285 169.692831818 c 1
 188.3695207 173.991843247 177.80897284 177.184522572 167.141777703 179.270869793 c 0
 156.474582566 181.357217014 145.42667229 182.400390625 133.998046875 182.400390625 c 0
 131.638588468 182.400390625 129.049049387 183.166992187 126.229429632 184.700195312 c 0
 123.409809877 186.233398437 121.666666667 188 121 190 c 2
344.574190778 381.322394326 m 1
 345.770336604 383.643263459 346.887946758 385.810514347 347.927021239 387.824146988 c 0
 358.692010936 408.685726228 369.694808464 430.818906063 380.935413825 454.223686492 c 0
 392.026958492 477.318098155 404.288118081 511.343919721 417.718892593 556.301151191 c 0
 421.030997155 567.387857419 423.960967049 577.683245961 426.508802276 587.187316817 c 0
 429.056637503 596.691387673 431.1459641 605.080523644 432.776782068 612.35472473 c 0
 434.407600035 619.628925816 435.637663766 625.915900598 436.46697326 631.215649077 c 0
 437.296282753 636.515397556 437.7109375 640.743961319 437.7109375 643.901340364 c 0
 437.7109375 646.146771263 437.637025798 648.335186221 437.489202393 650.466585236 c 0
 437.341378988 652.597984251 437.171840158 654.340598732 436.980585902 655.694428679 c 0
 436.789331646 657.048258626 436.588784327 658.147814811 436.378943944 658.993097235 c 1
 433.729115403 657.116183646 430.983432932 653.835089884 428.141896531 649.149815949 c 0
 412.88006665 623.985312089 399.953078902 598.117428213 389.360933285 571.546164322 c 0
 378.768787668 544.97490043 370.501205227 517.679759664 364.558185962 489.660742025 c 0
 355.80160257 448.393042701 349.140270842 412.280260135 344.574190778 381.322394326 c 1
281.164367064 188.500779049 m 1
 273.721551129 179.562319525 l 1
 276.215242623 177.450400273 278.508675535 175.419092998 280.601849866 173.468397701 c 1
 280.609612383 173.672448154 280.617131332 173.870541176 280.624406715 174.062676765 c 0
 280.631072593 174.23871595 280.643086782 174.550651703 280.660449282 174.998484024 c 0
 280.843985988 179.732465251 281.011958582 184.233230259 281.164367064 188.500779049 c 1
EndSplineSet
EndChar

StartChar: B
Encoding: 66 66 10
Width: 550
VWidth: 875
Flags: HW
HStem: -5.99902 55.5668<175.981 379.284> 642 44<147.433 405.645>
VStem: 204.976 50.8735<501.165 615.026> 417.85 57<576.81 624.958> 455.849 55.001<105.874 179.731>
LayerCount: 2
Fore
SplineSet
-72.3914847787 579.751367297 m 1xf0
 20.3008527721 624.785225201 104.573253344 655.819487953 180.425716936 672.854155554 c 0
 195.761622621 675.786015009 210.831025009 678.224920911 225.6339241 680.17087326 c 0
 240.436823191 682.116825609 255.013130874 683.57483482 269.362847149 684.544900892 c 0
 283.712563425 685.514966964 297.8748175 686 311.849609375 686 c 0
 420.483301892 686 474.816634675 660.348068036 474.849607723 609.044204107 c 0xf0
 474.84974577 608.829411758 474.841247146 608.614961678 474.824111851 608.400853869 c 0
 472.991788071 585.50572238 459.68589503 559.927637462 434.906432728 531.666599115 c 0
 410.126970426 503.405560768 373.843522595 471.651268565 326.056089234 436.403722508 c 0
 264.469057459 389.230472851 227.741303078 356.57039619 215.872826089 338.423492526 c 0
 215.404108618 337.581557824 214.962203458 336.796784896 214.547110609 336.069173743 c 0
 214.13201776 335.34156259 213.494889214 334.23202587 212.635724971 332.740563581 c 0
 211.033271181 329.961110191 210.0750277 328.218772974 209.760994529 327.513551931 c 0
 209.669455405 327.308035676 209.489562132 326.817273086 209.22131471 326.04126416 c 0
 208.953067288 325.265255233 208.667109382 324.377930262 208.363440991 323.379289245 c 0
 208.20781526 322.867105867 208.087981524 322.336792171 208.003939782 321.788348156 c 0
 208.210716923 321.248439657 208.44354207 320.722694251 208.702415222 320.211111938 c 0
 208.961288373 319.699529625 209.301061574 319.085751749 209.721734825 318.36977831 c 0
 210.072324077 317.773417992 210.54456075 317.139716939 211.138444844 316.468675152 c 0
 211.732328938 315.797633364 212.467013631 315.097235392 213.342498923 314.367481237 c 0
 222.561645891 306.649191025 232.675350296 299.7132816 243.683612138 293.559752962 c 0
 254.69187398 287.406224324 266.672013789 282.012654326 279.624031564 277.379042968 c 0
 292.576049339 272.745431609 306.461124735 268.903187739 321.279257753 265.852311357 c 0
 326.196264574 264.809290057 331.008317317 263.771803214 335.715415982 262.739850829 c 0
 340.422514647 261.707898444 345.033359234 260.679510534 349.547949744 259.654687101 c 0
 354.062540254 258.629863668 358.474900301 257.609812295 362.785029884 256.594532982 c 0
 367.095159467 255.579253669 371.309889243 254.567170809 375.429219212 253.558284403 c 0
 379.548549181 252.549397997 383.568496925 251.544494962 387.489062443 250.543575299 c 0
 391.409627962 249.542655635 395.235647944 248.544564402 398.967122389 247.549301601 c 0
 402.698596834 246.554038799 406.333537292 245.561970679 409.871943762 244.573097242 c 0
 413.410350233 243.584223804 416.855065437 242.597810775 420.206089376 241.613858155 c 0
 423.557113314 240.629905534 426.81432688 239.648385199 429.977730074 238.669297148 c 0
 447.484898493 232.910114713 462.220560865 225.572947146 474.18471719 216.657794445 c 0
 486.148873515 207.742641745 495.250727961 197.17960722 501.490280527 184.968690869 c 0
 507.729833092 172.757774518 510.849609375 159.101544228 510.849609375 144 c 0xe8
 510.822595292 143.092012435 510.790954502 142.353081441 510.754687006 141.783207018 c 0
 509.350751234 129.847845908 505.71602917 118.059976328 499.850520815 106.419598278 c 0
 493.98501246 94.7792202275 486.056717587 83.4662037821 476.065636196 72.4805489418 c 0
 466.074554805 61.4948941015 454.049648092 50.7866768705 439.990916057 40.3558972488 c 0
 397.411851144 9.451965781 337.031126231 -5.9999999529 258.848741319 -5.9999999529 c 2
 249.849966709 -5.99902342952 l 2
 227.018898059 -6.00004321997 202.567737682 -1.19821920735 176.496485577 8.40644860836 c 0
 165.488407074 12.2090673774 154.615933099 16.7117104317 143.879063651 21.9143777713 c 0
 133.142194203 27.1170451109 122.632374903 32.9764512905 112.349605751 39.4925963101 c 0
 74.9197849546 63.2122253052 51.4939160742 89.1562461605 42.0719991097 117.324658876 c 0
 40.9469150071 120.689786692 40.2317109309 124.462029644 39.9263868811 128.641387733 c 0
 39.6210628313 132.820745822 39.7230711771 137.449663864 40.2324119185 142.528141861 c 0
 40.7417526598 147.606619858 41.5595521235 152.976984905 42.6858103094 158.639237002 c 0
 43.8120684954 164.301489099 45.2930119615 170.606770953 47.1286407076 177.555082565 c 2
 47.5742567888 178.808705617 l 1
 50.9697646013 186.315541555 l 2
 51.917345258 188.410466062 53.5086637977 189.829935395 55.7437202202 190.573949556 c 0
 57.9787766427 191.317963716 60.1033660881 191.135460095 62.1174885563 190.026438692 c 0
 63.6384147577 189.188982313 64.767092715 187.984089228 65.5035224283 186.411759436 c 0
 65.731169176 185.925717445 65.9531619796 185.424634942 66.169500839 184.908511925 c 0
 66.3858396984 184.392388908 66.6001625325 183.854138282 66.8124693414 183.293760047 c 2
 68.0914324866 180.243497672 l 2
 69.6696520005 177.441561151 71.45786165 174.182025871 73.4560614349 170.46489183 c 0
 75.4542612198 166.747757789 77.6704388464 162.558908916 80.1045943147 157.898345211 c 0
 81.3039880986 155.601921991 82.4357052054 153.445463415 83.499745635 151.428969482 c 0
 84.5637860646 149.412475549 85.5544154567 147.546705785 86.4716338112 145.831660192 c 0
 87.3888521657 144.116614599 88.2343545547 142.548795291 89.0081409783 141.12820227 c 0
 89.7819274019 139.707609249 90.4830305441 138.436012404 91.111450405 137.313411735 c 0
 93.5140718049 133.021401637 96.7640355622 128.16545715 100.861341677 122.745578273 c 0
 101.418232901 122.00892768 101.993613471 121.273353341 102.587483388 120.538855256 c 0
 103.181353304 119.804357171 103.814194142 119.038501845 104.486005903 118.241289277 c 1
 168.62361614 428.159896468 202.120323087 590.521852453 204.976126743 605.327157231 c 0
 205.685934106 609.003438138 207.620276495 612.203560065 210.779153909 614.927523011 c 0
 216.445239442 619.64250767 222.80173241 622 229.848632812 622 c 0
 237.632999647 622 243.91258745 619.74605641 248.68739622 615.23816923 c 0
 253.46220499 610.730282051 255.849609375 604.650892307 255.849609375 597 c 0
 255.849609375 594.350666656 255.138714805 589.596329599 253.716925665 582.736988828 c 0
 252.295136524 575.877648058 249.621339608 563.811610233 245.695534916 546.538875352 c 0
 245.534794961 545.733927109 244.951118546 542.918907799 243.944505672 538.093817422 c 0
 242.937892799 533.268727045 241.501654056 526.401933367 239.635789444 517.493436389 c 0
 237.769924831 508.584939411 235.498916368 497.751911744 232.822764053 484.994353388 c 0
 227.193286557 458.157111215 222.735040045 435.959972431 219.448024516 418.402937037 c 1
 233.20417751 429.721124102 250.251559921 444.063950515 270.590171748 461.431416274 c 0
 284.979436615 473.718555753 297.003760151 483.953618705 306.663142357 492.136605132 c 0
 316.322524562 500.319591559 323.531067999 506.378068907 328.288772666 510.312037176 c 0
 347.700397752 527.613514763 364.464380421 543.578083406 378.580720673 558.205743105 c 0
 392.697060925 572.833402805 402.771007158 584.219323704 408.802559371 592.363505801 c 0
 414.834111584 600.507687898 417.849794919 606.053185964 417.849609375 609 c 0
 417.849609375 610.515120955 416.90425215 612.289558743 415.0135377 614.323313363 c 0
 413.122823249 616.357067982 409.220529672 618.879824697 403.306656968 621.891583508 c 0
 397.392784264 624.903342318 389.917671225 627.700242399 380.88131785 630.282283751 c 0
 367.892306385 634.179366238 353.654160051 637.106589568 338.166878848 639.063953741 c 0
 322.679597646 641.021317914 305.907174488 642 287.849609375 642 c 0
 251.988890223 642 213.259522375 637.410551406 171.661505832 628.231654218 c 1
 136.407151457 617.551564801 101.555493352 604.829622562 67.106531517 590.065827503 c 0
 50.1531010637 582.799801404 36.6667584182 576.982056667 26.6475035806 572.612593292 c 0
 16.6282487431 568.243129917 10.7387380991 565.618456616 8.97897164883 564.738573391 c 0
 -4.21360538297 558.144775607 -17.9628816383 554.847876715 -32.2688571172 554.847876715 c 0
 -35.0920122594 554.847876715 -37.9368471957 554.976269366 -40.8033619262 555.233054669 c 0
 -55.3417982255 556.534922888 -66.2309653098 560.099196694 -73.470863179 565.925876088 c 2
 -73.9443833723 566.338621705 l 1
 -72.3914847787 579.751367297 l 1xf0
466.849609375 609.0390625 m 1025
189.006696452 265.767406881 m 1
 178.864237058 218.715996017 170.667791741 180.416035079 164.417360502 150.867524068 c 0
 158.166929263 121.319013057 153.69469953 99.7429404366 151.000671302 86.1393062077 c 1
 157.820468312 81.4029697561 165.077650678 77.1629317188 172.772218401 73.4191920959 c 0
 180.466786124 69.675452473 189.236217275 66.1004213094 199.080511852 62.6940986052 c 0
 220.284363683 55.3581239925 240.675768415 51.1229442069 260.254726049 49.9885592486 c 0
 265.096840738 49.7080132456 269.942578674 49.5677402441 274.791939857 49.5677402441 c 0
 301.027063008 49.5677402441 327.368232351 53.673289252 353.815447885 61.8843872678 c 0
 385.002134944 71.5668557088 411.467961113 86.0202398662 433.212926393 105.24453974 c 0
 448.304341832 118.586565913 455.849577309 133.171876104 455.848632826 149.000470312 c 0xe8
 455.849398677 162.027597039 443.842580994 175.252377777 419.828179777 188.674812527 c 0
 407.914292033 193.771153402 368.37093103 204.612088083 301.198096768 221.19761657 c 0
 258.971496507 231.451854893 221.574363069 246.308451663 189.006696452 265.767406881 c 1
EndSplineSet
EndChar

StartChar: C
Encoding: 67 67 11
Width: 466
VWidth: 875
Flags: HW
HStem: -6.8605 54.3134<142.082 279.548>
VStem: 18.3969 55.3288<136.393 354.87>
LayerCount: 2
Fore
SplineSet
329.386631648 674.083684038 m 0
 331.539393351 673.588759398 333.651909005 673.065656127 335.72417861 672.514374225 c 0
 337.796448215 671.963092323 339.834518325 671.381880305 341.83838894 670.77073817 c 0
 343.842259555 670.159596035 345.806937366 669.519018754 347.732422374 668.849006327 c 0
 349.657907382 668.1789939 351.547044884 667.479019421 353.39983488 666.74908289 c 0
 355.252624875 666.019146359 357.06748873 665.258436529 358.844426445 664.4669534 c 0
 360.621364159 663.67547027 362.359806356 662.853993153 364.059753035 662.002522048 c 0
 365.759699715 661.151050943 367.422986917 660.267468386 369.04961464 659.351774376 c 0
 370.676242363 658.436080365 372.262439975 657.490278793 373.808207476 656.51436966 c 0
 379.886146487 652.678589203 386.155899945 647.956900366 392.617467851 642.349303149 c 0
 395.8128057 639.576266034 399.052948802 636.590035012 402.337897158 633.390610084 c 0
 405.622845515 630.191185156 408.957269139 626.775804864 412.341168032 623.144469209 c 2
 413.032471341 622.312454513 l 2
 413.863697364 621.102281903 414.518020033 620.099866659 414.99543935 619.305208782 c 0
 415.472858667 618.510550905 415.919345134 617.665500347 416.33489875 616.770057108 c 0
 417.512087211 614.233427883 417.932173239 611.781575346 417.595156835 609.414499495 c 0
 416.619284106 602.42599157 410.77944236 599.826244135 400.075631597 601.615257191 c 0
 398.56417076 601.867177064 396.929884684 602.204504522 395.172773369 602.627239565 c 0
 393.415662054 603.049974608 391.495326246 603.563713103 389.411765947 604.168455048 c 0
 387.391771029 604.75474749 385.195926846 605.428942863 382.824233398 606.191041168 c 0
 380.452539951 606.953139472 377.894118781 607.806059396 375.148969888 608.749800941 c 0
 369.706890914 610.620707118 363.474184683 612.866441795 356.450851195 615.48700497 c 0
 351.48158516 617.341537953 347.074999221 618.933280904 343.231093376 620.262233821 c 0
 339.44071388 621.572681082 336.385882497 622.57055905 334.066599226 623.255867724 c 2
 330.678614054 624.165551409 l 1
 286.969214613 619.120794295 230.508247173 570.012419064 161.295711733 476.840425715 c 0
 149.719670494 460.924568121 139.208499002 444.720036999 129.762197257 428.226832348 c 0
 120.315895512 411.733627697 111.940562707 394.966193625 104.636198842 377.924530133 c 0
 97.3318349774 360.88286664 91.0952112119 343.563985964 85.9263275454 325.967888104 c 0
 79.5921984281 304.399753525 75.7244943558 283.3892928 74.3232153286 262.936505929 c 0
 73.9248294326 257.121745509 73.7256364846 251.351481061 73.7256364846 245.625712586 c 0
 73.7256364846 231.292547562 74.9738549273 217.238211149 77.4702918128 203.462703346 c 0
 79.6797086649 191.258920629 82.2713176256 179.735226921 85.2451186949 168.891622222 c 0
 88.2189197643 158.048017523 91.5489899368 147.942872954 95.2353292123 138.576188513 c 0
 98.9216684881 129.209504072 102.973256549 120.530406109 107.390093395 112.538894626 c 0
 120.467718614 88.8771666185 136.76559625 71.1500870539 156.283726304 59.3576559321 c 0
 169.420787341 51.421140765 184.418838555 47.4528831814 201.277879948 47.4528831814 c 0
 217.035982392 47.4528831814 234.41995614 50.919788171 253.429801193 57.8535981499 c 0
 256.304914365 58.9022449571 259.241410274 60.0708395506 262.23928892 61.3593819304 c 0
 265.252778093 62.6546339965 268.326878116 64.0705898964 271.461588991 65.6072496302 c 0
 277.739485067 68.6854438349 284.018946621 72.1079993662 290.299973652 75.8749162239 c 0
 296.653897536 79.6886201968 302.892158642 83.5997656774 309.014756971 87.6083526657 c 0
 315.132283074 91.6144353075 321.570061609 96.0164006083 328.328092578 100.814248568 c 0
 335.199273041 105.692358707 341.486349513 110.200387279 347.189321992 114.338334283 c 0
 352.842741057 118.440117316 359.274723673 123.08256095 366.485269841 128.265665183 c 0
 373.575586462 133.360815702 379.811405058 137.753341249 385.192725627 141.443241825 c 0
 385.927880096 141.947310724 386.726521091 142.518637452 387.588648611 143.15722201 c 0
 388.45077613 143.795806568 389.36923927 144.49733701 390.34403803 145.261813336 c 2
 395.623074663 149.487394079 l 2
 397.274196826 150.843367461 399.153152727 152.288075468 401.259942366 153.821518101 c 2
 407.479569347 157.919366653 l 2
 409.54156553 159.118122294 412.005830473 160.380976481 414.872364178 161.707929214 c 0
 417.738897883 163.034881947 421.110837443 164.48386833 424.988182858 166.054888365 c 0
 426.429973882 166.638730595 427.778616045 167.186493129 429.034109347 167.698175966 c 0
 430.28960265 168.209858803 431.451103989 168.685112367 432.518613364 169.123936657 c 0
 434.668795157 170.007815864 437.026351998 169.854352345 439.591283889 168.663546102 c 0
 442.15621578 167.472739859 443.794910547 165.770886524 444.50736819 163.557986097 c 2
 444.888056924 162.579135618 l 2
 445.044791876 162.237694329 445.031906733 161.428786082 444.849401495 160.152410879 c 2
 444.498718001 157.627968046 l 2
 443.00115763 155.024718647 441.717589877 152.842449968 440.64801474 151.081162011 c 0
 440.329213385 150.556186281 440.070289626 150.1294795 439.871243465 149.801041667 c 2
 438.085110653 146.836197917 l 2
 437.91523036 146.554209633 437.728654887 146.283737936 437.525384236 146.024782826 c 0
 405.203879764 104.849046442 367.148639784 68.9614860942 323.359664296 38.3621017812 c 0
 292.538179235 16.9188564367 260.772321385 3.19752098726 228.062090747 -2.80190456705 c 0
 220.371397192 -4.72092776417 212.949086465 -5.94356197356 205.795158566 -6.46980719523 c 0
 202.260356547 -6.73026810226 198.772088695 -6.86049855578 195.330355011 -6.86049855578 c 0
 177.794204913 -6.86049855578 161.466107658 -3.47964362032 146.346063246 3.2820662506 c 0
 122.55133412 13.0677014612 101.376568373 28.9635898439 82.8217660061 50.9697313988 c 0
 64.4550289371 72.7511094704 50.0762112974 97.3307522288 39.6853130869 124.708659674 c 0
 29.344485824 151.953303287 22.7189663191 180.812504287 19.8087545724 211.286262673 c 2
 19.4451777916 216.233896035 l 2
 18.7463149996 225.728995677 18.3968836036 235.17537231 18.3968836036 244.573025932 c 0
 18.3968836036 257.279206308 19.0356662189 269.89631795 20.3132314495 282.424360861 c 0
 22.5357002752 304.218304644 26.6899863289 325.717061363 32.7760896106 346.92063102 c 0
 49.0478750801 403.607860177 75.2580971923 456.862537933 111.406755947 506.68466429 c 0
 159.437916835 572.885921689 209.493242682 621.670032158 261.572733487 653.036995695 c 0
 264.948589263 655.070030975 268.232018541 656.95660827 271.42302132 658.696727581 c 0
 274.6140241 660.436846892 277.737695203 662.042875803 280.79403463 663.514814316 c 0
 283.850374057 664.986752829 286.834928221 666.317457891 289.74769712 667.506929502 c 0
 292.660466019 668.696401112 295.497340547 669.742401299 298.258320702 670.644930064 c 0
 309.761206835 674.405075021 320.137310484 675.551326346 329.386631648 674.083684038 c 0
405.756835938 617.008789062 m 1025
406.5390625 617.63671875 m 1025
432.041015625 150.331054688 m 1025
407.3359375 618.27734375 m 1025
EndSplineSet
EndChar

StartChar: D
Encoding: 68 68 12
Width: 674
VWidth: 875
Flags: HW
HStem: 621.459 56.7111<198.553 427.081>
VStem: 584.48 61.0791<242.925 464.534>
LayerCount: 2
Fore
SplineSet
324.940429688 678.169921875 m 0
 432.144793927 678.169921875 515.613525846 638.235830416 575.346625445 558.367647499 c 0
 622.155255356 496.847276972 645.559570312 428.928178327 645.559570312 354.610351562 c 0
 645.559570312 269.883276333 616.895965303 202.228263234 559.568755285 151.645312264 c 0
 547.25769211 140.665156915 535.664931188 131.243464783 524.790472519 123.380235868 c 0
 513.916013849 115.517006953 503.698294019 109.195232314 494.13731303 104.414911949 c 0
 438.888934593 76.7903950219 379.381511619 52.7887474057 315.615044108 32.4099691004 c 0
 251.687391377 11.979468604 194.624141536 -0.547674573317 144.425294583 -5.17146043165 c 0
 131.768040193 -6.50376806055 120.726210228 -7.169921875 111.299804688 -7.169921875 c 0
 100.248712537 -7.169921875 91.4159525201 -4.43515681114 84.8015246371 1.03437331659 c 0
 78.187096754 6.50390344432 74.8798828125 14.2756487971 74.8798828125 24.349609375 c 0
 74.8798828125 31.0133845415 78.8688217229 36.2064589793 86.8466995438 39.9288326882 c 0
 92.2450964906 42.4487062563 100.765520173 45.0783029459 112.40797059 47.8176227569 c 0
 121.516376503 49.9607142771 127.211013449 51.4168682923 129.49188143 52.1860848026 c 2
 130.563582262 52.5929016287 l 2
 144.775096761 56.8522854408 165.296780836 61.0897938102 192.128634485 65.3054267369 c 0
 205.219151781 67.361795223 216.379923106 69.2255960106 225.610948461 70.8968290995 c 0
 234.841973816 72.5680621885 242.011044265 74.0183196182 247.118159807 75.2476013887 c 0
 289.648852818 85.4844116391 325.636359433 95.8567678955 355.080679654 106.364670158 c 0
 412.125647323 126.722169498 450.467960898 143.122980141 470.10762038 155.567102088 c 0
 502.367629153 176.009220201 529.656826064 199.94010805 551.975211115 227.359765634 c 0
 573.645382872 253.982907977 584.48046875 294.766306411 584.48046875 349.709960938 c 0
 584.48046875 363.097916975 583.515812881 377.507860432 581.586501144 392.939791308 c 0
 577.795959465 433.373494999 562.613739988 471.78061709 536.039842713 508.161157579 c 0
 504.483279882 551.363579691 471.917294219 580.38499549 438.341885725 595.225404977 c 0
 398.286857387 612.714378527 360.071562911 621.458865303 323.696002297 621.458865303 c 0
 319.028889311 621.458865303 314.39206165 621.314915337 309.785519313 621.027015407 c 0
 226.324487321 615.249352424 149.609162247 588.288475016 79.6395440898 540.144383184 c 0
 48.2350419 517.614533978 27.4284360576 506.349609375 17.2197265625 506.349609375 c 0
 4.7001953125 506.349609375 -1.5595703125 511.629882813 -1.5595703125 522.190429688 c 0
 -1.5595703125 528.867090223 0.83830216943 536.010982 5.63404713329 543.622105019 c 0
 10.4297920972 551.233228038 17.5679676956 559.954743681 27.0485739286 569.78665195 c 0
 64.011031757 610.782011071 125.122640143 641.937036589 210.383399087 663.251728504 c 0
 254.142640138 673.197190751 292.328317005 678.169921875 324.940429688 678.169921875 c 0
280.447632478 514.808999033 m 0
 280.871998037 515.777732898 281.577612844 517.420827212 282.564476898 519.738281975 c 0
 283.551340952 522.055736738 284.250884622 523.673881005 284.663107907 524.592714775 c 0
 285.075331192 525.511548546 285.736199373 526.883078699 286.645712448 528.707305236 c 0
 287.555225523 530.531531773 288.303437923 531.831656197 288.89034965 532.60767851 c 0
 289.477261377 533.383700823 290.269638709 534.364297289 291.267481646 535.549467909 c 0
 292.265324582 536.734638529 293.227886554 537.570915421 294.155167563 538.058298586 c 0
 295.082448572 538.545681751 296.172015895 538.98951684 297.423869534 539.389803854 c 0
 298.675723173 539.790090868 300.00774062 539.990234375 301.419921875 539.990234375 c 0
 308.197176198 539.990234375 313.071044625 534.050255861 316.041527155 522.170298832 c 0
 318.16032676 513.692988649 319.219726562 504.226066121 319.219726562 493.76953125 c 0
 319.219726562 484.948104355 318.355464879 475.725094707 316.626941514 466.100502307 c 0
 314.898418149 456.475909906 312.390292263 446.654147336 309.102563854 436.635214597 c 2
 308.201797116 433.030351494 l 1
 261.914189311 288.263924535 235.853273221 175.69064359 230.019048845 95.3105086611 c 0
 229.324762114 89.7009765158 228.805543515 85.8623851886 228.461393048 83.7947346794 c 0
 228.002620787 81.0430150051 227.2669277 78.6550455434 226.254313786 76.6308262945 c 0
 224.552077942 73.2280500606 221.840679076 71.754428275 218.120117188 72.2099609375 c 0
 214.829502155 72.3085126112 212.070739817 73.5321602979 209.843830174 75.8809039977 c 0
 206.698717048 80.2418026766 203.537361127 85.2819642119 200.359762412 91.0013886035 c 0
 190.533332263 108.548935019 185.620117188 131.411753401 185.620117188 159.58984375 c 2
 185.620117188 167.4296875 l 2
 185.620117188 167.55790413 185.624737474 167.704217092 185.633978045 167.868626385 c 0
 192.897678257 235.959723951 211.650698697 318.327045712 241.893039366 414.970591668 c 0
 252.041438705 443.386784018 260.206993926 465.624575649 266.389705028 481.683966562 c 0
 272.57241613 497.743357475 277.258391947 508.785034965 280.447632478 514.808999033 c 0
EndSplineSet
EndChar

StartChar: E
Encoding: 69 69 13
Width: 467
VWidth: 875
Flags: HW
HStem: -6 58.8457<100.495 190.826> 633 51.999<264.835 403.307>
VStem: 33 60<56.9974 229.112>
LayerCount: 2
Fore
SplineSet
129.279502855 580.960079869 m 0
 134.527705488 598.205156005 161.367381475 619.626920467 209.798530814 645.225373254 c 0
 262.832108315 671.742162005 304.899146554 685.000045397 335.999645532 684.99902343 c 0
 359.730197035 685.000074897 384.118871414 676.454356036 409.165668667 659.361866849 c 2
 409.567743189 659.068748659 l 2
 410.974372165 657.97471524 412.915388413 656.5086065 415.390791932 654.67042244 c 0
 417.866195452 652.832238379 419.727203324 651.435165271 420.973815549 650.479203114 c 0
 422.220427774 649.523240957 423.700236878 648.273082279 425.413242861 646.728727081 c 0
 427.126248844 645.184371884 428.392454715 643.831562242 429.211860475 642.670298157 c 0
 430.031266236 641.509034071 430.751426086 640.153281878 431.372340027 638.603041579 c 0
 431.993253968 637.052801279 432.303710938 635.466370753 432.303710938 633.84375 c 0
 432.104901487 627.347098634 428.990906039 624.520926759 422.961724594 625.365234375 c 0
 420.524901889 625.365234375 413.787064326 626.396285079 402.748211903 628.458386488 c 2
 401.775524061 628.640070908 l 1
 400.789308654 628.824179991 l 1
 399.751861234 629.017645187 l 2
 391.670391538 630.317599678 383.285052535 631.302755565 374.595844224 631.97311285 c 0
 365.906635914 632.643470135 357.041028985 632.985765851 347.999023438 633 c 0
 332.339792741 633 310.73743362 628.340897768 283.191946073 619.022693303 c 0
 282.405898519 618.656283041 281.328916279 618.177124629 279.960999354 617.585218068 c 0
 278.593082429 616.993311506 276.96576234 616.300956546 275.079039087 615.508153187 c 0
 273.192315834 614.715349828 270.9282934 613.771537871 268.286971783 612.676717316 c 0
 265.596247498 611.561801087 262.991412728 610.456814112 260.472467475 609.361756391 c 0
 257.953522221 608.26669867 255.52793927 607.185048654 253.195718621 606.116806343 c 0
 250.863497973 605.048564032 248.619658539 603.991686332 246.464200318 602.946173244 c 0
 241.883534383 600.723410646 238.429654644 598.747371392 236.102561101 597.018055483 c 0
 229.954600316 576.92293649 223.57955463 556.661242329 216.977424043 536.232973 c 0
 210.375293455 515.804703671 203.257149327 494.305218427 195.62299166 471.734517268 c 2
 162.560973685 376.429425303 l 1
 191.055220972 384.937261764 228.65634523 393.809422314 275.36434646 403.045906954 c 0
 279.168992468 403.701053893 282.58374025 404.187430355 285.608589807 404.505036338 c 0
 288.633439363 404.822642321 291.440992761 404.981445312 294.03125 404.981445312 c 2
 297.68763584 404.852266635 l 2
 305.324915072 404.386076588 309.143554688 401.085386147 309.143554688 394.950195312 c 0
 309.143554688 392.723174251 308.370477165 390.449515746 306.824322119 388.129219798 c 0
 305.582378124 386.265459711 303.895212276 384.419764072 301.762824577 382.592132883 c 0
 299.630436877 380.764501694 297.364934518 379.085452335 294.9663175 377.554984806 c 0
 292.567700482 376.024517277 289.412299538 374.151788622 285.500114669 371.936798839 c 0
 285.25633979 371.798779066 285.006006025 371.673908155 284.749113376 371.562186106 c 0
 283.269016399 370.91849518 277.577559742 368.596479447 267.674743403 364.596138906 c 0
 257.771927065 360.595798365 243.029954698 354.661342078 223.448826301 346.792770045 c 0
 187.231392579 332.238534546 159.339629869 319.761429881 139.773538171 309.361456052 c 1
 127.179953598 270.456809577 117.664896785 239.85916454 111.228367731 217.568520939 c 0
 99.076122577 175.245681531 93 142.722841218 93 120 c 0
 93 77.0187297542 105.167136642 54.6794685127 129.501409925 52.9822162754 c 0
 130.120561416 52.9360683382 130.73689611 52.9017791622 131.350414006 52.8793487473 c 0
 131.963931901 52.8569183324 132.591593379 52.845703125 133.233398438 52.845703125 c 0
 142.959105971 52.845703125 154.15206073 55.6498448712 166.812262716 61.2581283635 c 0
 179.472464702 66.8664118559 193.390678876 75.3693602887 208.566905239 86.7669736619 c 0
 221.748891276 96.6669528346 239.178784457 113.276752532 260.856584781 136.596372754 c 0
 264.291198466 140.290950165 268.202753576 144.573621443 272.591250113 149.44438659 c 1
 282.578860511 160.482221219 l 2
 283.729354028 161.74346554 284.9154851 163.014659276 286.137253729 164.295802425 c 0
 287.359022358 165.576945574 288.615732456 166.867451133 289.907384025 168.167319102 c 0
 292.783376159 171.062492039 295.200528169 173.140015595 297.158840056 174.399889772 c 0
 298.400313778 175.200137022 299.635963498 175.833550539 300.865789217 176.300130323 c 0
 302.095614936 176.766710108 303.473685197 177 305 177 c 0
 315 177 320 171.333333333 320 160 c 0
 320 156.948591675 319.365942012 153.651986076 318.097826037 150.110183203 c 0
 316.829710062 146.56838033 314.817222189 142.579537473 312.060362418 138.143654634 c 0
 309.303502646 133.707771794 306.28657866 129.268511549 303.009590459 124.825873899 c 0
 299.732602258 120.383236248 295.564373522 114.999848344 290.504904251 108.675710185 c 0
 272.294229818 85.0696833181 253.70673634 64.4613128523 234.742423817 46.8505987874 c 0
 196.052872351 11.6168662625 160.472064412 -6 128 -6 c 0
 94.6812276681 -6 68.0050772106 10.8137412208 47.9715486275 44.4412236623 c 0
 44.630667534 50.1689025512 41.8484690285 56.1747227664 39.624953111 62.4586843081 c 0
 37.4014371936 68.7426458498 35.7413993624 75.2565957725 34.6448396174 82.0005340762 c 0
 33.5482798725 88.7444723799 33 95.7442943545 33 103 c 0
 33 171.857777176 68.487085108 299.690435761 139.461255324 486.497975755 c 0
 146.099036615 503.745557374 154.889094343 529.407006338 165.831428509 563.482322646 c 1
 165.036734542 563.038509557 164.397221048 562.681068754 163.912888027 562.410000236 c 0
 159.231649038 559.790950182 155.050181692 557.560351088 151.368485987 555.718202955 c 0
 147.686790282 553.876054822 144.414827305 552.385711752 141.552597054 551.247173745 c 0
 140.496811178 550.827203218 139.401277041 550.640632363 138.265994644 550.68746118 c 0
 130.480591965 551.008598192 126.587890625 555.852035611 126.587890625 565.217773438 c 0
 126.587890625 569.284421677 127.485094702 574.531857154 129.279502855 580.960079869 c 0
404.65625 652.75390625 m 1025
EndSplineSet
EndChar

StartChar: F
Encoding: 70 70 14
Width: 490
VWidth: 875
Flags: HW
HStem: 425.908 32.5481<413.944 456.948> 632.607 50.9781<385.803 633.702>
VStem: 62 60<-6.14218 134.192>
LayerCount: 2
Fore
SplineSet
539.57714507 683.585544371 m 0
 542.854396857 683.747649262 546.037104273 683.868815893 549.125267316 683.949044266 c 0
 552.213430359 684.029272638 555.239358552 684.069386824 558.203051895 684.069386824 c 0
 574.664009926 684.069386824 588.848711659 682.843959277 600.757157094 680.393104183 c 0
 612.665602529 677.942249089 622.661623598 673.827664258 630.745220299 668.04934969 c 0
 638.828817 662.271035122 644.14747043 654.842165246 646.701180589 645.762740061 c 0
 646.744511577 645.608681675 646.786877051 645.431812416 646.82827701 645.232132285 c 0
 647.60942567 639.853488836 648 635.30833797 648 631.596679688 c 0
 648 620.263346355 643.333333333 614.596679688 634 614.596679688 c 0
 627.667325451 614.596679688 619.520269004 618.044869885 609.558830658 624.941250278 c 0
 607.080268723 626.534611522 603.521090279 627.942891521 598.881295326 629.166090276 c 0
 594.241500373 630.38928903 588.256207087 631.381509128 580.925415468 632.14275057 c 0
 573.594623849 632.903992012 565.464426858 633.284612733 556.534824497 633.284612733 c 0
 549.141812774 633.284612733 541.10195354 633.05889643 532.415246793 632.607463825 c 0
 529.124887345 632.436444387 525.709645544 632.228014003 522.16952139 631.982172673 c 0
 518.629397236 631.736331342 514.963490324 631.453021447 511.171800655 631.132242986 c 0
 507.380110986 630.811464525 503.463089395 630.453077004 499.420735882 630.057080421 c 0
 495.378382369 629.661083838 491.212096117 629.227704083 486.921877124 628.756941154 c 0
 482.631658131 628.286178225 478.215504342 627.77758922 473.673415756 627.231174139 c 0
 469.13132717 626.684759058 464.467155862 626.101046196 459.680901831 625.480035553 c 0
 454.8946478 624.85902491 449.981856098 624.199971175 444.942526724 623.502874348 c 0
 439.90319735 622.805777521 434.743481966 622.071449405 429.463380572 621.299890001 c 0
 419.552221601 619.851591058 409.886476339 618.328652449 400.466144787 616.731074176 c 0
 391.045813235 615.133495903 382.156717043 613.515270409 373.798856212 611.876397694 c 0
 365.44099538 610.23752498 357.580080694 608.583249898 350.216112153 606.913572447 c 0
 342.852143612 605.243894996 336.100975593 603.583970935 329.962608098 601.933800262 c 0
 329.134674103 599.697250735 328.239666325 597.228832721 327.277584763 594.528546222 c 0
 326.3155032 591.828259723 325.069020628 588.291246712 323.538137046 583.917507191 c 0
 319.641058726 573.117275086 310.675382528 547.984369597 296.641108451 508.518790726 c 0
 285.488462904 477.156597709 276.213132757 451.387689343 268.815118009 431.212065628 c 1
 313.62456028 442.686035075 353.070854508 450.882916432 387.154000695 455.802709697 c 0
 389.592234257 456.154643792 391.972374372 456.471386355 394.294421041 456.752937385 c 0
 396.616467709 457.034488414 398.891763805 457.281838036 401.120309328 457.494986251 c 0
 403.348854852 457.708134466 405.521675788 457.885760995 407.638772137 458.02786584 c 0
 409.755868486 458.169970685 411.826087972 458.276874944 413.849430594 458.348578618 c 0
 415.872773216 458.420282292 417.84276011 458.456134129 419.759391276 458.456134129 c 0
 436.095184621 458.456134129 448.628746613 455.785941691 457.360077252 450.445556816 c 0
 461.413037845 446.917624264 463.685718331 443.444344777 464.178118709 440.025718354 c 0
 464.178118709 433.797111042 458.693106125 429.091209402 447.723080958 425.908013434 c 0
 446.49644719 425.552498767 445.228570037 425.217633569 443.919449498 424.903417842 c 0
 439.785622465 423.768944098 417.281473639 417.826350488 376.40700302 407.075637013 c 0
 369.615332607 405.28930678 363.116437184 403.566544641 356.91031675 401.907350595 c 0
 350.704196316 400.248156548 344.80146117 398.655409456 339.202111311 397.129109318 c 0
 333.602761452 395.602809179 328.300096467 394.141278023 323.294116357 392.744515848 c 0
 318.288136247 391.347753673 313.584388006 390.017265938 309.182871635 388.753052643 c 0
 304.781355263 387.488839349 300.680771205 386.290687485 296.88111946 385.15859705 c 0
 293.081467715 384.026506616 289.583231975 382.960609669 286.386412238 381.960906208 c 0
 281.653600543 380.48175812 277.154514394 379.007064228 272.88915379 377.536824532 c 0
 268.623793186 376.066584837 264.739330723 374.656248024 261.2357664 373.305814093 c 0
 257.732202077 371.955380162 254.562291346 370.661735154 251.726034209 369.424879068 c 0
 248.889777072 368.188022982 246.401175853 367.015098501 244.26023055 365.906105625 c 0
 229.810363629 332.397918731 213.150018143 295.188502841 194.279194092 254.277857954 c 0
 146.093064697 147.344255735 122 80.1171963133 122 52.5966796875 c 0
 122 48.5788170677 123.021498007 44.4990735169 125.06449402 40.3574490351 c 0
 128.354831861 34.550707347 130.000000521 29.2971175645 130 24.5966796875 c 0
 130 19.275871541 129.029755464 14.4496670709 127.089266393 10.1180662772 c 0
 125.148777321 5.78646548357 122.202714567 2.30337437714 118.251078132 -0.331207042084 c 0
 114.690019172 -2.70524634879 110.783486499 -4.47744172054 106.531480114 -5.64779315732 c 0
 102.279473728 -6.81814459411 97.7689803567 -7.4033203125 93 -7.4033203125 c 0
 72.3333333333 -7.4033203125 62 10.5966796875 62 46.5966796875 c 0
 62 46.9070944732 62.0180060046 47.2164612595 62.0540180139 47.5247800464 c 0
 65.8294067516 79.8479772215 73.8445882387 112.642983801 86.0995624752 145.909799784 c 0
 98.2257457371 178.828786087 114.800409872 216.959498779 135.823554881 260.301937859 c 0
 150.138746356 289.814455758 161.467913413 313.842894332 169.811056054 332.387253579 c 1
 165.308752439 330.148332118 160.345883007 327.699883718 154.922447756 325.041908381 c 0
 149.499012505 322.383933044 143.606763488 319.512112895 137.245700704 316.426447934 c 0
 130.88463792 313.340782973 123.969102355 309.99944137 116.499094009 306.402423126 c 0
 94.6263320368 295.657712115 77.5314820114 287.837243789 65.2145439329 282.941018149 c 0
 52.8976058543 278.044792508 43.4927578767 275.596679688 37 275.596679688 c 2
 34 275.596679688 l 1
 33 275.596679688 l 1
 29.4229900588 276.440912791 l 2
 25.3835445423 278.460142453 22.30318482 281.392387987 20.181910892 285.237649394 c 0
 18.060636964 289.082910801 17 293.369254233 17 298.096679688 c 0
 17 306.682097109 26.5949741731 317.11558929 45.7849225193 329.397156231 c 0
 54.3940671508 334.56264301 65.6909550519 340.807773738 79.6755862228 348.132548414 c 0
 93.6602173936 355.45732309 110.600531629 364.00940468 130.496528929 373.788793183 c 0
 163.399450492 389.67245857 186.754855877 401.460292163 200.562745084 409.152293962 c 1
 229.882939671 485.63300351 251.412170702 543.744905594 265.150438178 583.488000214 c 1
 232.087105305 572.705424796 200.973076283 561.911339374 171.808351113 551.105743948 c 0
 112.913632111 528.766367775 74.9775150732 517.596679688 58 517.596679688 c 0
 54.6113805368 517.596679688 51.4730290643 518.463107081 48.5849455825 520.195961867 c 0
 45.6968621008 521.928816653 43.283079455 524.249855403 41.3435976453 527.159078118 c 0
 40.29337558 528.734411216 39.4735537894 530.40627902 38.8841322737 532.17468153 c 0
 38.2947107579 533.94308404 38 535.750416759 38 537.596679688 c 0
 38 541.329508993 39.0058324221 544.917947149 41.0174972663 548.361994154 c 0
 43.0291621106 551.806041159 45.5482955788 554.826689736 48.574897671 557.423939887 c 0
 51.6014997632 560.021190038 55.3759861275 562.701773263 59.8983567638 565.465689562 c 0
 62.1413732593 566.773933313 64.5868981891 568.059091119 67.2349315534 569.32116298 c 0
 69.8829649176 570.583234841 72.7399572366 571.825687018 75.8059085104 573.048519513 c 0
 78.8718597841 574.271352008 82.1204052712 575.474325913 85.5515449717 576.657441228 c 0
 88.9826846721 577.840556543 92.6722229083 579.032971001 96.6201596803 580.234684602 c 0
 128.785192577 590.488793017 157.55483151 599.550890611 182.929076481 607.420977386 c 0
 208.303321452 615.291064161 230.235622085 621.954460027 248.725978381 627.411164984 c 0
 267.321630642 632.898712895 288.255034752 638.506354845 311.526190709 644.234090834 c 0
 334.797346667 649.961826824 360.428561343 655.816769597 388.419834736 661.798919154 c 0
 444.618998809 673.809512589 495.004768921 681.071720994 539.57714507 683.585544371 c 0
EndSplineSet
EndChar

StartChar: G
Encoding: 71 71 15
Width: 541
VWidth: 965
Flags: HW
HStem: -4.39648 56.9329<118.758 222.319> 622.902 55.7813<372.456 469.035>
VStem: 38.3212 58.1587<75.872 243.916> 330.45 54.1744<12.2774 121.346>
LayerCount: 2
Fore
SplineSet
461.648109244 364.911125419 m 1
 452.613716923 342.814589071 444.74356991 323.212156449 438.037668206 306.103827554 c 0
 431.331766501 288.995498659 425.801340859 274.412020278 421.446391279 262.353392411 c 0
 412.706584881 238.148478992 404.45950135 208.68190378 396.705140686 173.953666775 c 0
 388.651167959 137.888697042 384.624181595 109.136258747 384.624181595 87.6963518895 c 0
 384.624181595 83.3713677723 384.788053086 79.3439549202 385.115796066 75.6141133333 c 0
 386.231105284 62.9175399333 391.105646044 46.7352475475 399.739418346 27.0672361759 c 0
 407.008191623 13.2379700682 410.642578216 3.37669082202 410.642578125 -2.5166015625 c 0
 410.642578125 -12.4776581656 406.364536954 -17.9698547949 397.808454611 -18.9931914506 c 0
 397.569694064 -19.0217480271 397.330132977 -19.0395035931 397.089771351 -19.0464581485 c 0
 396.714164451 -19.0573258525 396.339588325 -19.0627597044 395.966042971 -19.0627597044 c 0
 382.368286469 -19.0627597044 370.136404943 -11.8623758986 359.270398392 2.53839171324 c 0
 344.835924106 22.8382708531 335.589690049 46.1887991429 331.531696222 72.5899765825 c 0
 330.331143463 78.3139012744 329.970500887 85.339964379 330.449768494 93.6681658964 c 0
 330.929486601 101.994415287 331.520105107 108.692311821 332.221624011 113.761855496 c 0
 332.545021757 116.104768952 332.939209008 118.818957984 333.404185765 121.904422592 c 1
 332.61876219 120.747324471 332.098959801 119.980955733 331.844778598 119.605316378 c 0
 331.590597396 119.229677023 331.173829509 118.612373296 330.594474937 117.753405199 c 0
 320.804102078 103.236758541 314.211350556 93.7112353102 310.816220371 89.1768355069 c 0
 301.484810807 76.7338503401 289.252181192 62.4292063607 274.118331527 46.2629035688 c 0
 258.616626802 29.7052354948 242.694372733 17.1628232451 226.351569321 8.63566681972 c 0
 209.697510127 -0.05243397676 192.981036499 -4.396484375 176.202148438 -4.396484375 c 0
 139.898336198 -4.396484375 107.808900474 7.70242056643 79.9338412647 31.9002304493 c 0
 52.1920620054 54.0758414851 38.3211723758 88.1407273199 38.3211723758 134.094887954 c 0
 38.3211723758 168.358338993 46.032281456 209.231279207 61.4544996165 256.713708596 c 0
 85.3462728576 327.827302295 119.636451185 396.073067715 164.325034598 461.451004855 c 0
 230.290988285 557.650722547 302.217981103 625.050501867 380.106013053 663.650342815 c 0
 384.874831774 666.122855351 389.67084896 668.294706812 394.494064613 670.165897198 c 0
 399.317280265 672.037087585 404.160457264 673.604698454 409.02359561 674.868729807 c 0
 413.886733956 676.13276116 418.769738914 677.084579655 423.672610483 677.724185293 c 0
 428.575482052 678.363790931 433.465210849 678.68359375 438.341796875 678.68359375 c 0
 470.308265518 678.68359375 491.226193842 663.120100526 501.095581848 631.993114079 c 0
 501.196800369 631.67388177 501.350178733 631.192157199 501.555716942 630.547940368 c 0
 502.414514871 627.85621661 503.063113881 625.761206816 503.501513972 624.262910987 c 0
 503.939914063 622.764615158 504.382859106 620.874369112 504.8303491 618.592172848 c 0
 505.277839095 616.309976584 505.501707103 614.293900739 505.501953125 612.543945312 c 0
 505.501953125 608.337652096 504.423169886 604.613141301 502.265603407 601.370412926 c 0
 500.108036928 598.127684551 497.11080681 595.915799527 493.273913051 594.734757854 c 0
 492.801811672 594.484850181 491.977453892 594.187120652 490.800839711 593.841569267 c 0
 489.62422553 593.496017881 488.798034168 593.323242188 488.322265625 593.323242188 c 0
 480.473707853 593.323242188 470.799490805 598.303276549 459.29961448 608.263345272 c 0
 459.073498622 608.470172501 458.934659182 608.599341749 458.883096159 608.650853018 c 0
 450.165553884 617.359645486 440.218959822 622.11013828 429.043313971 622.902331399 c 0
 400.077461743 622.597668544 360.601534653 598.438708013 310.615532702 550.425449805 c 0
 248.581191759 489.018544746 198.381522387 419.611456532 160.016524585 342.204185164 c 0
 146.644035956 315.223612821 135.363309451 289.412031502 126.174345069 264.769441209 c 0
 116.985380687 240.126850915 109.928252969 216.841090689 105.002961914 194.91216053 c 0
 100.057600653 172.893871558 96.4798608421 151.878043025 96.4798608421 132.202615243 c 0
 96.4798608421 108.288656461 103.60206324 89.3545303008 117.846468037 75.4002367607 c 0
 133.405552979 60.1577105438 150.607267531 52.5364474353 169.451611693 52.5364474353 c 0
 173.003705505 52.5364474353 176.614163505 52.8072381414 180.282985693 53.3488195533 c 0
 203.634953486 56.795696858 227.282552586 74.2623124599 251.225782993 105.748666359 c 0
 271.229902244 132.054865982 285.612651239 151.302119597 294.37402998 163.490427204 c 0
 296.514832476 166.468886886 298.825797107 169.823077047 301.306923873 173.552997688 c 0
 303.788050639 177.282918328 306.43705101 181.385228612 309.253924987 185.859928539 c 0
 312.070798964 190.334628466 315.059581749 195.190869662 318.220273344 200.428652125 c 0
 321.380964939 205.666434589 324.696500398 211.258368075 328.166879723 217.204452583 c 0
 342.013858274 240.929432021 355.189149366 266.886430251 367.692752997 295.075447273 c 0
 376.98863434 316.42097033 385.671585222 334.652005021 393.741605645 349.768551344 c 0
 401.811626068 364.885097667 409.394433494 377.055575397 416.490027925 386.279984532 c 0
 419.238678004 389.853282463 422.218943233 392.730637499 425.430823611 394.912049641 c 0
 428.64270399 397.093461784 432.2653254 398.183650625 436.298687842 398.182616165 c 2
 438.229351905 398.183592727 l 2
 438.513618844 398.183736514 438.828131419 398.162984531 439.172889629 398.121336778 c 0
 439.517647838 398.079689025 439.812187586 398.030273785 440.056508871 397.97309106 c 0
 443.73745439 397.11157588 447.162758903 395.733449002 450.332422408 393.838710425 c 0
 453.502085913 391.943971848 456.31266238 389.58835501 458.764151808 386.77185991 c 0
 462.04312855 383.350702061 463.68261701 379.047842508 463.682617188 373.86328125 c 2
 463.812885065 370.205786744 l 2
 461.648109244 364.911125419 461.648109244 364.911125419 461.648109244 364.911125419 c 1
463.812885065 370.205786744 m 1
 463.812885065 370.205786744 l 1
EndSplineSet
EndChar

StartChar: H
Encoding: 72 72 16
Width: 635
VWidth: 965
Flags: HW
HStem: -8 55<111.85 161.681> 634 47<584.308 698.819>
VStem: 23.0426 52.9906<85.3543 182.913> 297.033 53.001<447.982 640.45> 362.043 50.99<61.0114 286.792> 707.483 50.5498<553.317 623.642>
LayerCount: 2
Fore
SplineSet
325.033203125 641 m 0
 341.695931137 641 350.029589961 625.675204009 350.034179598 595.025612026 c 0
 348.381723725 561.440096009 344.65315166 527.816896778 338.848463403 494.156014331 c 0
 337.402102085 485.769376326 335.988276471 477.861692396 334.60698656 470.432962541 c 0
 333.22569665 463.004232686 331.871958135 456.02941905 330.545771014 449.508521632 c 0
 329.219583893 442.987624214 327.921470624 436.928532427 326.651431207 431.33124627 c 0
 325.38139179 425.733960113 324.138835052 420.596087743 322.923760993 415.917629162 c 0
 320.844535396 407.912163876 318.121482855 397.761911817 314.754603371 385.466872984 c 0
 311.387723888 373.171834151 307.42845702 358.913994394 302.876802767 342.693353711 c 1
 314.908256428 347.990097192 328.71736439 353.95575682 344.304126654 360.590332594 c 0
 365.97147574 369.813721549 386.021304307 378.966968548 404.453612356 388.050073591 c 1
 412.257554035 408.800280908 417.941561665 423.927780513 421.505635246 433.432572407 c 0
 425.069708827 442.9373643 427.062478129 448.283440529 427.483943151 449.470801094 c 0
 459.822831307 535.033635883 492.314053717 594.816863977 524.957610381 628.820485376 c 0
 557.657121367 663.606828459 599.015652282 681 649.033203125 681 c 0
 662.712935852 681 675.820275487 679.057735411 688.355222029 675.173206234 c 0
 700.890168572 671.288677057 712.785501194 665.477372792 724.041219895 657.739293439 c 0
 735.179898768 649.834699148 743.629899024 640.684792694 749.391220664 630.289574079 c 0
 755.152542305 619.894355464 758.033203125 608.464497437 758.033203125 596 c 0
 758.033203125 571.400618282 744.666455458 545.733662348 717.932960125 518.999132197 c 0
 657.734747093 461.217735775 568.546870734 403.751904119 450.369331049 346.60163723 c 1
 437.868991838 299.409223628 428.552018032 259.518038868 422.418409633 226.92808295 c 0
 416.284801234 194.338127032 413.156399064 168.35362324 413.033203125 148.974571574 c 0
 413.033203125 101.155159702 421.754059596 70.7063268033 439.195772539 57.6280728774 c 0
 439.417001104 57.4621898961 439.629059263 57.285312522 439.831947016 57.0974407551 c 0
 441.280643416 55.7559642582 445.15371618 52.9284948077 451.451165307 48.6150324034 c 0
 454.832637792 46.2991140175 457.992012375 44.0336057332 460.929289055 41.8185075506 c 0
 463.866565735 39.603409368 466.589208829 37.4309453603 469.097218338 35.3011155274 c 0
 475.345048333 29.9956022787 478.648566942 25.0956366213 479.007774163 20.6012185554 c 0
 479.025234879 20.3827492357 479.033703599 20.1639319056 479.033180323 19.9447665651 c 0
 479.01367776 11.7764431514 475.077972054 5.71862758861 467.226063205 1.77131987662 c 0
 466.799151952 1.57839909967 466.532884643 1.46225112078 466.427261276 1.42287593996 c 0
 463.210330323 0.22364093832 459.847857814 -0.3759765625 456.33984375 -0.3759765625 c 0
 454.54141593 -0.3759765625 452.71304807 -0.217168719959 450.854740171 0.100446965124 c 0
 395.016862237 9.63418042944 365.413021928 45.1397764577 362.043219244 106.61723505 c 0
 361.633204943 114.104235849 361.428694362 121.834688749 361.4296875 129.80859375 c 0
 361.4296875 163.122243334 364.98854056 200.857899191 372.106246679 243.015561321 c 0
 375.226411636 268.05534419 379.911801384 294.698086104 386.162415924 322.943787063 c 1
 373.612987477 317.559052465 357.242731516 310.364890916 337.05164804 301.361302415 c 0
 312.037280172 290.208559057 295.917139995 283.035658422 288.691227509 279.84260051 c 1
 286.91997089 274.494773813 284.970225052 268.391988221 282.841989997 261.534243734 c 0
 280.713754942 254.676499247 278.403931294 247.053484059 275.912519055 238.66519817 c 0
 273.421106815 230.27691228 270.747598394 221.121211746 267.891993792 211.198096568 c 0
 265.03638919 201.27498139 261.996670491 190.57753467 258.772837696 179.105756409 c 0
 248.940591733 144.125517862 236.051322848 107.918129573 220.105031043 70.483591543 c 0
 203.741417285 32.0741186018 189.364010461 8.65066404054 176.97281057 0.213227859207 c 0
 168.930115501 -5.26225738026 162.616913019 -8 158.033203125 -8 c 0
 135.667798092 -8 113.511893582 1.20368388877 91.5654895929 19.6110516663 c 0
 49.3747756556 54.1936874335 26.5338032361 94.5248615664 23.0425723343 140.604574065 c 0
 23.0244503512 141.088431015 23.0128244663 141.465967494 23.0076946798 141.737183501 c 0
 23.0025648933 142.008399508 23 142.343726362 23 142.743164062 c 0
 23 152.367018809 25.4992763268 162.446383538 30.4978289804 172.981258249 c 0
 35.4963816341 183.51613296 42.8712245869 194.669454022 52.6223578388 206.441221435 c 2
 52.9561235706 206.819235703 l 2
 79.2781165893 234.801481878 119.967560504 261.968414678 175.024455314 288.320034104 c 0
 185.196172051 293.128661395 195.598916083 297.803102309 206.23268741 302.343356845 c 0
 211.505173333 304.595325612 216.207221863 306.605981388 220.338832999 308.375324173 c 0
 224.470444134 310.144666958 228.029778371 311.671905844 231.016835708 312.957040832 c 0
 235.127715794 314.725815147 238.512279203 316.312976585 241.170525935 317.718525147 c 0
 254.166419422 359.765180859 266.465517732 408.285143211 278.067820867 463.278412204 c 0
 289.937499651 519.53904309 296.259293737 564.473357605 297.033203125 598.081355749 c 0
 297.033203125 626.69378525 306.366536458 641 325.033203125 641 c 0
58.783203125 201.337890625 m 1025
463.6328125 8.9189453125 m 1025
471.033203125 19.9638671875 m 1025
342.034179688 595.024414062 m 1025
468.699060569 413.324108236 m 1
 491.452485434 422.741821377 514.959456574 434.119022204 539.219973988 447.455710715 c 0
 563.480491401 460.792399226 588.800401126 476.255048337 615.179703162 493.843658049 c 0
 642.550305179 511.695049571 665.110053056 530.652313995 682.858946793 550.715451321 c 0
 699.27524789 568.202361044 707.483398438 583.430348624 707.483398438 596.399414062 c 0
 707.483398438 605.289762687 703.442073228 613.41944964 695.359422809 620.78847492 c 0
 685.377269943 629.596158307 668.101863382 634 643.533203125 634 c 0
 619.052644344 634 595.811134436 623.627476642 573.808673402 602.882429926 c 0
 530.351872126 562.74709869 495.315334515 499.56099146 468.699060569 413.324108236 c 1
225.74268396 256.082539467 m 1
 183.417432073 243.244655434 144.347991844 222.096728146 108.534363273 192.638757603 c 0
 97.4982056937 183.179062723 89.3223062742 173.802298026 84.0066650145 164.508463511 c 0
 78.6910237548 155.214628996 76.033203125 146.045141159 76.033203125 137 c 0
 76.033203125 129.24727712 78.3749298688 120.358886315 83.0583833565 110.334827584 c 0
 87.7418368442 100.310768853 94.8850892461 89.3279800368 104.488140562 77.3864611347 c 0
 105.599199528 76.0048474138 106.774961577 74.6221484386 108.01542671 73.2383642089 c 0
 109.255891843 71.8545799792 110.567596578 70.4636263413 111.950540916 69.0655032952 c 0
 113.333485253 67.6673802491 114.78084795 66.2698514422 116.292629006 64.8729168743 c 0
 117.804410062 63.4759823064 119.389186457 62.0728211934 121.046958191 60.6634335352 c 0
 122.704729925 59.254045877 124.426635294 57.8469319515 126.212674297 56.4420917586 c 0
 127.945059711 55.0793716921 129.654187209 53.8278917148 131.34005679 52.6876518267 c 0
 133.025926371 51.5474119387 134.463367087 50.6405207984 135.65237894 49.9669784057 c 0
 136.841390793 49.2934360131 137.92548323 48.7204733162 138.904656253 48.2480903151 c 0
 139.883829276 47.775707314 140.62003024 47.4495965112 141.113259146 47.2697579067 c 0
 141.606488052 47.0899193022 141.913136045 47 142.033203125 47 c 0
 148.226187234 47.4689754288 152.950498083 49.4418004119 156.206135672 52.9184749493 c 0
 162.532023672 63.7614964586 168.405290416 75.0394313196 173.825935904 86.7522795325 c 0
 179.246581392 98.4651277455 184.420555837 111.045006803 189.34785924 124.491916706 c 0
 199.229148649 151.456195239 206.53271846 174.346766719 211.258568673 193.163631147 c 0
 215.398766952 209.647644554 220.226805381 230.620613994 225.74268396 256.082539467 c 1
EndSplineSet
EndChar

StartChar: I
Encoding: 73 73 17
Width: 301
VWidth: 965
Flags: HW
HStem: -5.56152 21G<124.291 135.038> -5.56152 21G<124.291 135.038> 649.239 20G<228.485 229.253>
VStem: 102.87 55.6309<0.790931 255.803>
LayerCount: 2
Fore
SplineSet
106.913830641 133.854598021 m 0xb0
 109.872105332 157.406678128 112.417968897 178.735939851 114.551421334 197.842383188 c 0
 116.702343764 217.094134727 126.07133212 263.537606079 142.658386401 337.172797243 c 0
 159.226842014 410.737285913 173.311693123 483.250536038 184.91293973 554.712547619 c 0
 195.027192127 617.018140296 201.159659911 652.517130594 203.310343081 661.209518512 c 0
 203.956215999 663.819934601 205.52058334 665.641577892 208.003445103 666.674448384 c 0
 209.201969788 667.173034652 210.646751823 667.565716078 212.337791208 667.852492662 c 0
 213.951585933 668.125842725 215.413318628 668.311229613 216.722989294 668.408653325 c 0
 218.058417786 668.505684459 219.720362181 668.622417277 221.70882248 668.758851779 c 0
 222.801347747 668.835211072 223.783174435 668.906725512 224.654302544 668.973395101 c 0
 225.525430654 669.040064689 226.306113038 669.103430498 226.996349697 669.163492527 c 0
 227.599410757 669.214002717 228.192749921 669.239257812 228.776367188 669.239257812 c 0
 229.730596506 669.239257812 230.666285794 669.173629958 231.583435051 669.04237425 c 0
 233.106368264 668.825786885 234.50990529 668.45184126 235.794046129 667.920537374 c 0
 236.415287675 667.6667263 237.026290334 667.370939994 237.627054107 667.033178455 c 0
 238.22781788 666.695416916 238.804243015 666.320856864 239.35632951 665.909498299 c 0
 241.48576058 664.317654444 243.14471887 662.180830544 244.333204379 659.499026599 c 0
 245.868418086 656.038467284 246.636581729 650.092735899 246.637695307 641.661832444 c 0
 246.637353834 631.797354873 245.640764439 618.644900812 243.64792712 602.204470259 c 0
 241.655089802 585.764039706 238.699653117 566.150032257 234.781617065 543.362447913 c 0
 230.863581012 520.574863568 225.93111988 494.220694446 219.984233668 464.299940545 c 0
 197.174094947 349.527160069 181.219504625 264.231039803 172.120462702 208.411579746 c 0
 167.605647127 180.705539357 164.207028876 157.458748024 161.924607951 138.671205747 c 0
 159.642187025 119.88366347 158.500976562 105.945084471 158.500976562 96.85546875 c 0
 158.500976562 81.6394809109 158.697433284 67.9151162435 159.090346727 55.6823747478 c 0
 159.48326017 43.4496332521 160.067857029 32.7698058887 160.844137302 23.6428926576 c 0
 160.912600656 22.8925563759 160.964970955 22.1383579906 161.001248198 21.3802975019 c 0
 161.037525441 20.6222370132 161.055664062 19.8857706584 161.055664062 19.1708984375 c 0
 161.055664062 10.9435941747 158.764265711 4.75148989905 154.181469008 0.594585610653 c 0
 151.866758908 -1.5085032258 148.92077317 -3.08295529395 145.343511795 -4.12877059382 c 0
 143.647051258 -4.62474132609 141.863457935 -4.98636164192 139.992731825 -5.21363154131 c 0
 138.122005715 -5.4409014407 136.112384169 -5.5568654061 133.963867188 -5.5615234375 c 0
 114.617648681 -5.5615234375 104.466463789 2.1840262642 103.510312513 17.6751256676 c 2
 103.495410342 18.0994824127 l 2
 103.390595987 30.3425683521 103.194426936 46.7652403777 102.906903188 67.3674984895 c 0
 102.883389729 69.2074267166 102.871127729 71.0621407617 102.870117188 72.931640625 c 0
 102.870117188 92.048910453 104.218021672 112.356562918 106.913830641 133.854598021 c 0xb0
111.495117188 18.16796875 m 1025
110.49609375 18.1328125 m 1025
109.497070312 18.0986328125 m 1025
107.497070312 18.03125 m 1025
106.497070312 17.998046875 m 1025
EndSplineSet
EndChar

StartChar: J
Encoding: 74 74 18
Width: 392
VWidth: 965
Flags: HW
HStem: -127.146 53.8242<156.068 268.29> 651.824 20G<263.306 270.203>
VStem: 25.5996 56.0606<-5.65217 81.5483> 243.4 50.5996<403.328 671.55>
LayerCount: 2
Fore
SplineSet
243.400390625 624.079101562 m 0
 243.400390625 637.608581623 243.886063162 645.892374137 244.857408236 648.930479102 c 0
 249.152619978 664.192972255 257.303015149 671.82421875 269.30859375 671.82421875 c 1
 271.097473821 671.82421875 272.949380181 671.637643665 274.864312831 671.264493495 c 0
 288.741229288 669.188533675 295.679687511 661.823025427 295.6796875 649.16796875 c 2
 294.886320766 641.720503238 l 2
 294.746222611 641.020746925 294.610899081 639.701265623 294.480350175 637.762059333 c 0
 294.349801269 635.822853043 294.23710568 633.144039076 294.142263408 629.725617433 c 0
 294.047421136 626.30719579 294 622.591690499 294 618.579101562 c 2
 293.981725641 617.943555286 l 2
 293.303153339 606.255748953 292.963867188 593.546373754 292.963867188 579.815429688 c 0
 292.963867188 517.922654737 300.63898515 429.885699421 315.989221073 315.704563738 c 0
 331.419584108 200.92526432 339.134765625 111.085917553 339.134765625 46.1865234375 c 0
 339.134765625 2.6899129843 335.65169501 -29.8209475406 328.685553779 -51.3460581372 c 1
 328.685553779 -51.3460581372 328.685553779 -51.3460581372 328.4999096 -51.859239117 c 0
 321.960262731 -68.1745736315 314.023120716 -81.9017215695 304.688483556 -93.0406829311 c 0
 295.353846395 -104.179644293 284.573308882 -112.645956637 272.346871016 -118.439619964 c 0
 260.12043315 -124.233283291 246.646642097 -127.13524526 231.925497858 -127.145505869 c 0
 231.725711427 -127.14564512 231.526199744 -127.13831067 231.326962809 -127.123502519 c 2
 217.018369059 -126.060025957 l 2
 205.913107584 -124.566275996 195.161152083 -122.363756851 184.762502556 -119.452468521 c 0
 174.363853028 -116.541180191 164.17450404 -112.910581075 154.194455593 -108.560671174 c 0
 144.214407146 -104.210761273 134.446859877 -99.1444083376 124.891813786 -93.3616123689 c 0
 96.1770472295 -75.9819404329 72.5222153706 -54.5075438683 53.9273182092 -28.938422675 c 0
 35.0421789864 -2.96840848453 25.599609375 20.5182271988 25.599609375 41.521484375 c 0
 25.599609375 85.5854887837 45.2019081933 112.666691123 84.40650583 122.765091394 c 0
 86.815136597 123.386264592 89.1507387857 123.85808952 91.4133123961 124.180566179 c 0
 93.6758860066 124.503042838 95.8774342426 124.669064459 98.0179571043 124.678631042 c 0
 98.4249114497 124.680449832 98.829648036 124.651385318 99.2321668633 124.591437499 c 2
 103.894276238 123.897101561 l 2
 104.985045363 123.734651446 105.998876623 123.362566417 106.935770017 122.780846473 c 0
 110.653360609 120.472583224 113.499833505 118.581307319 115.475188705 117.107018758 c 0
 117.450543904 115.632730197 119.374787451 113.551413238 121.247919346 110.863067881 c 0
 123.121051241 108.174722524 124.057617188 105.333647814 124.057617188 102.33984375 c 0
 124.057617188 97.8194096487 121.746828277 93.9764366933 117.125250454 90.8109248838 c 0
 116.844279468 90.6304295773 116.669332721 90.5203127677 116.600410212 90.4805744549 c 0
 93.3069255453 77.050364303 81.6601832119 62.4713753481 81.6601832119 46.7436075902 c 0
 81.6601832119 15.5858199474 109.473104963 -16.7894316601 136.106019562 -37.2826661286 c 0
 166.446451863 -60.6275113781 197.117801358 -72.6403856894 228.120068046 -73.3212890625 c 0
 232.238141006 -73.3212890625 236.215744596 -72.8030928031 240.052878816 -71.7667002842 c 0
 243.890013036 -70.7303077654 247.669168505 -69.124875823 251.390345222 -66.9504044569 c 0
 255.111521939 -64.7759330908 258.742142633 -62.0228793308 262.282207303 -58.6912431769 c 0
 270.748379004 -50.7892125455 277.417822275 -34.7805877967 282.290537115 -10.6653689305 c 0
 287.163251955 13.4498499357 289.599609375 44.998136975 289.599609375 83.9794921875 c 0
 289.599609375 102.390250898 289.111604511 119.12732241 288.135594784 134.190706723 c 0
 287.159585057 149.254091035 285.70746822 162.586139373 283.779244275 174.186851736 c 0
 281.790148258 186.149659528 278.820603894 206.629724327 274.870611181 235.627046134 c 0
 270.920618468 264.624367941 265.95715504 302.369005396 259.980220896 348.860958498 c 0
 248.927000715 446.866765527 243.400390625 538.606146549 243.400390625 624.079101562 c 0
98.0537109375 116.678710938 m 1025
217.611328125 -118.08203125 m 1025
231.919921875 -119.145507812 m 1025
321.07421875 -48.8828125 m 1025
EndSplineSet
EndChar

StartChar: K
Encoding: 75 75 19
Width: 505
VWidth: 965
Flags: HW
HStem: -49.9951 45.077<405.607 477.335> -5.64355 21G<37.3658 41.1753> -5.64355 21G<37.3658 41.1753> 674.378 20G<437.09 444.371>
VStem: 126.565 50.2343<395.53 646.097> 419.461 51.5858<604.951 683.431>
LayerCount: 2
Fore
SplineSet
143.814150592 347.443825575 m 1x5c
 153.470371638 337.976703842 165.262080093 320.932846765 179.189275956 296.312254343 c 1
 202.854789037 317.250976068 223.999337037 338.218093206 242.622919955 359.213605759 c 0
 261.246502873 380.209118312 277.948676764 401.863533225 292.729441627 424.176850498 c 0
 293.218024948 424.921940063 293.798666882 425.771635113 294.471367428 426.725935648 c 0
 295.144067974 427.680236183 295.889867086 428.714170268 296.708764764 429.827737903 c 0
 297.527662441 430.941305538 298.438670954 432.161911853 299.441790303 433.489556846 c 0
 327.76835036 471.634578682 351.647504091 509.510559373 371.079251497 547.117498919 c 0
 390.510998903 584.724438465 405.441733295 621.905393989 415.871454673 658.66036549 c 0
 417.060762795 663.427288156 418.257220059 668.053535197 419.460826465 672.539106612 c 0
 423.367468888 687.098287666 431.205582653 694.377878193 442.97516776 694.377878193 c 0
 445.766384865 694.377878193 448.778717906 693.968455529 452.012166883 693.1496102 c 0
 457.487471466 691.282857608 462.304252148 688.133402698 466.462508928 683.70124547 c 0
 471.526208813 677.962519137 473.054262517 670.331973006 471.046670039 660.809607076 c 0
 471.0070514 660.621688873 470.960726042 660.435438809 470.907693964 660.250856886 c 0
 463.124488049 633.160854451 453.332631614 606.333070592 441.532124661 579.767505311 c 0
 429.731617707 553.201940029 415.92932153 526.904841494 400.12523613 500.876209706 c 0
 372.917298265 456.067353311 347.142152976 416.962347488 322.799800263 383.561192237 c 0
 298.45744755 350.160036985 275.453836036 322.36758742 253.78896572 300.183843543 c 0
 234.903004158 280.911988124 218.108373525 264.739127324 203.405073821 251.665261141 c 1
 246.47656329 171.610954761 283.424425976 116.699504415 314.248661877 86.930910104 c 0
 319.896264605 81.5066230537 323.71078673 77.5737593785 325.692228253 75.1323190786 c 0
 370.33606798 33.7411930643 411.743612442 8.69463409725 449.914861638 -0.00735782264476 c 0
 454.829835148 -1.09162237181 459.127123954 -2.72855741426 462.806728057 -4.91816294997 c 0
 472.578130444 -10.2155911582 477.463831637 -17.0487226547 477.463831637 -25.4175574394 c 0
 477.463831637 -29.7210164548 476.171921648 -34.4305564688 473.58810167 -39.5461774814 c 2
 473.382310646 -39.9275793215 l 2
 469.522627796 -46.6392712322 462.390959143 -49.9951171875 451.987304688 -49.9951171875 c 0x9c
 443.637451588 -49.9951171875 432.672296652 -47.7388924167 419.091839881 -43.2264428751 c 0
 369.63704094 -25.801403673 326.563641319 2.39375339247 289.871641017 41.3590283212 c 2
 266.439230052 66.2739699287 l 2
 234.714339215 102.013844456 200.446899882 153.331871826 163.636912055 220.228052039 c 1
 157.854227838 216.176910292 152.261917608 212.572077551 146.859981367 209.413553817 c 0
 141.458045126 206.255030083 136.211039643 203.525470913 131.11896492 201.224876308 c 0
 126.026890197 198.924281703 121.093758525 197.06258699 116.319569904 195.639792168 c 0
 111.545381283 194.216997347 106.918317824 193.229044097 102.438379527 192.675932419 c 1
 84.9511293991 131.161484404 72.2206953189 79.7864314667 64.2470772862 38.550773608 c 1
 69.0438265916 33.0919722469 71.4422012444 27.6480425646 71.4422012444 22.218984561 c 0
 71.4422012444 16.3453057414 68.6349036566 10.4890342221 63.0203084811 4.65017000323 c 0
 61.454038283 3.02140320964 59.7904564127 1.57290115299 58.02956287 0.304663833275 c 0
 56.2686693273 -0.963573486442 54.4268465599 -2.04043642344 52.5040945678 -2.92592497772 c 0
 50.5813425757 -3.81141353201 48.573046435 -4.48572395554 46.4792061459 -4.94885624832 c 0
 44.3853658568 -5.41198854111 42.2568804748 -5.6435546875 40.09375 -5.6435546875 c 0
 34.6378840589 -5.6435546875 28.9337387504 -4.23622005658 22.9813140745 -1.42155079473 c 0
 14.3683617524 2.65150736161 10.9357875882 9.32283810172 12.6835915819 18.5924414256 c 0
 13.6595095278 23.765516063 15.5248876538 34.4718159573 18.2797259599 50.7113411086 c 0
 18.8349643463 53.9836506373 19.3718909311 57.1097964295 19.8905057143 60.0897784852 c 0
 20.4091204975 63.0697605408 20.9108521564 65.911522103 21.3957006911 68.6150631719 c 0
 21.8805492258 71.3186042408 22.347641883 73.8786677977 22.7969786627 76.2952538425 c 0
 23.2463154425 78.7118398873 23.6788622891 80.9900353085 24.0946192024 83.129840106 c 0
 24.5103761157 85.2696449036 24.9089330757 87.2686584136 25.2902900824 89.1268806361 c 0
 30.8711719091 116.320056495 41.0554533612 154.882889804 55.8431344385 204.815380564 c 1
 40.4932843962 217.956784199 32.818359375 236.689222449 32.818359375 261.012695312 c 0
 32.818359375 291.008817218 44.083855294 318.870503386 66.614847132 344.597753815 c 0
 69.0712275355 347.321366312 71.6733103058 349.831582299 74.4210954431 352.128401776 c 0
 77.1688805803 354.425221254 79.9256326819 356.416879107 82.6913517478 358.103375336 c 0
 85.4570708137 359.789871565 88.2220604968 361.196887895 90.9863207973 362.324424328 c 0
 93.7505810978 363.451960761 96.4269913189 364.256978989 99.0155514606 364.739479014 c 0
 114.687881076 432.585928364 123.319683093 482.740152113 124.910957512 515.20215026 c 0
 125.462684317 526.459773091 125.876361381 536.921585724 126.151988704 546.587588159 c 0
 126.427616027 556.253590594 126.565429688 565.113066416 126.565429688 573.166015625 c 0
 126.565429688 604.481140955 124.738398819 622.889064227 121.084337081 628.389785441 c 2
 120.850128297 628.764404363 l 2
 117.064581061 635.208724315 115.171807442 641.068678427 115.171807442 646.3442667 c 0
 115.171807442 651.388730694 116.902368548 655.89890956 120.363490756 659.8748033 c 0
 126.439695533 666.85471995 134.436976311 670.532561284 144.355333091 670.908327303 c 0
 144.632606051 670.918832043 144.909675586 670.914921969 145.186541696 670.896597082 c 0
 166.358404524 669.495298831 176.944335938 639.881654491 176.944335938 582.055664062 c 0
 176.944335938 577.9361097 176.896142307 573.669485819 176.799755045 569.255792419 c 0
 176.703367783 564.842099018 176.558715538 560.278527342 176.365798309 555.565077391 c 0
 176.17288108 550.851627439 175.9320538 545.98944261 175.643316468 540.978522903 c 0
 175.354579136 535.967603196 175.017483261 530.798069791 174.632028844 525.46992269 c 0
 172.919864359 502.5703991 169.444373538 476.030414788 164.205556383 445.849969755 c 0
 158.966739228 415.669524722 152.169603964 382.867476662 143.814150592 347.443825575 c 1x5c
127.686932755 283.174108818 m 1
 126.153679724 277.356927035 124.750905087 272.089698472 123.478608846 267.372423131 c 0
 122.206312605 262.65514779 120.841478545 257.652422212 119.384106667 252.364246398 c 1
 122.908486992 254.182983493 126.188484313 256.008415561 129.22409863 257.8405426 c 0
 132.259712947 259.67266964 135.560811549 261.790862386 139.127394437 264.195120838 c 1
 136.980166415 267.879251427 134.968944156 271.274017552 133.093727659 274.379419213 c 0
 131.218511162 277.484820874 129.416246194 280.416384076 127.686932755 283.174108818 c 1
EndSplineSet
EndChar

StartChar: L
Encoding: 76 76 20
Width: 487
VWidth: 965
Flags: HW
HStem: -6.82361 44.8836<289.607 431.351> 300.871 20G<108.667 115.567> 664.58 20G<338.321 343.437>
LayerCount: 2
Fore
SplineSet
111.636675707 252.765354076 m 1
 110.622041744 251.834133752 109.668152677 250.843299298 108.775008506 249.792850715 c 0
 106.664054859 247.311459448 104.269245145 243.603306153 101.590579366 238.66839083 c 0
 98.9119135863 233.733475507 96.1192282815 227.782585867 93.2125234516 220.815721909 c 0
 88.0806358183 208.5126292 82.5577015778 193.068649551 76.6437207299 174.483782962 c 0
 73.7161646106 165.298216195 71.0636935508 156.616350169 68.6863075507 148.438184885 c 0
 66.3089215506 140.260019601 64.2080854135 132.592776589 62.3837991396 125.436455848 c 0
 56.6482526711 102.942745271 53.6404526735 85.5247392818 53.3603991468 73.1824378797 c 1
 55.9742088649 75.8275294772 58.7844407917 79.0458600572 61.7910949274 82.8374296196 c 0
 64.7977490631 86.6289991819 68.078103626 91.1063287589 71.6321586162 96.2694183505 c 0
 81.2603277478 109.389509731 90.7445676177 124.052140269 100.084878226 140.257309964 c 0
 104.420129173 147.777230023 108.731056938 155.639411407 113.01766152 163.843854115 c 0
 117.304266102 172.048296824 121.565372845 180.593846601 125.800981748 189.480503447 c 0
 126.776524008 191.526989124 127.743413171 193.557783676 128.701649237 195.572887102 c 0
 129.659885304 197.587990528 130.439755489 199.229543206 131.041259792 200.497545136 c 0
 131.642764095 201.765547066 132.097592817 202.725786024 132.405745959 203.378262009 c 2
 131.456648463 205.955529576 l 2
 127.244548828 217.833422867 123.325724524 227.96557345 119.700175553 236.351981326 c 0
 116.074626582 244.738389201 113.3867933 250.209513451 111.636675707 252.765354076 c 1
314.831115533 631.765831758 m 0
 316.932903015 637.424875035 l 1
 317.116269844 637.853237688 l 2
 317.704625423 639.124057436 318.215754839 640.426104608 318.649658092 641.759379203 c 1
 314.871025301 640.115506743 310.362447325 637.782865386 305.123924166 634.761455132 c 0
 300.546069879 632.121097256 296.916059434 633.077660612 294.233892831 637.631145201 c 0
 290.297024246 644.314723473 291.462453709 651.629462596 297.730181219 659.575362569 c 0
 302.969033002 666.610033006 309.73146503 672.329038207 318.017477304 676.732378171 c 0
 326.603282013 681.964107171 334.608598816 684.579971671 342.033427711 684.579971671 c 0
 344.840801997 684.579971671 347.565187209 684.205996319 350.206583349 683.458045615 c 0
 352.377863824 682.965664094 354.461123031 682.29049456 356.456360969 681.432537011 c 0
 358.451598906 680.574579462 360.357213063 679.531893933 362.17320344 678.304480422 c 0
 363.989193817 677.077066911 365.699866984 675.672212554 367.305222942 674.089917353 c 0
 368.588283825 672.782989582 369.72235216 671.431234027 370.707427949 670.034650687 c 0
 371.692503738 668.638067348 372.535710113 667.150645895 373.237047075 665.572386329 c 0
 373.938384037 663.994126762 374.44082934 662.396620429 374.744382983 660.779867328 c 0
 375.794445085 655.808828653 375.624132326 651.533180464 374.233444707 647.952922761 c 0
 369.336779363 634.746381671 364.555976926 621.790248911 359.891037397 609.084524482 c 0
 355.226097868 596.378800053 350.691447929 583.962583325 346.287087579 571.835874298 c 0
 335.75088441 543.391712815 325.389012207 515.977612961 315.20147097 489.593574738 c 0
 312.154183873 481.502958118 309.094241076 473.481507897 306.021642579 465.529224076 c 0
 302.949044082 457.576940255 299.869205331 449.707866396 296.782126325 441.922002497 c 0
 293.695047318 434.136138599 290.607424181 426.450480703 287.519256913 418.865028809 c 0
 282.145959619 405.562793914 276.911324091 392.672327757 271.81535033 380.19363034 c 0
 266.719376568 367.714932923 261.754608652 355.629807396 256.921046581 343.938253759 c 0
 248.540447004 323.87311418 240.308858846 304.700202646 232.226282106 286.419519157 c 0
 218.159946255 253.897939882 204.488876571 224.437557552 191.213073053 198.038372165 c 1
 194.489329774 186.101638571 198.083597439 174.985304986 201.995876049 164.689371409 c 0
 208.972735852 145.902348089 216.84234701 129.688892025 225.604709521 116.049003216 c 0
 234.367072032 102.409114408 244.01900454 91.2364313002 254.560507046 82.530953893 c 0
 257.278645147 80.1866137977 260.12393992 77.9599023234 263.096391365 75.8508194701 c 0
 266.068842809 73.7417366167 269.182350876 71.7377573895 272.436915566 69.8388817884 c 0
 279.382303058 65.9530711134 286.349827903 62.1214670876 293.3394901 58.3440697111 c 0
 295.452911375 57.2730307941 297.662678013 56.2222809222 299.968790015 55.1918200954 c 0
 302.274902017 54.1613592686 304.657831408 53.1611601788 307.117578188 52.191222826 c 0
 309.577324967 51.2212854732 312.060543411 50.3042310191 314.56723352 49.4400594638 c 0
 336.950304326 41.853371261 358.127447311 38.0600271597 378.098662478 38.0600271597 c 0
 383.249337527 38.0600271597 388.228763113 38.4453637412 392.963407938 38.7794682128 c 0
 397.621128737 39.1081444713 402.013786439 39.5185388878 406.141381046 40.0106514625 c 0
 410.268975653 40.5027640372 414.142196155 41.0724453122 417.761042554 41.7196952877 c 0
 421.379888953 42.3669452632 424.718144785 43.087601147 427.77581005 43.8816629391 c 0
 430.487286389 44.6088278117 433.467992103 43.7999025351 436.717927192 41.4548871092 c 0
 439.967862281 39.1098716834 441.049046958 36.0444309265 439.961481222 32.2585648384 c 0
 438.257391087 25.905344533 435.192365944 20.1068445149 430.766405792 14.8630647841 c 0
 427.001251757 9.97881254954 421.524668396 5.99476706063 414.336655711 2.91092831737 c 0
 402.080680328 -2.96703681507 390.321897137 -6.21079237677 379.060306136 -6.82033836774 c 0
 378.548992944 -6.82252017942 378.038411927 -6.82361108526 377.528563086 -6.82361108526 c 0
 349.355871989 -6.82361108526 323.418754303 -3.49271518388 299.717210027 3.16907661887 c 0
 275.495793734 10.2025211956 253.098369096 21.3634944794 232.524936111 36.6519964702 c 0
 222.62941007 44.2144857939 213.302875056 52.479431548 204.545331068 61.4468337327 c 0
 201.20484452 64.9077591317 197.98528611 68.4749941802 194.886655839 72.1485388781 c 0
 191.788025568 75.822083576 188.815605465 79.5949914023 185.969395531 83.4672623569 c 0
 183.123185596 87.3395333115 180.402339556 91.3104485856 177.806857409 95.3800081791 c 0
 175.211375262 99.4495677724 172.742497721 103.615841152 170.400224787 107.878828317 c 0
 165.449366028 116.671960918 161.106625059 125.771385518 157.372001882 135.177102119 c 1
 149.502498671 121.542126982 143.58929923 111.305554757 139.632403559 104.467385443 c 0
 135.675507888 97.6292161293 133.053790113 93.1176251165 131.767250235 90.9326124046 c 0
 108.707158636 52.1342326099 84.3890329252 22.0647786841 58.8128731019 0.724250627037 c 0
 54.5260369474 -3.01532984815 50.2654345025 -5.90455951757 46.0310657671 -7.94343838122 c 0
 41.7966970316 -9.98231724487 37.5065875128 -11.0129477075 33.1607372106 -11.0353297692 c 0
 28.6529237263 -10.9973603528 24.5333181934 -9.59357233476 20.8019206117 -6.82396571507 c 0
 17.048511215 -4.23812643817 14.3464461578 -0.33018730835 12.6957254403 4.89985167439 c 0
 9.80900845797 14.4900438213 8.36564996681 28.203683586 8.36564996681 46.0407709683 c 0
 8.36564996681 51.8906327558 8.52089493842 58.1840049479 8.83138488166 64.9208875443 c 0
 9.64287967455 79.7106658824 13.4550560658 102.232560594 20.2679140555 132.486571678 c 0
 21.9412177918 139.371880966 23.7566754847 146.667641707 25.7142871343 154.3738539 c 0
 27.671898784 162.080066093 29.7998905206 170.308722609 32.0982623443 179.05982345 c 0
 38.3484410066 202.230276005 47.7023014064 226.629674957 60.1598435436 252.258020304 c 0
 66.1154822401 264.48963862 71.5259998138 275.046617768 76.3913962646 283.928957747 c 0
 81.2567927153 292.811297726 85.6044783245 300.051515931 89.4344530922 305.64961236 c 0
 96.0280737828 315.797094852 103.996113783 320.870836098 113.338573094 320.870836098 c 0
 117.794450499 320.870836098 122.562981397 319.716659267 127.644165787 317.408305605 c 0
 131.548124772 315.630143684 135.637469109 312.750495966 139.912198798 308.769362449 c 0
 140.115688842 308.57984847 140.308773047 308.380267388 140.491451414 308.170619205 c 0
 142.215745249 306.191758344 143.91106281 304.151614747 145.577404097 302.050188413 c 0
 148.150748463 299.158349373 150.676024088 295.347869825 153.153230973 290.61874977 c 0
 155.766771713 286.571412841 157.715321363 282.659337362 158.998879922 278.882523332 c 0
 160.722268691 275.327919469 162.351458412 271.401694316 163.886449084 267.103847871 c 1
 165.019090345 269.188861784 166.445967399 271.818928245 168.167080246 274.994047254 c 0
 169.888193093 278.169166263 172.347209478 282.730426372 175.544129399 288.67782758 c 0
 178.74104932 294.625228788 180.682675092 298.286197678 181.369006717 299.66073425 c 0
 189.626789474 316.153679243 197.501684993 332.937857497 204.993693274 350.013269014 c 0
 216.112109718 374.810186559 227.105138135 399.924011741 237.972778526 425.35474456 c 0
 247.710249614 449.110564417 257.322367294 472.98408929 266.809131565 496.975319178 c 0
 272.029555914 510.221263807 277.116744388 523.574530072 282.070696987 537.035117973 c 0
 287.024649586 550.495705874 291.829547969 564.020028466 296.485392137 577.608085751 c 0
 302.443570407 595.580316968 308.558811539 613.632898971 314.831115533 631.765831758 c 0
EndSplineSet
EndChar

StartChar: M
Encoding: 77 77 21
Width: 480
VWidth: 965
Flags: HW
HStem: -6.32528 31.3691<319.122 351.774> 233.275 47.9424<165.01 227.019> 672.729 20G<423.631 425.93>
VStem: 19.6846 50.8883<-7.03391 37.8061> 128.079 44.9779<626.327 669.186> 260.8 49.915<31.9785 239.927>
LayerCount: 2
Fore
SplineSet
399.206111532 676.85750198 m 0
 402.060179794 680.164769159 404.764994208 682.921244595 407.320554774 685.126928288 c 0
 409.87611534 687.332611981 412.709260421 689.151126888 415.819990018 690.582473008 c 0
 418.930719615 692.013819128 422.058756796 692.729492188 425.204101562 692.729492188 c 0
 426.656215983 692.729492188 428.110112884 692.555914118 429.565792267 692.208757977 c 0
 431.02147165 691.861601837 432.388895648 691.391723961 433.668064262 690.799124349 c 0
 434.947232876 690.206524738 436.206108809 689.488715945 437.44469206 688.64569797 c 0
 438.645017653 687.828719337 439.554799811 686.726422463 440.174038533 685.338807348 c 0
 440.793277256 683.951192233 441.036856044 682.587408872 440.904774899 681.247457266 c 0
 439.058739607 662.519591503 435.911447821 642.180406867 431.462899542 620.22990336 c 0
 427.014351263 598.279399853 421.329310093 574.923313236 414.407776033 550.161643508 c 0
 406.803057091 513.879955461 393.144826815 461.823032674 373.433085205 393.990875146 c 0
 353.822135361 326.516715474 338.188329636 265.636989436 326.53166803 211.351697033 c 0
 321.256103525 186.783302276 317.301475578 163.304464429 314.66778419 140.915183492 c 0
 312.034092802 118.525902554 310.716445989 97.2397215983 310.71484375 77.056640625 c 0
 310.71484375 73.1967034721 310.76288933 69.3783181443 310.85898049 65.6014846414 c 0
 312.359101075 48.9530460226 315.061556794 37.6510213197 318.966347645 31.6954105328 c 0
 322.263363251 26.6673979521 327.251376415 24.4501875823 333.930387136 25.0437794232 c 0
 346.547759253 26.1652700157 352.856445312 22.5959893747 352.856445312 14.3359375 c 0
 351.868383066 2.50261067763 342.418977412 -4.38446081792 324.50822835 -6.32527698667 c 0
 321.559981025 -6.58629024556 318.712511679 -6.716796875 315.965820312 -6.716796875 c 0
 301.876062509 -6.716796875 290.219710058 -3.30519068256 280.996762959 3.51802170231 c 0
 267.762209588 13.3096033738 261.043330629 30.0279374653 260.840126082 53.6730239766 c 0
 260.813901104 56.7944520189 260.800460639 59.8907487142 260.799804688 62.9619140625 c 0
 260.799804688 114.696936414 264.617622056 159.166111332 272.253256792 196.369438817 c 0
 273.473388542 202.313175123 274.936431665 208.965417213 276.642386161 216.326165086 c 0
 278.348340657 223.686912959 280.275048156 231.666340375 282.422508658 240.264447334 c 0
 284.56996916 248.862554293 286.935678384 258.077793189 289.519636329 267.91016402 c 0
 292.103594274 277.742534851 294.889435378 288.128781617 297.877159641 299.068904318 c 0
 300.864883905 310.009027019 304.046194239 321.474907809 307.421090642 333.466546686 c 1
 303.226282382 326.531642406 298.58296838 319.347833179 293.491148635 311.915119004 c 0
 288.399328891 304.48240483 282.842599665 296.773588843 276.820960958 288.788671043 c 0
 263.721178101 271.417560913 249.646329964 258.042225269 234.596416548 248.662664111 c 0
 226.968124628 243.908740068 219.12980198 240.244843986 211.081448604 237.670975864 c 0
 203.033095228 235.097107743 194.832066832 233.648205781 186.478363415 233.324269978 c 0
 185.634992727 233.291832644 184.801384609 233.275539526 183.977539062 233.275390625 c 0
 170.611445607 233.275390625 158.686978673 237.456803556 148.204138259 245.819629419 c 0
 142.826585416 250.10991748 138.043382684 255.137070033 133.854530063 260.90108708 c 0
 129.665677442 266.665104127 126.082469103 273.109662598 123.104905047 280.234762493 c 0
 120.271034743 287.016249799 117.778367761 293.503305765 115.6269041 299.69593039 c 0
 113.475440439 305.888555015 111.662968849 311.803146321 110.18948933 317.439704308 c 2
 109.923573115 318.465306787 l 1
 92.5162659447 232.693043922 79.5093323691 133.190330359 70.9027723881 19.9571660956 c 0
 70.8820299671 19.6842661251 70.8395616938 19.3830479081 70.7753675683 19.0535114446 c 0
 70.7111734428 18.7239749811 70.6436820663 18.4440218546 70.572893439 18.2136520652 c 0
 65.6133001579 2.07348233062 57.0893027084 -6.53444961446 45.0009010905 -7.61014377003 c 0
 44.1500632436 -7.68699364008 43.3245675676 -7.72449780007 42.5244140625 -7.72265625 c 0
 28.9714032686 -7.72265625 21.3581376203 1.68101876687 19.6846171178 20.4883688006 c 0
 19.2282057059 25.6330600662 19 31.5086896491 19 38.1152575494 c 0
 24.3305016333 160.017015397 46.74060226 298.675592477 86.2303018802 454.09098879 c 0
 90.6360708149 471.269153773 94.685864985 487.431707403 98.3796843903 502.57864968 c 0
 102.073503795 517.725591957 105.403985183 531.825129086 108.371128553 544.877261069 c 0
 111.338271923 557.929393052 113.945548184 569.944052023 116.192957337 580.921237983 c 0
 118.44036649 591.898423942 120.326927928 601.833216964 121.852641649 610.725617047 c 0
 124.024317616 623.376035964 126.099646783 633.432513305 128.078629152 640.895049069 c 0
 130.057611521 648.357584833 132.959059271 655.051735813 136.782972401 660.977502008 c 0
 140.606885532 666.903268203 145.222998198 670.345705108 150.631310399 671.304812723 c 0
 156.124723902 672.279076629 161.110000492 671.609411663 165.587140169 669.295817825 c 0
 170.064279845 666.982223987 172.554067689 663.005997534 173.056503702 657.367138467 c 0
 173.897089775 647.905704589 174.317382812 637.378051663 174.317382812 625.784179688 c 0
 174.317382812 614.596958537 173.927421431 602.416373786 173.147498668 589.242425437 c 0
 172.367575905 576.068477088 171.202078999 561.927531314 169.65100795 546.819588115 c 0
 168.099936901 531.711644916 166.160440109 515.583529821 163.832517574 498.435242829 c 0
 161.967127037 484.698376167 160.33320391 471.788151388 158.930748193 459.704568493 c 0
 157.528292476 447.620985598 156.362804852 436.42091256 155.43428532 426.10434938 c 0
 154.505765788 415.7877862 153.809165175 406.336470465 153.34448348 397.750402174 c 0
 152.879801785 389.164333883 152.647460938 381.452611284 152.647460938 374.615234375 c 0
 152.647460938 371.224874823 152.705268188 368.023123407 152.820882689 365.009980126 c 0
 152.93649719 361.996836846 153.105048391 359.243336729 153.326536293 356.749479775 c 0
 155.99484118 330.426366347 160.433572918 311.256970267 166.642731505 299.241291536 c 0
 172.851890092 287.225612804 179.973909278 281.217773438 188.008789062 281.217773438 c 0
 195.082594771 281.217773438 203.558603566 284.852887049 213.436815449 292.123114272 c 0
 227.974382334 302.825536087 242.768701097 318.715268629 257.819771736 339.792311897 c 0
 272.870842375 360.869355165 287.899477672 386.90897224 302.905677626 417.911163123 c 0
 322.185439026 461.60885879 339.35090949 508.852003422 354.402089019 559.640597017 c 0
 369.616267051 610.971178473 384.224664979 649.570691467 398.227282804 675.439135998 c 0
 398.502337878 675.947272906 398.828614121 676.420061567 399.206111532 676.85750198 c 0
EndSplineSet
EndChar

StartChar: N
Encoding: 78 78 22
Width: 581
VWidth: 965
Flags: HW
HStem: -8.3623 57.7158<325.129 350.998>
VStem: 19.7627 49.0481<-22.52 108.623>
LayerCount: 2
Fore
SplineSet
406.64517827 21.9411345836 m 0
 389.131033093 1.7388417362 371.253538774 -8.3623046875 353.012695312 -8.3623046875 c 0
 349.670753929 -8.3623046875 346.335520496 -8.01937744058 343.006995014 -7.33352294673 c 0
 322.514719273 -3.11213855775 303.434181585 10.2460194393 285.765381949 32.7409510445 c 0
 268.859001401 54.2645445507 254.095417146 80.0270911252 241.474629185 110.028590768 c 0
 229.013861424 139.647478851 217.414037332 172.814213413 206.675156908 209.528794456 c 0
 201.361409662 227.697881233 196.422982987 245.936507166 191.859876882 264.244672257 c 0
 187.296770777 282.552837348 183.129244635 300.826444597 179.357298455 319.065494005 c 0
 175.585352276 337.304543413 172.191734171 355.566063861 169.176444141 373.850055348 c 1
 155.84486606 335.726164345 143.938639861 299.844128914 133.457765542 266.203949055 c 0
 122.976891223 232.563769195 113.947336669 201.260228595 106.36910188 172.293327255 c 0
 98.790867091 143.326425914 92.644207747 116.664918643 87.9291238481 92.3088054397 c 0
 83.2140399492 67.9526922365 79.9320918365 45.9125200661 78.0832795102 26.1882889285 c 0
 76.4908003609 9.19164323443 73.3999685489 -4.19320406667 68.810784074 -13.9662529748 c 0
 64.2215995991 -23.7393018829 57.221137464 -29.053722477 47.8093976687 -29.9095147571 c 0
 47.00123822 -29.9829992172 46.4751823954 -30.0067869395 46.2312301951 -29.9808779242 c 0
 40.9093123374 -29.9808779242 35.3667550017 -27.580556155 29.6035581881 -22.7799126166 c 0
 23.0429829377 -17.3135334627 19.7626953125 -6.82341936137 19.7626953125 8.6904296875 c 0
 19.7626953125 22.2195533354 24.3408552484 52.5691736763 33.4971751202 99.7392907103 c 0
 42.6219233315 146.746761731 64.8661361234 223.299278643 100.229813496 329.396841448 c 0
 134.485030675 432.17008431 151.612639264 500.061863161 151.612639264 533.072178002 c 0
 151.612639264 533.725838515 151.605706455 534.361598922 151.591840836 534.979459224 c 0
 151.601053799 535.452658129 151.610653852 535.74600271 151.620640994 535.859492966 c 0
 151.793468873 537.823446132 151.879882812 539.795412018 151.879882812 541.775390625 c 0
 151.879882812 552.019265741 149.562461861 562.545243134 144.92761996 573.353322804 c 0
 142.541740186 578.917904476 140.370228845 581.700195312 138.413085938 581.700195312 c 0
 137.172599223 581.700195312 135.451249928 580.862715836 133.249038054 579.187756883 c 0
 131.73333935 577.182834452 129.969417075 574.689672205 127.957271228 571.708270144 c 0
 127.893303881 571.613489549 127.782185199 571.428221138 127.623915184 571.152464909 c 0
 125.661458687 567.733247438 122.785689715 566.023638702 118.996608266 566.023638702 c 0
 115.543212609 566.023638702 113.041751818 567.088781402 111.492225894 569.219066802 c 0
 109.942699969 571.349352202 109.256522959 573.479637602 109.433694864 575.609923003 c 2
 109.69945272 578.805351103 l 2
 109.69945272 579.327464712 109.708939253 579.879625035 109.727912319 580.461832072 c 0
 110.453678235 602.641518949 116.244472576 621.47237284 127.100295343 636.954393745 c 0
 132.651037186 644.870215326 137.943899224 651.01085401 142.978881458 655.376309797 c 0
 148.013863692 659.741765584 153.314232097 662.257000622 158.879986673 662.922014912 c 0
 159.688064676 663.018566676 160.268591272 663.049438598 160.621566461 663.014630678 c 0
 166.534397694 663.014630678 171.478874683 660.626793864 175.454997428 655.851120235 c 0
 179.431120173 651.075446606 183.067679136 644.48005893 186.364674319 636.064957205 c 0
 192.570224271 620.226871227 201.144258839 560.975474904 212.086778022 458.310768237 c 1
 216.067710779 391.201729752 227.620355685 324.079673636 246.744712738 256.944599887 c 0
 265.85648437 189.852086792 286.032306485 137.407689378 307.272179084 99.6114076427 c 0
 326.099506987 66.1061462976 340.447257188 49.353515625 350.315429688 49.353515625 c 2
 350.997986539 49.3902859857 l 1
 366.954942756 53.4449847559 380.557280938 71.420837463 391.805001083 103.317844107 c 0
 406.187412088 144.101480039 416.043453943 181.646717697 421.373126648 215.953557082 c 0
 426.773589812 250.719607887 430.956100498 278.386594697 433.920658707 298.95451751 c 0
 436.870491743 319.424767078 439.878717654 345.733863765 442.945336439 377.881807571 c 0
 447.391104645 424.48397259 450.907968841 464.040635979 453.495929027 496.551797739 c 0
 460.6116334 585.943163105 465.860535343 634.14269491 469.242634858 641.150393153 c 0
 470.885837904 644.554715118 472.436205206 647.460549211 473.893736765 649.867895432 c 0
 475.351268323 652.275241653 476.858828425 654.34860458 478.416417071 656.087984213 c 0
 479.686534916 657.506258901 480.866714865 658.77100602 481.956956917 659.882225571 c 0
 483.047198969 660.993445122 484.086833593 661.984748839 485.075860789 662.856136723 c 0
 487.497476326 664.988874502 490.77702255 666.793805528 494.914499459 668.270929803 c 0
 498.328369614 669.487817236 500.804694521 670.289774152 502.34347418 670.676800551 c 0
 503.237735045 670.901493745 504.363442012 671.13708268 505.720595082 671.383567357 c 0
 507.077748151 671.630052033 508.919860236 671.940623414 511.246931336 672.3152815 c 2
 522.921807902 674.324119024 l 2
 526.991106225 675.075286217 530.563245431 675.521410434 533.638225519 675.662491673 c 0
 535.935073966 675.76787194 537.921803768 674.993215516 539.598414926 673.3385224 c 0
 541.275026084 671.683829285 542.075757362 669.707464616 542.000608759 667.409428394 c 0
 541.935466665 665.417390133 541.22509456 663.69082278 539.869492443 662.229726333 c 0
 538.647280774 660.912400914 537.131450122 659.487652697 535.322000487 657.955481682 c 0
 530.699835912 654.035312806 526.70564853 650.240789918 523.33943834 646.571913018 c 0
 519.97322815 642.903036119 517.660526683 640.097752758 516.40133394 638.156062937 c 0
 515.142141197 636.214373116 514.478074363 634.867070554 514.409133438 634.114155253 c 0
 513.81036187 627.56715456 511.318419458 595.887033674 506.933306202 539.073792595 c 0
 506.201514096 529.592958991 505.476974686 520.32908491 504.759687971 511.282170351 c 0
 504.042401256 502.235255792 503.33228623 493.404300324 502.629342891 484.789303949 c 0
 501.926399552 476.174307574 501.230668194 467.775858987 500.542148815 459.593958188 c 0
 499.853629436 451.412057389 499.172292787 443.446330889 498.498138868 435.696778686 c 0
 497.823984949 427.947226484 497.156998843 420.41376854 496.497180552 413.096404854 c 0
 495.837362261 405.779041168 495.18473429 398.678025191 494.539296639 391.793356923 c 0
 488.810867202 330.68651605 482.068722379 275.832550963 474.31286217 227.231461662 c 0
 466.557001961 178.630372361 457.765110745 136.206477285 447.937188524 99.9597764354 c 0
 443.950760293 85.25299249 438.511479394 71.386683833 431.619345828 58.3608504645 c 0
 424.727212262 45.335017096 416.402489743 33.1951118023 406.64517827 21.9411345836 c 0
EndSplineSet
EndChar

StartChar: O
Encoding: 79 79 23
Width: 437
VWidth: 965
Flags: HW
HStem: -6.99902 58.4156<153.253 205.83> 561 57<204.162 251.953> 631 50<197.285 322.247>
VStem: 23 57<113.299 364.023> 246 52<507.135 561> 361 54.7404<318.375 593.48>
LayerCount: 2
Fore
SplineSet
188.478073727 591.580119067 m 1
 195.471119731 596.751867664 202.434160343 601.223694223 209.367195564 604.995598743 c 0
 216.431481132 609.60110084 222.666128565 612.919876574 228.071137863 614.951925944 c 0
 233.476147161 616.983975315 238.95243454 618 244.5 618 c 0
 254.436417309 618 262.176378757 616.816818459 267.719884345 614.450455377 c 0
 271.533458072 612.551961922 274.999416181 610.375904821 278.117758672 607.922284074 c 0
 281.236101163 605.468663328 284.114834658 602.715719004 286.753959156 599.663451102 c 0
 289.393083654 596.611183199 291.809188353 593.257276622 294.002273254 589.601731371 c 0
 294.714471454 588.41489664 295.329523917 587.161160032 295.847430642 585.840521547 c 0
 296.365337368 584.519883062 296.780251324 583.159251775 297.09217251 581.758627684 c 0
 297.404093696 580.358003593 297.633378574 578.938640971 297.780027145 577.500539818 c 0
 297.926675715 576.062438665 298 574.562258725 298 573 c 0
 298 567.246948911 297.031539766 560.86228258 295.094619299 553.846001007 c 0
 293.157698832 546.829719435 290.258321763 538.933476843 286.396488092 530.157273232 c 0
 282.04243423 520.360179157 278.795577691 513.347186362 276.655918476 509.118294847 c 0
 274.516259261 504.889403332 271.459593932 500.645797979 267.485922491 496.387478787 c 0
 263.51225105 492.129159596 259.35548522 490 255.015625 490 c 0
 252.952841646 490 251.158481141 490.694008184 249.632543486 492.082024551 c 0
 247.210847829 494.284836178 246 498.591153515 246 505.000976562 c 0
 246 509.388483087 246.70129848 515.788647404 248.103895441 524.201469511 c 0
 249.406252158 531.365223446 250.381192097 537.62437443 251.028715258 542.978922461 c 0
 251.676238419 548.333470492 252 552.673829672 252 556 c 2
 252 558.458002271 l 2
 251.702915528 560.152667424 249.036248861 561 244 561 c 2
 240.222757589 561 l 2
 238.122250086 560.883447246 235.68478476 560.270209226 232.910361613 559.160285939 c 0
 230.135938466 558.050362652 227.044378563 556.439141326 223.635681906 554.326621962 c 0
 220.226985249 552.214102598 216.447263022 549.430160879 212.296515225 545.974796806 c 0
 208.145767428 542.519432732 203.878148308 538.559649273 199.493657866 534.09544643 c 0
 195.009173613 529.529524236 190.700549443 524.86491867 186.567785354 520.101629731 c 0
 182.435021265 515.338340793 178.47626577 510.474098407 174.691518868 505.508902573 c 0
 170.906771965 500.543706738 167.295760385 495.477721523 163.858484127 490.310946928 c 0
 160.421207869 485.144172333 157.154812195 479.872703919 154.059297104 474.496541684 c 0
 141.666912192 453.181053341 130.82972342 432.342013139 121.547730787 411.979421078 c 0
 112.265738155 391.616829017 104.552297346 371.771480005 98.4074083604 352.443374042 c 0
 92.2625193748 333.115268079 87.658395735 314.296099497 84.595037441 295.985868295 c 0
 81.531679147 277.675637093 80 259.847014328 80 242.5 c 0
 80 207.300522066 82.1197925127 179.265028047 86.3593775382 158.393517944 c 0
 87.7542082599 151.527814093 89.5589445916 144.627770266 91.7735865334 137.693386464 c 0
 93.9882284753 130.759002661 96.628326013 123.756955922 99.6938791467 116.687246245 c 0
 102.75943228 109.617536569 106.247151056 102.498568182 110.157035473 95.3303410836 c 0
 124.408458932 68.6856722823 138.745509933 54.2094904337 153.168188477 51.9017955378 c 0
 154.979881068 51.5783122975 156.854948551 51.4165706774 158.793390924 51.4165706774 c 0
 174.496690061 51.4165706774 194.359030603 62.031028294 218.38041255 83.2599435274 c 0
 252.017326751 112.552747122 282.72697479 160.259165776 310.509356666 226.379199491 c 0
 332.08096701 277.719388152 347.256628742 344.831005127 356.036341861 427.714050416 c 0
 359.344803512 461.455968637 360.999356225 489.884618499 361 513 c 2
 361 526.897741182 l 2
 359.747459333 570.105544095 341.291363989 601.093707411 305.63171397 619.862231132 c 0
 292.637949355 627.287410377 275.594044699 631 254.5 631 c 0
 233.606120081 631 220.08727673 628.905508299 213.943469947 624.716524897 c 0
 212.225341194 623.54497755 210.616140609 622.384431634 209.11586819 621.234887148 c 0
 207.615595772 620.085342663 206.271182786 618.987105677 205.082629231 617.940176192 c 0
 203.894075676 616.893246707 202.839303693 615.894430923 201.918313282 614.943728841 c 0
 200.997322871 613.993026758 200.207214535 613.08932385 199.547988272 612.232620117 c 2
 193.507303951 602.418521598 l 1
 193.353521143 602.060203273 l 2
 191.64452769 598.331644232 190.019378552 594.83828283 188.478073727 591.580119067 c 1
165.690922372 571.893224133 m 0
 164.565846076 573.840315912 l 2
 163.521948692 576.419417609 163 579.805978971 163 584 c 0
 163 589.160666575 164.051709246 596.649436258 166.155127737 606.466309049 c 2
 172.169942681 634.534792585 l 2
 173.82159561 641.553902963 177.342606961 647.842065675 182.732976732 653.399280722 c 0
 188.123346503 658.956495768 195.168951538 663.910403448 203.869791837 668.261003761 c 0
 220.856514682 676.75366792 240.566584069 681 263 681 c 0
 320.928393545 681 364.231288125 657.918235718 392.908683739 611.754707155 c 0
 402.095718162 597.618077009 408.102019991 581.369096562 410.927589226 563.007765813 c 0
 414.136155074 539.48485361 415.740437998 515.129777536 415.740437998 489.94253759 c 0
 415.740437998 473.128358513 415.025495458 455.943328795 413.595610377 438.387448434 c 0
 410.023791488 394.533277263 401.999462276 348.117315406 389.52262274 299.139562863 c 0
 383.963945741 277.78744256 377.461286501 256.896326722 370.014645022 236.466215349 c 0
 362.568003543 216.036103976 354.176362492 196.064450836 344.839721871 176.551255929 c 0
 335.503081249 157.038061022 325.220562391 137.981577778 313.992165297 119.381806195 c 0
 303.154300486 101.430660049 292.56744108 85.7601086199 282.231587079 72.3701519089 c 0
 271.895733077 58.980195198 261.702751439 47.7800481702 251.652642164 38.7697108257 c 0
 216.978001301 8.25580892012 186.760604233 -7.00043583004 161.000450958 -6.99902342479 c 0
 136.030503498 -7.00043097538 112.86679689 1.54178135209 91.5093311354 18.6276135576 c 0
 53.3215595616 51.9559666423 30.8248679554 115.573931406 24.0192563167 209.481507848 c 0
 23.6804700614 213.889710985 23.4258974447 218.308763715 23.2555384668 222.738666039 c 0
 23.0851794889 227.168568363 23 231.589013017 23 236 c 0
 23 328.114459661 57.7531829853 424.783108205 127.259548956 526.005945632 c 0
 139.813143443 543.709886428 152.623601249 559.005645928 165.690922372 571.893224133 c 0
186.081054688 605.393554688 m 1025
264.579101562 607.092773438 m 1025
EndSplineSet
EndChar

StartChar: P
Encoding: 80 80 24
Width: 551
VWidth: 965
Flags: HW
HStem: 234.558 51.2504<39.7539 111.459> 624.44 53.5602<214.416 457.167>
VStem: 79.8135 59.7137<-6.0632 162.586> 517.566 55.3349<417.134 568.156>
LayerCount: 2
Fore
SplineSet
139.527146682 47.1764152778 m 0
 139.284072888 36.5138678357 138.288908891 27.3983971145 136.541654692 19.8300031142 c 0
 134.794400493 12.2616091138 131.72896307 5.93029198574 127.345342424 0.836051730074 c 0
 122.961721778 -4.2581885256 117.320065023 -6.98007190999 110.42037216 -7.32959842311 c 0
 99.0507109468 -7.31385609941 90.9327307017 -2.01751002793 86.0664314247 8.55943979133 c 0
 81.8984988423 17.6244904016 79.8141805549 29.9178281795 79.8134765625 45.439453125 c 0
 79.8134765625 74.2089118708 82.3885233217 98.7340256931 87.5386168402 119.014794592 c 0
 90.5543692956 129.95179079 93.9397775314 140.924173808 97.6948415476 151.931943645 c 0
 101.418980105 162.851631209 105.722318018 174.935766679 110.604855287 188.184350056 c 0
 112.146767922 192.368272673 113.615275711 196.383903803 115.010378654 200.231243446 c 0
 116.405481597 204.07858309 117.643944494 207.523466446 118.725767347 210.565893513 c 1
 87.0077170665 217.211344914 64.4029138648 225.208762554 50.9113577421 234.558146431 c 0
 43.355017782 239.794110111 39.5768478019 248.757273806 39.5768478019 261.447637515 c 0
 39.5768478019 264.572382468 39.8059147899 267.923104148 40.2640487659 271.499802552 c 0
 40.3161575094 271.906620797 40.3990609527 272.307063633 40.5127590956 272.70113106 c 0
 43.0983360535 281.662505743 47.5760859496 286.031653823 53.9460087839 285.8085753 c 0
 54.984688624 285.772200108 55.9785384733 285.542151548 56.9275583318 285.118429619 c 0
 86.2147940539 272.0421553 113.105310529 263.982133408 137.599107758 260.938363943 c 1
 140.924935665 267.96314899 146.151386538 279.55256112 153.278460377 295.706600331 c 0
 174.991200299 343.267240802 192.195565913 383.419633621 204.891557219 416.163778788 c 0
 217.587548524 448.907923955 225.646845382 473.791712331 229.069447792 490.815143916 c 0
 229.238396609 491.654385837 229.443194582 492.676436666 229.683841709 493.881296401 c 0
 229.924488836 495.086156136 230.20053687 496.471592669 230.511985809 498.037606002 c 0
 231.446227174 502.736406451 232.271022778 506.806982142 232.986372622 510.249333076 c 0
 233.701722466 513.69168401 234.314818192 516.538417163 234.825659799 518.789532536 c 0
 235.853545972 523.314954573 237.234852612 528.389770827 238.96957972 534.013981298 c 0
 239.949494364 537.191244126 240.933959429 539.846668937 241.922974916 541.980255731 c 0
 242.911990403 544.113842526 244.144230761 546.007782179 245.619695991 547.662074692 c 0
 248.720687395 551.138660314 252.41451269 552.876953125 256.701171875 552.876953125 c 0
 265.503701712 552.876953125 273.13842299 545.822480919 279.605335709 531.713536508 c 2
 285.350477153 515.989111818 l 2
 286.692997592 510.861356868 287.364257812 505.97371022 287.364257812 501.326171875 c 0
 287.364257812 501.06019669 287.345734157 500.764639972 287.308686848 500.439501719 c 0
 283.32520896 482.15433598 278.68175327 464.228661517 273.378319778 446.662478332 c 0
 272.050732993 442.265042824 270.657200727 437.823517933 269.197722981 433.33790366 c 0
 267.738245235 428.852289387 266.213240081 424.323778425 264.622707518 419.752370775 c 0
 263.032174955 415.180963125 261.376346596 410.566817009 259.655222441 405.909932428 c 0
 257.934098286 401.253047847 256.147007083 396.551504484 254.293948832 391.80530234 c 0
 246.929946093 372.944025017 240.659657809 357.31902773 235.483083979 344.930310477 c 0
 234.964247952 343.688617989 234.423117702 342.399952467 233.859693229 341.064313912 c 0
 233.296268756 339.728675356 232.710597275 338.346176922 232.102678786 336.91681861 c 0
 231.494760297 335.487460298 230.864573372 334.011176547 230.212118011 332.487967356 c 0
 229.559662649 330.964758165 228.884848752 329.394422918 228.187676321 327.776961616 c 0
 227.49050389 326.159500314 226.771097964 324.495182085 226.029458541 322.784006929 c 0
 225.287819118 321.072831774 224.523709634 319.314264385 223.737130087 317.508304764 c 0
 222.95055054 315.702345142 222.141772439 313.849597106 221.310795782 311.950060657 c 0
 220.479819126 310.050524207 219.626260881 308.103329347 218.750121046 306.108476077 c 0
 217.873981211 304.113622806 216.975677763 302.072049634 216.055210701 299.983756561 c 0
 215.134743639 297.895463488 214.191592615 295.759266745 213.225757628 293.575166333 c 0
 210.288961181 286.933814622 207.465779281 280.534004189 204.75621193 274.375735034 c 0
 202.046644579 268.21746588 199.877159109 263.273037533 198.247755521 259.542449993 c 1
 211.488943886 260.787899509 224.859256002 262.750599866 238.358691871 265.430551065 c 0
 251.85812774 268.110502264 265.530396532 271.519250813 279.375498247 275.656796711 c 0
 293.220599962 279.79434261 307.238966998 284.663043237 321.430599353 290.262898593 c 0
 335.622231709 295.862753949 350.022681622 302.205895934 364.631949091 309.292324547 c 0
 377.20781159 315.393783244 389.091494713 321.833718555 400.28299846 328.612130478 c 0
 411.460839697 335.382832441 421.952137739 342.489050328 431.756892588 349.930784141 c 0
 441.537375073 357.354730429 450.649103339 365.122337404 459.092077388 373.233605065 c 0
 463.279370447 377.256801504 467.323054503 381.388324336 471.223129558 385.628173563 c 0
 475.123204613 389.868022789 478.810482073 394.138179822 482.284961938 398.438644663 c 0
 505.63892096 428.74079315 517.566135756 460.217810064 517.566135756 496.67058977 c 0
 517.566135756 511.656414458 515.244668662 525.694360108 510.601734474 538.784426721 c 0
 505.514808071 553.126263754 497.603849201 566.466059949 486.868857866 578.803815306 c 0
 469.076412375 598.666128709 444.132830046 611.932824965 412.038110877 618.603904072 c 0
 402.599174451 620.565660249 392.868780491 622.035908712 382.846928997 623.01464946 c 0
 371.041217739 623.964727068 359.415019161 624.439765872 347.968333263 624.439765872 c 0
 316.757241463 624.439765872 286.880757038 620.90803601 258.33887999 613.844576284 c 0
 227.930807075 606.12379169 204.65054814 599.6594244 188.498103183 594.451474414 c 0
 172.702247598 589.358070586 153.980623728 580.681508656 132.333231572 568.421788623 c 0
 121.722992657 562.412328174 111.600924024 555.64954501 101.967025673 548.133439131 c 0
 92.3331273219 540.617333252 83.286179669 532.466154162 74.8261827143 523.67990186 c 0
 73.2202162278 521.572773167 72.0828928063 519.793106006 71.4142124496 518.340900377 c 0
 70.8034353999 517.013328698 70.498046875 515.883744718 70.498046875 514.952148438 c 2
 70.5841243516 514.151566484 l 2
 71.2914116596 513.634151979 71.8231010981 513.246506893 72.1791926672 512.988631224 c 2
 77.7423773319 509.020284603 l 2
 80.0354727901 507.399571372 82.6735465145 505.547025545 85.6565985051 503.462647124 c 0
 86.2406224475 503.055053451 87.0376983205 502.509151818 88.047826124 501.824942224 c 0
 89.0579539275 501.140732629 90.2629472283 500.330834213 91.6628060262 499.395246974 c 0
 94.6383566333 497.403580815 96.6812783098 495.983744102 97.7915710555 495.135736835 c 0
 98.9279211334 494.26915687 100.345487877 493.084262294 102.044271287 491.581053108 c 0
 104.253667468 489.622390872 105.803399178 487.676215723 106.693466417 485.742527662 c 2
 108.049676267 480.294255754 l 2
 108.086262706 479.853921101 108.086367909 479.413577733 108.049991876 478.973225648 c 0
 107.863820657 476.719519619 106.988957656 474.675588213 105.425402874 472.841431428 c 0
 103.861848091 471.007274643 102.02844611 469.791633753 99.925196929 469.194508759 c 0
 96.8280229839 468.759185537 94.7034869187 468.624434483 93.5515887335 468.790255596 c 0
 92.3996905483 468.95607671 90.3755148709 469.460793811 87.4790617012 470.304406899 c 0
 85.2173220667 470.963045364 82.7370306682 471.85553925 80.0381875058 472.981888555 c 0
 77.3393443433 474.108237861 74.384850786 475.470951728 71.1747068338 477.070030157 c 0
 69.8499239008 477.709545284 68.5679716203 478.327402248 67.3288499923 478.923601049 c 0
 66.0897283643 479.519799851 64.8988160646 480.091754435 63.7561130933 480.639464802 c 0
 62.613410122 481.187175168 61.5200449009 481.71011514 60.47601743 482.208284717 c 0
 59.4319899591 482.706454295 58.4395716128 483.17875361 57.4987623911 483.625182661 c 0
 56.5579531693 484.071611712 55.6729887954 484.490158136 54.8438692695 484.880821934 c 0
 50.7715042567 486.800417079 48.3062820264 487.9338935 47.4482025785 488.281251197 c 0
 46.2011395362 488.784383936 44.9440556037 489.320930623 43.676950781 489.890891256 c 0
 42.4098459583 490.460851889 41.1320028343 491.064224581 39.8434214091 491.701009333 c 0
 37.0179070131 493.097320616 34.5209333095 495.18434864 32.3525002983 497.962093407 c 0
 30.5610770118 500.258441063 28.5500286175 503.39443569 26.3193551154 507.370077288 c 0
 20.0585806944 518.526573596 20.39107161 527.563260289 27.3168278623 534.480137366 c 0
 28.6827500532 535.84274055 31.0609734344 538.34404375 34.4514980059 541.984046967 c 0
 37.8420225774 545.624050184 42.1189215433 550.271072393 47.2821949036 555.925113594 c 0
 70.797478945 581.673949699 97.7074379375 603.407906459 128.012071881 621.126983873 c 0
 158.269243433 638.816733058 191.836526564 652.474415679 228.713921274 662.100031738 c 0
 248.980383553 667.389951007 268.444625134 671.360065664 287.106646018 674.010375711 c 0
 305.826505912 676.668793769 323.761066916 677.998668504 340.910329031 677.999999917 c 0
 350.209269538 677.998663958 359.22925049 677.610161179 367.970271887 676.834491578 c 0
 378.029429122 676.265411983 387.760688494 675.335067184 397.164050003 674.043457182 c 0
 406.567411512 672.751847181 415.648195965 671.092187704 424.406403361 669.064478751 c 0
 433.164610756 667.036769798 441.52172363 664.651978163 449.477741983 661.910103846 c 0
 473.5191188 653.624516381 492.930759316 643.572862105 507.712663529 631.755141018 c 0
 522.507412752 619.925917997 534.821359799 605.945140478 544.65450467 589.812808459 c 0
 547.886091505 584.510447981 550.802937241 579.258756471 553.405041878 574.05773393 c 0
 556.007146515 568.856711389 558.304780585 563.674957609 560.297944088 558.512472592 c 0
 562.291107591 553.349987574 563.96366794 548.234342126 565.315625136 543.165536248 c 0
 567.30256143 535.717309626 568.926296335 528.037011312 570.186829852 520.124641306 c 0
 571.447363369 512.2122713 572.346716793 504.069976843 572.884890124 495.697757936 c 2
 572.901028861 495.258144196 l 2
 573.032052168 481.012027653 571.465104524 467.055975656 568.200185928 453.389988204 c 0
 564.935267331 439.724000753 560.008709086 426.42272377 553.420511192 413.486157256 c 0
 546.832313298 400.549590742 538.595728268 387.969521247 528.710756101 375.74594877 c 0
 499.478640433 339.598058975 464.599115866 309.186798301 424.072182401 284.512166748 c 0
 419.109001668 281.497404149 414.106907392 278.561526231 409.065899571 275.704532994 c 0
 404.02489175 272.847539756 398.945380981 270.06964908 393.827367264 267.370860965 c 0
 388.709353547 264.67207285 383.552652318 262.052264585 378.357263577 259.511436168 c 0
 373.161874836 256.970607752 367.928146986 254.508933952 362.656080026 252.126414767 c 0
 357.384013065 249.743895582 352.073488772 247.44045429 346.724507146 245.21609089 c 0
 341.37552552 242.99172749 335.988368623 240.846570761 330.563036454 238.780620702 c 0
 325.137704285 236.714670643 319.674144962 234.727896519 314.172358485 232.820298331 c 0
 308.670572008 230.912700142 303.130778244 229.084363553 297.552977194 227.335288564 c 0
 254.886094304 213.955267102 214.393271831 206.898820054 176.074509774 206.16594742 c 1
 151.403285805 136.003163225 139.220831441 83.0066525113 139.527146682 47.1764152778 c 0
EndSplineSet
EndChar

StartChar: Q
Encoding: 81 81 25
Width: 526
VWidth: 965
Flags: HW
HStem: -30.3461 37.9487<476.53 559.106> -7.25643 53.8541<137.441 260.945> 621.785 55.044<262.478 401.185>
VStem: 23.1829 59.5927<108.513 367.146> 459.562 51.1133<292.614 553.21>
LayerCount: 2
Fore
SplineSet
79.9672914466 252.632304915 m 0x78
 79.5958162157 248.330058212 79.319922271 244.094164311 79.1396096126 239.924623212 c 0
 78.9592969542 235.755082113 78.869140625 231.549087917 78.869140625 227.306640625 c 0
 78.869140625 218.204584194 79.2953680855 209.119164134 80.1478230066 200.050380445 c 0
 81.0002779277 190.981596756 82.2804971786 181.92121082 83.9884807593 172.869222638 c 0
 85.69646434 163.817234456 87.8326707528 154.774915569 90.3970999977 145.742265977 c 0
 100.268665124 110.96740603 115.688570401 85.2391614706 136.656815829 68.5575322997 c 0
 156.343978638 53.9176149332 176.181355132 46.59765625 196.168945312 46.59765625 c 0
 200.626381847 46.59765625 205.083106318 46.9531906498 209.539118726 47.6642594495 c 0
 213.995131133 48.3753282492 218.513874145 49.462099046 223.095347762 50.9245718398 c 0
 227.676821379 52.3870446336 232.309972526 54.2308279395 236.994801203 56.4559217575 c 0
 253.349135948 63.894273509 272.493658698 75.0141290532 294.428369454 89.8154883901 c 0
 295.853636189 91.0839487664 299.233680373 93.8277521842 304.568502005 98.0468986436 c 0
 306.42799994 99.5171448045 308.254958771 100.984935261 310.049378499 102.450270012 c 0
 311.843798226 103.915604763 313.603415434 105.376555951 315.328230123 106.833123575 c 0
 317.053044811 108.2896912 318.744317111 109.742860113 320.402047024 111.192630314 c 0
 321.644614482 112.279817805 322.830019892 113.363195997 323.958263253 114.442764888 c 0
 325.086506614 115.52233378 326.024239346 116.451501492 326.771461451 117.230268025 c 0
 322.48547927 126.258428794 318.308212272 135.511543361 314.239660456 144.989611728 c 0
 310.17110864 154.467680095 306.19591819 164.208260543 302.314089107 174.211353074 c 0
 298.432260024 184.214445605 294.642730915 194.475893545 290.945501778 204.995696894 c 0
 287.248272642 215.515500243 283.618151941 226.360630114 280.055139674 237.531086508 c 0
 278.515338973 242.378360459 277.196843992 246.832031867 276.09965473 250.892100734 c 0
 275.730933469 252.255601233 275.389129706 253.571161974 275.074243442 254.838782955 c 0
 274.759357178 256.106403936 274.469153243 257.336808303 274.203631637 258.529996054 c 0
 273.938110032 259.723183805 273.70005832 260.868686531 273.489476501 261.96650423 c 0
 273.169488452 263.62570152 272.908849873 265.18588737 272.707560763 266.647061781 c 0
 272.506271652 268.108236191 272.364162676 269.498185195 272.281233834 270.816908793 c 0
 272.184890445 272.356943275 272.13671875 273.846359094 272.13671875 275.28515625 c 0
 272.13671875 277.993888245 272.309249494 280.545655776 272.654310981 282.940458843 c 0
 272.999372469 285.33526191 273.542793491 287.597031298 274.284574046 289.725767005 c 0
 276.049394762 294.789194885 279.382672239 299.003038456 284.284406478 302.367297719 c 2
 284.821577621 302.905785458 l 2
 286.18524693 304.272797094 287.828449811 305.044902184 289.751186265 305.222100729 c 2
 292.591030015 305.483819479 l 1
 293.0521837 305.512918309 l 1
 294.189626302 305.551757812 l 2
 301.087896657 305.551757812 307.347501949 302.589700595 312.96844218 296.665586161 c 0
 313.868543427 295.716936546 314.498184208 294.613901184 314.857364524 293.356480075 c 0
 333.498751626 228.096574103 350.675739026 182.658586654 366.388326724 157.042517729 c 1
 382.764197078 175.160543851 396.899899924 195.679336214 408.795435263 218.598894817 c 0
 420.690970602 241.51845342 430.453402181 267.06815824 438.08273 295.248009279 c 0
 452.399368609 348.124127872 459.559291942 398.69673155 459.5625 446.965820312 c 0
 459.5625 453.412718887 459.435075603 459.806487175 459.180226809 466.147125176 c 0
 456.710842617 513.606504941 443.371249858 552.26946556 419.161448531 582.136007033 c 0
 408.339479071 595.485713451 396.156305217 605.431331592 382.611926969 611.972861455 c 0
 369.06754872 618.514391318 353.913052231 621.78515625 337.1484375 621.78515625 c 0
 333.698643216 621.78515625 330.160659233 621.6432408 326.53448555 621.359409899 c 0
 316.6128559 620.768208824 306.728646878 618.913313009 296.881858483 615.794722454 c 0
 287.035070089 612.676131899 277.119301307 608.2265733 267.134552136 602.446046655 c 0
 257.149802965 596.66552001 247.144843477 589.55010422 237.119673672 581.099799286 c 0
 206.812971732 555.555324551 180.829036534 524.295592557 159.167868078 487.320603306 c 0
 137.331189443 450.055878443 119.221992556 410.390651626 104.840277416 368.324922855 c 0
 101.248814792 357.820737557 98.0358331022 347.521891135 95.2013323469 337.42838359 c 0
 92.3668315915 327.334876045 89.9153934149 317.467137114 87.8470178172 307.825166798 c 0
 85.7786422195 298.183196481 84.0881592269 288.764194024 82.7755688394 279.568159425 c 0
 81.4629784519 270.372124827 80.5268859877 261.393506657 79.9672914466 252.632304915 c 0x78
510.215195018 490.503069536 m 0
 510.607934655 480.826254818 510.761480204 471.561464997 510.675831663 462.708700074 c 0
 510.76138855 397.033259245 502.103226043 333.144031121 484.701344141 271.041015701 c 0
 466.255272764 204.747912623 435.916297708 149.769236086 393.684418971 106.104986089 c 1
 405.113947477 86.5138568803 415.582055902 71.3488325889 425.088744246 60.6099132148 c 0
 435.337377904 49.2029289102 450.703383461 38.5384876706 471.186760918 28.6165894959 c 0
 491.419538304 19.118963885 517.499445494 12.0750312973 549.426482487 7.48479173295 c 1
 550.096165645 7.49573893455 l 2
 551.161211154 7.53335090072 552.222665952 7.5689599736 553.28053004 7.60256615319 c 0
 556.005295059 7.58104068892 558.262543496 7.3746028486 560.052275353 6.98325263221 c 0
 561.84200721 6.59190241583 563.844325247 5.78144804531 566.059229464 4.55188952066 c 0
 569.939004469 1.32391019025 571.598573767 -2.82650709104 571.03793736 -7.8993623232 c 0
 570.118786726 -16.3768904935 566.248635694 -22.2824561891 559.427484265 -25.6160594101 c 0
 552.606332836 -28.9496626311 543.77442872 -30.5263487024 532.931771918 -30.3461176241 c 0xb8
 512.846400381 -29.8811862388 493.763006057 -27.3891985661 475.681588946 -22.870154606 c 0
 457.600171835 -18.3511106459 440.531271673 -11.7919728178 424.47488846 -3.19274112188 c 0
 397.173329449 11.5959706874 373.598089286 34.5743627877 353.749167971 65.7424351791 c 1
 342.765317376 56.7551711878 331.999303877 48.6176612789 321.451127476 41.3299054522 c 0
 310.902951075 34.0421496255 300.498945251 27.5624806729 290.239110005 21.8908985944 c 0
 279.979274759 16.2193165159 269.892120347 11.3871268392 259.977646768 7.39432956436 c 0
 250.063173189 3.40153228955 240.273552875 0.22897461689 230.608785824 -2.12334345363 c 0
 220.944018773 -4.47566152414 211.406776292 -5.99894887322 201.997058383 -6.69320550086 c 0
 196.902762508 -7.18741800429 191.725886938 -7.37516091817 186.466431673 -7.25643424249 c 0
 175.984352018 -7.323175101 166.823135517 -6.6990650996 158.982782172 -5.38410423827 c 0
 151.142428826 -4.06914337694 144.515431054 -1.92566355001 139.101788855 1.04633524252 c 0
 103.545811067 20.3666480465 76.0730979288 47.2115210555 56.6836494407 81.5809542695 c 0
 37.4496522696 115.675356032 26.251158138 157.030580813 23.0881670459 205.646628613 c 0
 23.0695244914 205.967561626 23.0683509728 206.277906956 23.0846464901 206.577664601 c 0
 23.1009420074 206.877422246 23.1336823527 207.185491742 23.1828675262 207.501873088 c 0
 23.0960197944 208.282131773 23.0529891382 208.770090185 23.0537755575 208.965748323 c 0
 23.2966089325 269.381768192 32.4976305965 328.434720648 50.6568405495 386.124605693 c 0
 69.5319710708 444.166341538 93.652761081 494.056641495 123.01921058 535.795505566 c 0
 137.870450095 556.406519944 153.648454826 575.086366104 170.353224773 591.835044046 c 0
 187.05799472 608.583721987 204.747548409 623.446548261 223.421885842 636.423522867 c 0
 240.646866919 648.138394718 258.556033056 657.337097915 277.149384252 664.019632457 c 0
 295.742735448 670.702167 314.973967952 674.847613772 334.843081763 676.455972775 c 0
 336.821959936 676.623168068 338.807777389 676.747569864 340.800534121 676.829178163 c 0
 342.793290852 676.910786462 344.760657593 676.948521102 346.702634342 676.942382081 c 0
 375.881328699 676.954857236 402.76685307 667.80273447 427.359207455 649.486013781 c 0
 440.94901151 639.231910406 452.838347305 627.954260957 463.027214841 615.653065435 c 0
 473.216082377 603.351869912 481.669340376 590.052922458 488.386988838 575.756223071 c 0
 501.989005413 546.894838178 509.265074139 518.477120333 510.215195018 490.503069536 c 0
EndSplineSet
EndChar

StartChar: R
Encoding: 82 82 26
Width: 583
VWidth: 965
Flags: HW
HStem: 214.315 49.7819<183.627 241.721> 629.873 53.6533<214.996 399.983>
VStem: 445.974 52.5272<418.958 583.776>
LayerCount: 2
Fore
SplineSet
144.187984212 296.871593758 m 1
 144.335667779 297.337193561 144.470254134 297.761355161 144.591743276 298.14407856 c 0
 145.684800832 301.587503167 146.901198486 305.408094505 148.240936237 309.605852576 c 0
 148.910670877 311.704636761 149.612412101 313.901232573 150.346159908 316.195640011 c 0
 151.079907715 318.490047449 151.845533574 320.881865273 152.643037484 323.371093484 c 0
 156.6196387 335.785489457 160.036697737 346.596328588 162.894214596 355.803610877 c 1
 162.087242133 355.337584012 161.440565679 354.94995131 160.954185234 354.640712772 c 0
 159.719755001 353.855416753 158.481945211 352.975446832 157.240755866 352.000803011 c 0
 155.999566521 351.02615919 154.757263914 349.95515517 153.513848047 348.787790951 c 0
 148.453775236 344.037069912 144.567672795 336.817076987 141.855540723 327.127812177 c 0
 139.587415762 319.020685106 139.228358248 311.928900526 140.778368181 305.852458437 c 0
 141.109246148 304.554715025 141.499098914 303.280275428 141.947926477 302.029139645 c 0
 142.39675404 300.778003862 142.906313543 299.545386926 143.476604986 298.331288836 c 0
 143.604357455 298.059254117 143.841483864 297.572689091 144.187984212 296.871593758 c 1
209.537721775 349.7874544 m 1
 208.92238414 347.753075793 208.395343971 346.0197573 207.956601267 344.587498923 c 0
 207.517858563 343.155240546 207.116740719 341.855866673 206.753247735 340.689377306 c 0
 206.389754752 339.522887939 205.919978754 338.024483196 205.343919743 336.194163079 c 0
 204.894733859 334.766849564 204.434624433 333.31265898 203.963591464 331.831591327 c 0
 203.492558496 330.350523674 203.010664659 328.842774993 202.517909952 327.308345285 c 0
 202.025155245 325.773915577 201.521515617 324.212715497 201.006991068 322.624745046 c 0
 200.492466519 321.036774595 199.967005638 319.421879067 199.430608427 317.780058463 c 0
 198.894211215 316.138237859 198.346975308 314.469776964 197.788900705 312.774675778 c 0
 197.230826102 311.079574591 196.661747312 309.357327662 196.081664333 307.607934991 c 0
 190.821458728 291.745307175 186.669867734 278.859003898 183.626891351 268.949025161 c 1
 192.938159073 265.714180522 202.135875412 264.096758202 211.220040369 264.096758202 c 0
 221.533278678 264.096758202 231.700160321 266.181457953 241.720685296 270.350857455 c 0
 241.227873425 272.01231156 240.81074148 273.439220359 240.469289462 274.631583854 c 0
 239.846219485 276.807368028 239.172410597 279.221604592 238.4478628 281.874293547 c 0
 237.723315003 284.526982502 236.946178933 287.424486166 236.116454592 290.56680454 c 0
 232.747718691 303.330134079 229.813073683 313.585450788 227.31251957 321.332754668 c 0
 225.049129888 328.34528361 221.370412433 335.41280069 216.276367206 342.535305907 c 0
 214.274124733 345.33458634 212.02790959 347.751969171 209.537721775 349.7874544 c 1
109.292857034 18.2823318846 m 0
 108.980288202 16.7182399427 108.650794075 15.1575943714 108.304374652 13.6003951709 c 0
 108.130250331 12.8173448616 107.956347847 12.0565563269 107.782667201 11.3180295668 c 0
 107.608986555 10.5795028067 107.43529432 9.86248849179 107.261590497 9.16698662198 c 0
 107.073514425 8.41393895125 106.782018566 7.70331369599 106.387102919 7.0351108562 c 0
 104.157749648 3.26301370432 100.834760644 0.542634696937 96.4181359061 -1.12602616595 c 0
 92.0015111683 -2.79468702883 85.9118149375 -4.24185719241 78.1490472136 -5.46753665668 c 1
 78.1490472136 -5.46753665668 78.1490472136 -5.46753665668 77.6987184862 -5.52559494373 c 0
 71.3998443481 -6.15653856271 66.5146623159 -4.29266174093 63.0431723896 0.066035521611 c 0
 59.5716824632 4.42473278415 57.8359375 9.83566365195 57.8359375 16.298828125 c 2
 57.8469583679 16.7571576689 l 2
 58.5535405112 28.0610878624 67.0863696073 61.4223646527 83.4454456564 116.84098804 c 0
 85.0432703742 122.254080419 86.7723218614 127.948709181 88.6326001181 133.924874328 c 0
 90.4928783748 139.901039475 92.4842519501 146.15837961 94.606720844 152.696894733 c 0
 96.729189738 159.235409856 98.9820725773 166.05363012 101.365369362 173.151555527 c 0
 103.748666147 180.249480933 106.264464305 187.63349811 108.912763837 195.303607057 c 0
 112.762213493 206.451230152 116.069711149 216.053961586 118.835256806 224.111801359 c 0
 121.600802463 232.169641132 123.616970799 238.073443919 124.883761814 241.823209719 c 1
 120.43832899 246.004294237 116.940907417 249.408996226 114.391497094 252.037315686 c 0
 112.474094397 254.013990049 110.709124435 256.001352303 109.096587206 257.999402447 c 0
 107.459463079 260.028092182 105.978013411 262.070483976 104.6522382 264.126577829 c 0
 102.050193647 268.164533255 100.133659012 271.686390176 98.9026342963 274.692148591 c 0
 98.3369779478 276.075655679 97.6931710495 277.788394109 96.9712136014 279.830363881 c 0
 96.2705960517 281.811976319 95.4868027701 284.13055791 94.6198337566 286.786108653 c 0
 91.8111139538 295.387014477 90.4067540524 304.192124932 90.4067540524 313.201440016 c 0
 90.4067540524 321.388587119 91.5664925033 329.74436903 93.8859694053 338.26878575 c 0
 98.5014552371 355.236379669 107.878118566 370.781738328 122.015959393 384.904861727 c 0
 126.618580478 389.502780723 131.95550215 393.636430441 138.026724409 397.305810881 c 0
 144.097946668 400.97519132 150.882513562 404.203492436 158.380425091 406.990714229 c 0
 159.902592187 407.55724151 161.652560668 408.051429628 163.630330535 408.473278584 c 0
 165.444150374 408.860315621 167.494776174 409.199456961 169.782207935 409.490702606 c 2
 178.524080256 410.523465673 l 1
 182.846045283 430.799934846 l 2
 183.539710382 435.037358565 184.120484825 438.888496509 184.588368614 442.353348677 c 0
 185.056640976 445.825739294 185.409808028 448.897760103 185.647869769 451.569411104 c 2
 186.181876979 457.999604399 l 2
 186.278440224 459.22682958 186.378577681 460.530909218 186.482289352 461.911843313 c 0
 186.586001023 463.292777409 186.693234378 464.74994784 186.803989417 466.283354605 c 0
 187.025801888 469.354354747 187.261339524 472.727843421 187.510602326 476.403820626 c 0
 188.266632797 487.527147831 188.934273309 496.416714097 189.513523861 503.072519423 c 0
 189.530093918 503.262915566 189.553456671 503.452474522 189.583612121 503.641196293 c 0
 191.134408301 513.346539776 192.815407322 519.470420983 194.626609184 522.012839914 c 0
 196.45214319 524.57455657 198.631690505 526.193640019 201.165251128 526.870090261 c 0
 203.698811752 527.546540504 206.766123876 527.884765625 210.3671875 527.884765625 c 0
 215.795655448 527.884765625 219.763892885 527.60328052 222.271899812 527.04031031 c 0
 226.812311792 526.021593026 230.369775326 523.108724651 232.944290413 518.301705185 c 0
 234.981398171 514.494683314 235.881205822 509.139724917 235.643713366 502.236829994 c 0
 235.209807164 489.616452823 233.970513049 474.524084672 231.925831021 456.959725543 c 0
 231.342389997 451.947812918 230.646814235 446.417538369 229.839103735 440.368901896 c 0
 229.031393236 434.320265423 228.177079916 428.214619463 227.276163775 422.051964018 c 0
 226.375247634 415.889308572 225.457383189 409.853373331 224.52257044 403.944158294 c 1
 234.246615944 399.541323352 242.867668524 392.382257678 250.385728179 382.466961272 c 0
 252.745428624 379.354500837 255.01447856 375.894590448 257.192877986 372.087230106 c 0
 259.371277411 368.279869765 261.440569538 364.182124611 263.400754367 359.793994646 c 0
 265.360939196 355.405864681 267.259534268 350.648802451 269.096539585 345.522807958 c 0
 274.439843168 330.610939793 278.869836704 316.158436613 282.386520191 302.165298416 c 0
 282.751610765 300.713027667 283.105357928 299.315098878 283.44776168 297.971512051 c 0
 283.790165433 296.627925224 284.121272674 295.338477147 284.441083404 294.103167821 c 2
 285.629772174 289.562774899 l 1
 290.885536166 292.386956514 295.920830705 295.210671071 300.735655792 298.033918571 c 0
 308.374918902 302.51331919 315.759056423 307.154582643 322.888068356 311.957708931 c 0
 326.449522061 314.357430604 329.946979143 316.796797069 333.380439604 319.275808326 c 0
 336.813900065 321.754819584 340.18269009 324.272886921 343.486809677 326.830010336 c 0
 350.091044216 331.942287964 356.457436335 337.227108767 362.585986033 342.684472744 c 0
 368.711806972 348.139476512 374.595567508 353.760043751 380.237267641 359.546174462 c 0
 385.877972688 365.330632254 391.297640827 371.299173758 396.496272056 377.451798973 c 0
 427.491633533 414.141120364 443.941046565 455.864937606 445.844511152 502.6232507 c 0
 445.930664791 504.739601508 445.97374161 506.84051019 445.97374161 508.925976745 c 0
 445.97374161 526.071222736 443.062189204 542.172738905 437.23908439 557.230525254 c 0
 430.707684673 574.119869449 422.268599584 587.662858451 411.921829123 597.85949226 c 0
 390.580635816 618.890407314 358.688705455 629.561592186 316.24603804 629.873046875 c 0
 253.881733687 629.349198824 189.324751511 604.176240372 122.57509151 554.354171517 c 0
 116.669956957 550.313507966 109.993922346 544.65251003 102.546987677 537.371177707 c 0
 95.1000530075 530.089845384 86.8781996636 521.153404888 77.8814276454 510.561856219 c 0
 63.4197538527 490.84259374 51.8991104381 475.373240902 43.3194974018 464.153797703 c 0
 34.6062499458 452.76056656 27.5368236948 444.011923067 22.1112186487 437.907867224 c 0
 21.8315277112 437.593202023 21.5288836909 437.302426799 21.2032865878 437.035541551 c 2
 10.2364897128 428.046283739 l 2
 5.28475081368 423.98744522 0.750315847083 424.011529433 -3.36681518699 428.118536376 c 0
 -5.456256104 430.207977293 -6.5009765625 433.486499021 -6.5009765625 437.954101562 c 0
 -6.5009765625 473.231156616 12.7449982157 512.521743275 51.236947772 555.825861538 c 0
 85.00789354 592.973104332 126.82556962 624.012661513 176.689976012 648.944533081 c 0
 184.589704079 652.781594611 192.401834194 656.294319121 200.126366357 659.48270661 c 0
 207.85089852 662.671094099 215.513724964 665.544387003 223.114845689 668.102585322 c 0
 230.715966414 670.660783641 238.259251665 672.903948417 245.744701443 674.832079649 c 0
 268.24685332 680.628271342 290.107343464 683.526367188 311.326171875 683.526367188 c 2
 318.387946117 683.526367188 l 2
 322.37975219 683.409144193 326.264481271 683.214766508 330.042133362 682.943234135 c 0
 333.819785453 682.671701762 337.623138022 682.314609913 341.452191068 681.871958588 c 0
 349.013248871 680.998546899 356.478073528 679.802064267 363.846665037 678.282510691 c 0
 365.673358481 677.905941578 367.507398696 677.506041683 369.348785683 677.082811006 c 0
 371.19017267 676.659580329 373.021531616 676.217285669 374.842862522 675.755927026 c 0
 376.664193429 675.294568383 378.475460817 674.814457447 380.276664688 674.315594217 c 0
 382.077868558 673.816730987 383.856622483 673.302390736 385.612926462 672.772573465 c 0
 394.716978911 670.203312732 403.407560911 666.778780732 411.684672461 662.498977464 c 0
 419.96178401 658.219174197 427.781323192 653.097953029 435.143290006 647.135313962 c 0
 449.882435736 634.402811641 461.668469138 620.718897118 470.501390213 606.083570395 c 0
 472.734246493 602.225421512 474.826115326 598.333263726 476.776996713 594.407097036 c 0
 478.7278781 590.480930347 480.55745847 586.482359913 482.265737823 582.411385734 c 0
 483.966702922 578.357035202 485.539369756 574.246067898 486.983738324 570.078483821 c 0
 488.428106891 565.910899744 489.744023731 561.687471496 490.931488842 557.408199075 c 0
 492.121879707 553.117432744 493.171228857 548.823124679 494.079536294 544.525274879 c 0
 494.987843731 540.22742508 495.757490715 535.911668809 496.388477247 531.578006068 c 0
 497.019463778 527.244343326 497.510769428 522.892708322 497.862394195 518.523101055 c 0
 498.214018963 514.153493788 498.426879752 509.757651578 498.500976562 505.335574423 c 0
 498.500976562 487.089126672 496.362599058 468.981811992 492.085844051 451.013630385 c 0
 487.809089044 433.045448778 481.399661233 415.17763377 472.857560619 397.41018536 c 0
 445.371986607 340.564501739 388.376679796 288.734884956 301.871640187 241.921335009 c 1
 320.390765178 196.527733655 338.594544255 157.650666924 356.482977416 125.290134815 c 0
 375.201303761 91.4271497852 393.805850716 64.1837189817 412.296618279 43.5598424044 c 0
 419.610512686 35.4013639735 428.617925311 30.0684580384 439.318856152 27.5611245991 c 0
 440.532132227 27.2765759949 442.392348904 26.959501073 444.899506182 26.6098998333 c 0
 447.558004121 26.2392831976 450.834879415 25.8514217419 454.730132064 25.4463154664 c 0
 455.958499722 25.3185259697 457.804641129 25.1507523539 460.268556284 24.9429946188 c 0
 462.73247144 24.7352368837 464.533274719 24.5696859803 465.670966121 24.4463419086 c 0
 466.808657524 24.3229978369 468.305424135 24.0857582269 470.161265954 23.7346230784 c 0
 472.017107773 23.38348793 473.473387561 22.9713844251 474.530105316 22.4983125636 c 0
 475.586823071 22.0252407021 476.709100936 21.3663128011 477.896938909 20.5215288604 c 0
 479.084776883 19.6767449197 480.10178611 18.6697683522 480.947966591 17.5005991581 c 0
 486.510263149 9.80695532266 482.548508218 2.89845627691 469.062701799 -3.22489797916 c 0
 468.367713679 -3.54016476732 467.608657139 -3.87454058545 466.785532178 -4.22802543355 c 2
 464.278878793 -5.27296768805 l 2
 452.669706925 -9.9814533472 441.963210262 -12.3356961768 432.159388804 -12.3356961768 c 0
 426.69122391 -12.3356961768 421.503876362 -11.6033040379 416.597346161 -10.1385197602 c 0
 407.396618722 -7.30755332733 399.035841997 -3.83187471373 391.515015986 0.288516080617 c 0
 383.994189974 4.40890687496 377.315970497 9.20462371899 371.480357556 14.6756666127 c 0
 360.377824513 25.08522733 346.35190667 43.5101436484 329.402604029 69.950415568 c 0
 317.992944196 89.0173333567 306.194775849 111.441525447 294.008098987 137.222991838 c 0
 281.821422124 163.00445823 269.356280839 191.847180404 256.612675132 223.75115836 c 1
 253.680099055 222.712872391 250.832199833 221.766144848 248.068977465 220.910975733 c 0
 245.305755098 220.055806618 242.590923564 219.28246358 239.924482864 218.590946621 c 0
 237.258042164 217.899429662 234.653006402 217.295196031 232.109375578 216.77824573 c 0
 229.565744753 216.261295429 227.054676185 215.82526368 224.576169874 215.470150481 c 0
 222.097663562 215.115037282 219.656794048 214.84270781 217.253561333 214.653162065 c 0
 214.850328618 214.46361632 212.463333359 214.353857094 210.092575556 214.323884388 c 0
 209.61578138 214.317842646 209.137817405 214.314821774 208.65868363 214.314821774 c 0
 195.934294233 214.314821774 182.384871291 216.445375771 168.010414804 220.706483762 c 1
 141.310782879 142.545108504 122.401322899 78.3873701622 111.282034864 28.2332687365 c 0
 111.095755823 27.3930478613 110.880213901 26.3133369373 110.635409099 24.9941359645 c 0
 110.390604298 23.6749349918 110.153815582 22.4192328419 109.925042951 21.2270295149 c 0
 109.696270321 20.0348261879 109.485541682 19.0532603111 109.292857034 18.2823318846 c 0
EndSplineSet
EndChar

StartChar: S
Encoding: 83 83 27
Width: 457
VWidth: 965
Flags: HW
HStem: -7.40723 47.8545<199.776 290.997> 120.779 35.458<216.029 315.085> 628.909 51.5039<359.975 412.63>
VStem: 68.6025 45.2676<145.602 213.799> 290.716 51.6445<421.919 612.476> 319.332 47.8049<72.1206 135.439 156.409 287.509> 417.752 49.3861<501.45 622.304>
LayerCount: 2
Fore
SplineSet
7.59482264597 -24.4673280327 m 1xf6
 5.34098627933 -24.7534322609 3.71042039734 -24.896484375 2.703125 -24.896484375 c 0
 -5.80996424467 -24.896484375 -11.2546522897 -20.535938139 -13.6309391352 -11.814845667 c 0
 -14.0794536701 -10.3474832998 -14.3037109375 -9.16148005666 -14.3037109375 -8.2568359375 c 0
 -14.3037109375 -6.07294484995 -12.3982572903 -2.82290186682 -8.58734999583 1.4932930119 c 0
 1.82274219846 14.1252958035 20.2604764775 33.343832645 46.7258528413 59.1489035365 c 0
 69.1899575425 81.0207353664 85.7843786559 97.8170517339 96.5091161815 109.537852639 c 1
 94.7928066821 112.506855287 93.3099017864 115.14635705 92.0604014943 117.456357928 c 0
 90.8109012022 119.766358805 89.5491828823 122.195432929 88.2752465345 124.743580298 c 0
 85.131957396 131.030158575 82.3364541146 137.494881316 79.8887366902 144.137748523 c 0
 77.4845186177 150.663673785 75.2398281137 157.399548431 73.1546651783 164.345372461 c 0
 70.1199144344 175.764206009 68.6025390625 186.818352689 68.6025390625 197.5078125 c 0
 68.6025390625 201.489234403 68.8125255943 205.427745772 69.232498658 209.323346606 c 0
 69.6524717217 213.218947441 70.2829967984 217.070096896 71.1240738883 220.876794972 c 0
 71.9651509782 224.683493048 73.0154155395 228.43557041 74.2748675724 232.133027057 c 0
 78.3960841058 244.232785465 84.1289573117 255.214827724 91.4734871902 265.079153833 c 0
 98.8180170687 274.943479942 107.70548583 283.598829939 118.135893474 291.045203822 c 0
 118.760931582 291.491424871 119.436221537 291.840407311 120.161763338 292.092151141 c 0
 122.538410095 292.916784755 124.777132211 293.329101562 126.877929688 293.329101562 c 0
 128.799569959 293.329101562 130.666244243 292.981185794 132.47795254 292.285354259 c 0
 134.289660836 291.589522724 135.898493426 290.671545723 137.304450311 289.531423256 c 0
 138.710407196 288.391300789 139.960459004 287.062476193 141.054605735 285.544949468 c 0
 141.308001629 285.193502052 141.531372273 284.823908333 141.724717666 284.436168312 c 0
 142.439327852 283.003069937 143.148883249 281.493015806 143.853383857 279.906005919 c 0
 144.557884465 278.318996032 145.261113232 276.648561582 145.963070159 274.894702569 c 0
 147.42625888 271.236372316 148.873891519 266.54270479 150.305968076 260.813699991 c 0
 157.024281221 232.12097058 162.852645817 213.18569448 167.791061862 204.007871689 c 0
 170.130901693 199.997146935 172.28285709 196.669235149 174.246928054 194.02413633 c 1
 233.492868407 269.745823028 276.051550317 325.758897237 301.922973783 362.063358958 c 0
 301.720101197 364.100457193 301.541786966 366.062170383 301.38803109 367.94849853 c 0
 301.234275214 369.834826676 301.099161117 371.704365501 300.9826888 373.557115006 c 0
 300.866216482 375.409864511 300.757146207 377.401785396 300.655477974 379.532877659 c 0
 300.332206427 386.344715636 299.51680193 393.999500881 298.209264485 402.497233392 c 0
 298.177279719 402.705103528 298.153529108 402.913910253 298.138012653 403.123653568 c 0
 296.801486688 421.190110859 295.460448535 437.114099829 294.114898196 450.895620477 c 0
 293.774846526 454.383621402 293.456116059 457.944243436 293.158706796 461.57748658 c 0
 292.861297533 465.210729724 292.585232549 468.916158053 292.330511844 472.693771566 c 0
 292.075791139 476.47138508 291.84232284 480.320859231 291.630106947 484.24219402 c 0
 291.417891053 488.163528809 291.226745324 492.159521356 291.056669759 496.230171662 c 0
 290.829602298 501.707676176 290.715985816 507.095470518 290.715820312 512.393554688 c 0xfa
 290.715820312 523.010911559 291.174876244 533.253690079 292.092988108 543.121890248 c 0
 293.664653903 560.016287479 296.102530249 573.747039302 299.406617144 584.314145716 c 0
 307.763280439 615.654543967 321.974647491 639.557325858 342.040718301 656.022491389 c 0
 361.858186277 672.282887755 382.623910385 680.413085938 404.337890625 680.413085938 c 2
 405.675003654 680.402355804 l 2
 406.976554213 680.382143149 408.271465109 680.33077622 409.559736344 680.248255015 c 0
 432.186388646 677.441700164 447.418214465 668.434421594 455.2552138 653.226419305 c 0
 462.449496915 639.262331996 466.410446982 620.717804982 467.138064001 597.592838261 c 0
 467.085122638 592.640731054 466.848734619 587.658023953 466.428899944 582.644716958 c 0
 466.009065268 577.631409964 465.408310384 572.571425841 464.626635293 567.464764589 c 0
 463.844960201 562.358103336 462.872543845 557.111311119 461.709386225 551.724387936 c 0
 459.83454577 543.042693084 457.401152146 534.08020359 454.409205354 524.836919455 c 0
 451.417258562 515.593635319 447.877857977 506.089319178 443.791003598 496.323971032 c 0
 439.70414922 486.558622885 435.057230207 476.496462028 429.850246558 466.137488461 c 0
 424.643262909 455.778514894 418.898842369 445.156116919 412.616984937 434.270294538 c 0
 406.335127505 423.384472157 399.491693971 412.185818997 392.086684336 400.674335057 c 0
 375.191941877 374.615548337 364.130398453 357.292589955 358.902054064 348.705459911 c 1
 360.004310885 336.355103549 360.89429587 325.70683976 361.57200902 316.760668545 c 0
 362.919467485 298.91888639 363.929267105 285.623881768 364.60140788 276.875654679 c 0
 365.278051268 268.084535935 366.123240192 254.227019479 367.136974653 235.30310531 c 0
 367.443240723 229.588114576 367.673084903 224.206662851 367.826507192 219.158750136 c 0
 367.979929481 214.110837421 368.056640625 209.388649875 368.056640625 204.9921875 c 0
 368.056640625 202.093502753 368.023260569 199.338147798 367.956500456 196.726122634 c 0
 367.889740343 194.114097471 367.788935925 191.639549437 367.654087201 189.302478533 c 0
 367.64429058 183.053706145 367.296450287 176.32709724 366.61056632 169.122651819 c 0
 365.940613667 162.076508863 365.268414313 154.174761223 364.593968256 145.417408898 c 0
 360.173988567 103.1410288 351.308716 69.6640474077 337.998150553 44.986464722 c 0
 330.346173978 30.7993863197 320.243095061 19.5558994567 307.688913801 11.2560041332 c 0
 289.471157343 -0.786657224953 271.154732556 -7.00160287718 252.73963944 -7.38883282347 c 0
 252.159944087 -7.40110532783 251.578436669 -7.40723657417 250.995117188 -7.4072265625 c 0
 232.217379293 -7.4072265625 211.219223857 -1.0931994095 188.000650881 11.5348548965 c 0
 168.728025281 22.0179356431 147.793610782 39.5242358305 125.197407385 64.0537554588 c 1
 117.809285149 56.3539004773 110.969189969 49.425541034 104.677121844 43.2686771289 c 0
 98.3850537192 37.1118132238 92.420372242 31.5104090247 86.7830774123 26.4644645318 c 0
 81.1457825826 21.4185200389 75.6058840722 16.7185047376 70.1633818811 12.3644186277 c 0
 54.4825227709 -0.70137830916 34.2167788691 -12.903675837 9.36615017561 -24.2424739557 c 0
 7.59482264597 -24.4673280327 7.59482264597 -24.4673280327 7.59482264597 -24.4673280327 c 1xf6
9.36615017561 -24.2424739557 m 5
 9.36615017561 -24.2424739557 l 5
398.032226562 628.909179688 m 0
 360.917643229 628.909179688 342.360351562 589.956054688 342.360351562 512.049804688 c 0
 342.360351562 510.029032577 342.374348958 507.896576209 342.40234375 505.652435584 c 0
 342.40234375 476.674536825 343.746790622 448.330245293 346.435684366 420.619560988 c 1
 369.778952542 453.26691331 387.548765487 483.225079618 399.7451232 510.494059913 c 0
 403.758231593 519.465880948 407.098823642 528.485846707 409.766899347 537.553957192 c 0
 412.434975052 546.622067676 414.432836274 555.736591503 415.760483015 564.897528674 c 0
 417.088129755 574.058465844 417.751953125 583.288586494 417.751953125 592.587890625 c 0
 417.751953125 596.923744856 417.607760402 601.267642938 417.319374956 605.619584872 c 0
 416.767411533 613.067954925 415.237790543 618.689031595 412.730511987 622.482814883 c 0
 410.581384502 624.841626631 408.395206732 626.502390369 406.171978675 627.465106096 c 0
 403.948750618 628.427821824 401.235499914 628.909179688 398.032226562 628.909179688 c 0
315.617532434 135.438812776 m 1
 308.938071798 133.024581025 302.83062088 130.917316653 297.295179679 129.11701966 c 0
 291.759738478 127.316722667 286.814540706 125.832805632 282.459586362 124.665268555 c 0
 277.480542429 123.330887666 271.71500255 122.349630497 265.162966724 121.721497048 c 0
 258.610930899 121.093363599 251.140267511 120.779296875 242.750976562 120.779296875 c 0
 241.569376975 120.779296875 240.370424541 120.785625937 239.154119262 120.798284062 c 0
 222.162639834 120.974974046 204.796080527 123.985291815 187.054441342 129.829237369 c 1
 184.629934569 127.11856697 182.076230341 124.318137862 179.393328656 121.427950047 c 0
 176.710426972 118.537762231 173.943394093 115.601642223 171.092230019 112.619590023 c 0
 168.241065946 109.637537822 165.153965 106.446281288 161.830927181 103.04582042 c 1
 194.194896832 61.313450549 223.490154493 40.4472656136 249.716700165 40.4472656136 c 0
 256.30908014 40.4473359323 262.765569703 41.7744099321 269.087677968 44.4292895619 c 0
 293.337441931 54.4951633062 308.84739342 84.8316710443 315.617532434 135.438812776 c 1
317.870323751 157.362435309 m 1
 318.745656407 168.956538798 319.23289224 181.355503651 319.33203125 194.55932987 c 0xf6
 319.33203125 205.185497559 318.998885938 216.493267612 318.332595313 228.48264003 c 0
 317.664823906 240.519365368 316.82688688 252.921622258 315.818784236 265.6894107 c 0
 315.172280261 273.874466671 314.56021156 281.310394105 313.982578132 287.997193 c 1
 304.205051396 275.301319006 291.277083742 259.00883983 275.19867517 239.119755473 c 0
 262.561097109 223.488457284 247.63754126 205.40987677 230.428007625 184.884013929 c 0
 229.087296678 182.654198132 226.833892979 179.763573809 223.667796526 176.212140959 c 2
 221.770978392 174.075791672 l 1
 216.489184329 167.254551784 l 1
 215.251572704 165.807267243 l 1
 231.723544485 159.427292206 254.911496813 156.237304688 284.815429688 156.237304688 c 0
 294.896337067 156.237304688 305.914635088 156.612348228 317.870323751 157.362435309 c 1
114.770363466 213.798945933 m 1
 114.386105939 211.451300398 114.140000511 209.624049922 114.032047182 208.317194504 c 0
 113.924093853 207.010339085 113.870117188 205.384099771 113.870117188 203.438476562 c 0
 113.870117188 201.644007547 113.944238382 199.865591232 114.092480771 198.103227617 c 0
 114.240723159 196.340864002 114.470578999 194.541458534 114.78204829 192.705011211 c 0
 115.093517581 190.868563888 115.491228887 188.982229729 115.975182208 187.046008734 c 0
 119.852776315 169.597090259 125.332669482 155.617288627 132.414861709 145.106603838 c 1
 133.701125857 146.285481779 134.773144071 147.285669984 135.63091635 148.107168452 c 0
 136.488688629 148.92866692 137.467608502 149.889538161 138.567675969 150.989782176 c 0
 140.83847669 153.262215392 142.820639732 155.386349943 144.514165097 157.36218583 c 0
 136.356166605 165.920543299 129.257294812 175.858426386 123.217549719 187.175835089 c 2
 123.035625407 187.538590869 l 2
 119.53824783 194.977409975 116.783160516 203.730861663 114.770363466 213.798945933 c 1
EndSplineSet
EndChar

StartChar: T
Encoding: 84 84 28
Width: 580
VWidth: 965
Flags: HW
HStem: 450.217 47.1693<-12.2204 143.948> 587.135 46.5496<58.6112 260.94>
VStem: -64.514 52.2079<498.932 536.164> 319.719 30.9777<89.6713 215.185>
LayerCount: 2
Fore
SplineSet
686.404107966 694.991784816 m 0
 699.319517777 695.121585859 707.117144614 692.972053544 709.796988478 688.543187869 c 0
 710.826584248 686.841618078 711.441019221 685.208321231 711.640293396 683.643297329 c 0
 711.839567571 682.078273428 711.578622833 680.653907867 710.857459184 679.370200648 c 0
 710.136295534 678.086493429 709.375730711 676.947973445 708.575764715 675.954640696 c 0
 707.775798718 674.961307947 706.571829781 673.988433681 704.963857903 673.036017898 c 0
 703.355886026 672.083602116 702.105575509 671.366428802 701.212926352 670.884497957 c 0
 700.320277196 670.402567112 699.079841071 669.820894892 697.491617976 669.139481298 c 0
 695.903394882 668.458067703 695.048592773 668.088810868 694.927211648 668.031710791 c 2
 693.666469374 667.432022636 l 2
 685.566171223 663.427473004 678.20169353 659.924098326 671.573036295 656.921898601 c 0
 664.944379059 653.919698876 659.101709295 651.443041279 654.045027002 649.491925812 c 0
 613.330289775 632.805558096 556.255868632 611.110718773 482.821763574 584.407407842 c 0
 466.734767386 578.557764398 431.934337306 566.089310902 378.420473333 547.002047355 c 1
 376.625315195 537.207642658 374.788280031 527.143197522 372.909367841 516.808711948 c 0
 371.030455652 506.474226375 369.122796114 495.942799328 367.186389227 485.214430809 c 0
 365.24998234 474.486062289 363.271678591 463.488626714 361.251477981 452.222124084 c 0
 359.231277371 440.955621453 357.184181927 429.504518016 355.110191649 417.868813772 c 0
 353.03620137 406.233109528 350.920294394 394.329311611 348.762470721 382.157420022 c 0
 348.89990849 349.153786339 349.336808171 326.770984401 350.073169764 315.00901421 c 0
 350.081554468 314.58586614 350.112068777 313.344590812 350.164712691 311.285188225 c 0
 350.217356605 309.225785638 350.288251732 306.491593737 350.377398071 303.08261252 c 0
 350.46654441 299.673631303 350.584938981 295.164501484 350.732581784 289.555223064 c 0
 351.120605763 274.813329155 351.314617753 263.486653033 351.314617753 255.5751947 c 0
 351.314617753 239.479595156 351.047377262 224.363876987 350.697124271 212.045780084 c 0
 350.357402818 200.098068313 349.877375986 189.984732595 349.257043775 181.70577293 c 0
 345.112652492 130.624291677 338.810965649 90.1387970146 330.351983248 60.2492889438 c 0
 322.49314552 32.4795467115 314.393586032 13.4021984912 306.053304784 3.0172442828 c 0
 304.581475687 1.18501544186 302.862157105 -0.429943788734 300.89534904 -1.82763340897 c 0
 298.928540974 -3.2253230292 296.768772454 -4.40491320298 294.41604348 -5.36640393031 c 0
 289.802257659 -7.25192169816 284.925147077 -8.13992449226 279.784711735 -8.0304123126 c 0
 276.738878723 -7.96553415259 273.788498305 -7.31116903797 270.933570482 -6.06731696872 c 0
 268.078642659 -4.82346489947 265.387276546 -3.10429806836 262.859472143 -0.909816475389 c 0
 257.856772394 3.43394589745 254.11280285 9.54981116428 251.627563512 17.4377793251 c 0
 248.663693014 26.8449776517 247.181757764 39.3207610345 247.181757764 54.8651294737 c 0
 247.181757764 71.4405479204 248.866804952 91.5051273279 252.236899326 115.058867696 c 0
 262.872640732 189.394030885 281.245797606 300.520160778 307.356369949 448.437257374 c 1
 302.696255636 478.917620142 297.447162263 501.0687092 291.609089828 514.890524547 c 0
 289.919799128 514.197177094 287.660239949 513.36980474 284.83041229 512.408407485 c 0
 282.287252467 511.415640952 279.742151137 510.438025652 277.195108298 509.475561584 c 0
 274.648065459 508.513097517 272.099001279 507.565756915 269.547915759 506.633539778 c 0
 266.996830239 505.701322642 264.443862495 504.784281306 261.889012526 503.88241577 c 0
 259.334162557 502.980550233 256.777321326 502.093825127 254.218488831 501.22224045 c 0
 251.659656336 500.350655773 249.099000901 499.494271465 246.536522525 498.653087524 c 0
 233.738111373 494.451102909 220.902358918 490.432628017 208.029265161 486.597662848 c 0
 201.677667834 484.705395282 196.245997422 483.066552445 191.734253924 481.681134338 c 0
 187.222510426 480.295716231 183.674071021 479.177599138 181.088935709 478.32678306 c 0
 146.761294095 467.028585961 114.664650202 459.092320726 84.7990040296 454.517987353 c 0
 66.0783988103 451.650844352 48.3338663296 450.217272852 31.5654065877 450.217272852 c 0
 18.0430671767 450.217272852 5.15547307955 451.149532053 -7.09737570373 453.014050455 c 0
 -16.0474267215 454.333770792 -25.8378559299 457.713172515 -36.468663329 463.152255624 c 0
 -42.0444967329 466.004673307 -46.732550693 469.08719431 -50.5328252091 472.399818631 c 0
 -54.3330997252 475.712442952 -57.2022224781 479.411588015 -59.1401934679 483.497253819 c 0
 -59.2469324693 483.72228293 -59.3429534545 483.951796116 -59.4282564236 484.185793377 c 0
 -62.8187518443 493.486368172 -64.5139995547 501.895952062 -64.5139995547 509.414545046 c 0
 -64.5139995547 514.132143682 -63.8465752855 518.498956441 -62.5117267473 522.514983326 c 0
 -59.2700452902 532.270118017 -51.9417457373 543.281481113 -40.5268280885 555.549072615 c 0
 -31.607242443 565.135553758 -21.5049367493 573.906994889 -10.2199110072 581.863396008 c 0
 1.06511473483 589.819797127 13.4480181323 596.930523834 26.9287991851 603.195576127 c 0
 40.4095802379 609.46062842 55.0392491324 614.927750551 70.8178058685 619.596942518 c 0
 102.555744734 628.988977009 134.861891996 633.684994255 167.736247655 633.684994255 c 0
 169.18673791 633.684994255 170.638334337 633.675852179 172.091036938 633.657568027 c 0
 205.354902673 633.238399384 233.706054668 628.453168076 257.144492923 619.301874103 c 0
 280.582931178 610.15058013 298.944984479 596.548029548 312.230652827 578.494222358 c 1
 317.477857362 580.354768125 323.834692225 582.674478396 331.301157416 585.453353171 c 1
 332.524234796 592.738671024 333.523423443 598.792153697 334.298723356 603.61380119 c 0
 334.494901321 604.833846461 334.949362942 605.948594374 335.662108221 606.95804493 c 0
 341.000612577 614.518889393 348.746134833 618.938442307 358.89867499 620.21670367 c 0
 360.082773094 620.365702024 361.249215348 620.440201201 362.398001751 620.440201201 c 0
 371.572163288 620.440201201 379.620313313 615.688975437 386.542451825 606.18652391 c 1
 394.603073054 609.166628421 401.737371499 611.763415416 407.94534716 613.976884896 c 0
 524.172389327 653.887356364 596.803522871 678.096097626 625.838747793 686.603108683 c 0
 629.497314332 687.674918995 633.413030028 688.648076306 637.585894882 689.522580615 c 0
 641.758759736 690.397084924 646.211724965 691.177223406 650.94479057 691.86299606 c 0
 655.677856174 692.548768714 660.676767717 693.144063606 665.941525198 693.648880736 c 0
 671.206282679 694.153697865 676.806848658 694.577134556 682.743223134 694.919190808 c 0
 684.433287541 694.967586813 685.653582485 694.991784816 686.404107966 694.991784816 c 0
172.376036726 587.41601849 m 0
 171.014287674 587.41601849 169.65591183 587.405746332 168.300909194 587.385202016 c 0
 166.945906557 587.3646577 165.588676652 587.33367224 164.229219479 587.292245635 c 0
 162.869762306 587.25081903 161.508321315 587.198538941 160.144896507 587.135405367 c 0
 158.781471699 587.072271794 157.420955523 586.998432291 156.063347978 586.91388686 c 0
 131.655859746 585.394815854 108.81334618 581.481772635 87.5358072813 575.174757202 c 0
 66.2582683822 568.867741769 46.4931351497 560.172123118 28.2404075838 549.087901249 c 0
 22.4812520367 545.590473527 16.6996726003 541.539409485 10.8956692745 536.934709122 c 0
 5.13388653379 532.363995776 -0.528029885507 527.12271268 -6.09007998338 521.210859833 c 0
 -10.0744691955 516.524331442 -12.146482837 512.557140415 -12.3061209079 509.30928675 c 0
 -12.2154043061 507.186174085 -9.79661175676 505.215138562 -5.04974325989 503.396180183 c 0
 -0.241757699283 501.553947248 4.56388710677 500.089128901 9.36719115828 499.001725142 c 0
 10.8842460577 498.658241014 12.45542876 498.369188413 14.0807392651 498.134567339 c 0
 15.7060497702 497.899946266 17.4038912264 497.719405162 19.1742636339 497.592944028 c 0
 20.9446360413 497.466482894 22.7679437521 497.397696028 24.6441867662 497.386583431 c 0
 30.7871297495 497.350853538 35.8345684239 497.331366819 39.7865027894 497.328123276 c 0
 43.2876064954 497.325824455 48.5429860534 497.938195578 55.5526414635 499.165236643 c 0
 63.0037475313 500.47008951 68.1025410566 501.372519452 70.8490220394 501.872526471 c 0
 73.5013746241 502.355510817 79.1670854427 503.579023581 87.8461544951 505.543064763 c 0
 96.656362091 507.536129503 102.014023156 508.740025756 103.91913769 509.154753523 c 0
 141.322775372 517.298602103 195.666299011 534.336395512 266.949708607 560.268133751 c 1
 246.634379535 578.329130391 215.109822241 587.378425304 172.376036726 587.41601849 c 0
319.719416989 215.184521132 m 1
 316.000507467 193.107822557 313.259552489 176.286430814 311.496552056 164.720345903 c 0
 304.691604303 120.074212052 300.261928847 86.5077328417 298.207525686 64.0209082723 c 1
 299.110583243 67.1930008115 299.916451438 70.163497823 300.625130273 72.9323993067 c 0
 301.333809107 75.7013007905 301.991454113 78.4310097043 302.598065292 81.1215260481 c 0
 303.204676471 83.812042392 303.86137681 86.887361016 304.56816631 90.3474819202 c 0
 305.364300199 94.2442036281 306.13830941 98.1853185031 306.890193944 102.170826545 c 0
 307.642078478 106.156334586 308.371958143 110.186930218 309.07983294 114.262613439 c 0
 309.787707736 118.33829666 310.473530887 122.459159576 311.137302394 126.625202185 c 0
 311.8010739 130.791244794 312.442625494 135.00149368 313.061957176 139.255948843 c 0
 315.531141287 156.217834376 317.212879954 171.126149075 318.107173175 183.980892939 c 0
 318.791216366 193.815229941 319.32863097 204.216439339 319.719416989 215.184521132 c 1
EndSplineSet
EndChar

StartChar: U
Encoding: 85 85 29
Width: 489
VWidth: 965
Flags: HW
HStem: -10.0498 28.7598<360.553 389.018> -8.00586 58.2471<102.99 163.215>
VStem: 32.0771 52.6594<53.0998 367.312> 305 46.7852<20.3435 262.559>
LayerCount: 2
Fore
SplineSet
246.060212435 88.2567962923 m 0xb0
 223.362892684 53.5029958496 195.132260129 26.5961779274 161.36831477 7.53634252568 c 0
 152.286503299 2.40949120641 143.627303959 -1.46258860686 135.39071675 -4.07989691412 c 0
 127.154129541 -6.69720522137 119.278447916 -8.005859375 111.763671875 -8.005859375 c 0
 109.417685336 -8.005859375 107.118945229 -7.87474829755 104.867451554 -7.61252614265 c 0
 83.2889694901 -5.1046189684 67.0838251094 4.79326229625 56.2520184121 22.0811176513 c 0
 52.3800258004 28.2640487664 49.0059325626 34.6592784545 46.1297386987 41.2668067155 c 0
 43.2068272152 47.9811278214 40.8835501577 55.4744041634 39.1599075264 63.7466357417 c 0
 38.336633479 67.6918172484 37.5892066967 71.3189710616 36.9176271796 74.6280971813 c 0
 36.2460476625 77.937223301 35.6506317277 80.9269598655 35.1313793753 83.5973068747 c 0
 34.0346732146 89.2197678252 33.2935728085 97.1065647619 32.9080781572 107.257697685 c 0
 32.8334399335 109.227911916 32.7640283887 111.078155636 32.699843523 112.808428844 c 0
 32.6356586573 114.538702051 32.576552 116.153123447 32.5225235509 117.65169303 c 0
 32.4684951018 119.150262613 32.4196493915 120.530286177 32.37598642 121.791763722 c 0
 32.3323234485 123.053241267 32.2937629986 124.198525712 32.2603050702 125.227617057 c 0
 32.2268471418 126.256708402 32.1985280119 127.168678221 32.1753476806 127.963526514 c 0
 32.1098815185 130.184651663 32.0771484375 133.565299075 32.0771484375 138.10546875 c 0
 32.0771484375 139.902954691 32.082380201 141.896908916 32.0928437281 144.087331427 c 0
 32.1033072552 146.277753938 32.1189953281 148.666606717 32.1399079468 151.253889766 c 0
 32.2315372885 162.629575059 32.2776747461 169.612115581 32.2783203197 172.201511333 c 0
 32.2789786295 187.715897727 32.8439319035 204.022986736 33.9731801418 221.122778359 c 0
 35.1024283801 238.222569982 36.792853427 256.100226289 39.0444552825 274.755747281 c 0
 57.6579430186 435.871132665 79.8485388887 551.554754856 105.616242893 621.806613853 c 0
 107.314617232 625.60156295 108.981458218 628.600698754 110.616765853 630.804021266 c 0
 112.252073488 633.007343778 114.345136309 634.720750488 116.895954316 635.944241396 c 0
 120.372030345 637.610795248 125.900165871 638.88954866 133.480360895 639.780501632 c 0
 135.363687378 639.937250544 137.063918643 640.015625 138.581054688 640.015625 c 0
 144.026648989 640.015625 148.080541559 638.94655054 150.742732398 636.808401619 c 0
 153.980033585 634.20602918 155.966723708 629.495912852 156.702802768 622.678052636 c 0
 156.742853365 622.258491721 156.751205698 621.829753904 156.727859765 621.391839184 c 0
 156.704513832 620.953924465 156.657495077 620.562132194 156.586803502 620.216462371 c 0
 156.390900052 619.258527705 155.97225074 617.397180071 155.330855567 614.632419469 c 0
 154.689460394 611.867658867 153.799772655 608.091038812 152.661792348 603.302559304 c 0
 151.523812041 598.514079796 150.181953054 592.895639905 148.636215385 586.44723963 c 0
 147.090477716 579.998839355 145.256948552 572.368644952 143.135627893 563.556656423 c 0
 137.406711526 541.912863356 125.274873797 477.086462176 106.740114706 369.077452885 c 0
 92.7060204693 285.506501357 85.371501606 214.787863861 84.7365581161 156.921540396 c 0
 85.8689266754 115.735696434 88.9558011406 87.5773100664 93.9971815119 72.4463812923 c 0
 99.0278481673 58.86363426 105.695641821 51.5543764798 114.000562472 50.5186079515 c 0
 115.483743816 50.3336766088 116.981928721 50.2412109375 118.495117188 50.2412109375 c 0x70
 131.151597404 50.2412109375 145.060922759 56.7004674276 160.223093253 69.6189804079 c 0
 195.133633184 99.3606346693 225.935601501 148.070777393 252.628998205 215.749408578 c 0
 272.441137688 266.239247417 288.737468866 310.173328596 301.517991737 347.551652115 c 0
 305.773142786 359.999001526 309.641920819 371.518333633 313.124325835 382.109648434 c 0
 316.60673085 392.700963235 319.692091464 402.329844626 322.380407676 410.996292607 c 0
 325.068723888 419.662740589 327.3648121 427.379961325 329.268672311 434.147954815 c 0
 332.139957722 444.354198862 335.695300123 457.495635492 339.934699512 473.572264705 c 0
 344.174098902 489.648893918 349.090054729 508.633538168 354.682566992 530.526197453 c 0
 360.269551611 552.394040114 365.820666431 573.441338072 371.335911451 593.668091326 c 0
 376.85115647 613.894844581 382.331076267 633.302576919 387.775670841 651.89128834 c 0
 387.931836125 652.424461445 388.155150026 652.954667457 388.445612543 653.481906376 c 0
 388.736075061 654.009145295 389.053906254 654.47257365 389.399106123 654.872191441 c 0
 393.020459056 659.064420903 401.473578467 661.179350484 414.758464358 661.216980185 c 0
 428.650594807 660.99220582 436.927907082 657.004703456 439.590401185 649.254473095 c 0
 439.826834804 648.566240579 439.959167082 647.784555671 439.987398019 646.909418371 c 0
 440.015628956 646.034281071 439.953169815 645.322408215 439.800020596 644.773799804 c 0
 438.877039679 640.959376729 437.608572566 636.237138659 435.994619256 630.607085593 c 0
 434.380665946 624.977032527 432.47646806 618.610463394 430.282025597 611.507378193 c 0
 420.980578448 571.760174126 412.375606023 530.7573203 404.467108322 488.498816714 c 0
 396.558610621 446.240313128 389.203687402 402.007106483 382.402338664 355.79919678 c 0
 381.775915947 351.027006379 381.018657175 345.361682976 380.130562348 338.803226573 c 0
 379.242467521 332.244770169 378.224687866 324.801959423 377.077223383 316.474794335 c 0
 375.929758901 308.147629248 374.6571699 298.96949232 373.25945638 288.940383553 c 0
 369.047757761 258.700595642 365.844761965 235.178022462 363.650468992 218.372664014 c 0
 362.557975661 210.003673512 361.440886156 200.678775083 360.299200475 190.397968727 c 0
 359.157514794 180.117162371 357.992418459 168.888702708 356.80391147 156.712589738 c 0
 355.617091854 144.561031911 354.621033125 132.895398339 353.815735283 121.715689023 c 0
 353.01043744 110.535979707 352.396976166 99.8643869094 351.97535146 89.7009106303 c 0
 351.912365477 87.9877545636 351.86491978 86.2943724779 351.833014368 84.6207643731 c 0
 351.801108956 82.9471562683 351.78515625 81.3144535606 351.78515625 79.72265625 c 0
 351.78515625 68.7390817691 352.548122025 59.3308721023 354.074053576 51.4980272498 c 0
 355.599985126 43.6651823973 357.708771253 37.6069051765 360.400411956 33.3231955874 c 0
 363.656237013 28.1424842021 367.102544221 24.4117672475 370.73933358 22.1310447235 c 0
 374.376122939 19.8503221995 378.428506538 18.7099609375 382.896484375 18.7099609375 c 2
 389.018369088 19.3656202347 l 2
 394.675516555 20.4989590836 397.847091299 18.2013146443 398.53309332 12.4726869167 c 0
 398.818612819 10.0883864788 398.163423722 7.99908514072 396.567526031 6.20478290261 c 2
 388.830221343 -2.49443584739 l 2
 388.208592502 -3.19334657809 387.486595957 -3.76563353334 386.664231709 -4.21129671313 c 0
 383.090252092 -6.14814054454 379.334879395 -7.60543616479 375.398113619 -8.58318357387 c 0
 371.461347842 -9.56093098296 367.407093823 -10.0498046875 363.235351562 -10.0498046875 c 2
 355.528999428 -9.53375834362 l 1
 354.833242456 -9.41113158403 l 2
 334.372677907 -4.86523777927 320.774225895 3.45215301541 314.03788642 15.5410408 c 0
 308.012628807 26.3488191492 305 41.2511545075 305 60.248046875 c 0
 305 61.4096915156 305.011662077 62.6079179337 305.034986232 63.8427261293 c 0
 305.327763324 77.7072752686 305.715017482 90.3436673301 306.196748705 101.751902314 c 0
 306.678479929 113.160137298 307.256437031 123.360946683 307.93062001 132.354330469 c 0
 309.859441259 158.065399861 312.912322174 186.987147063 317.089262757 219.119572075 c 0
 318.31674517 228.558397645 320.231387819 240.694425083 322.833190704 255.527654389 c 2
 324.282078742 263.743502341 l 1
 317.297960043 243.422492042 311.604872292 227.189975185 307.202815491 215.04595177 c 0
 302.80075869 202.901928355 299.23695351 193.613847884 296.511399949 187.181710357 c 0
 288.134590645 167.205231161 279.748290773 148.981127209 271.352500333 132.5093985 c 0
 267.143755844 124.255663621 262.932554032 116.44192297 258.718894899 109.068176547 c 0
 254.505235766 101.694430124 250.285674945 94.7573033724 246.060212435 88.2567962923 c 0xb0
356.568359375 -1.6015625 m 1025
113.126953125 619.051757812 m 1025
356.3984375 -2.5673828125 m 1025
112.21875 619.421875 m 1025
EndSplineSet
EndChar

StartChar: V
Encoding: 86 86 30
Width: 361
VWidth: 965
Flags: HW
HStem: 674.704 20G<384.328 387.731>
VStem: 26.9443 48.0533<180.775 595.166>
LayerCount: 2
Fore
SplineSet
349.032069472 624.703758817 m 0
 339.471767993 606.904218008 328.416812671 580.635877864 315.867203506 545.898738383 c 0
 303.317594341 511.161598902 289.250708942 467.807936399 273.666547308 415.837750873 c 0
 258.082385674 363.867565348 241.150916167 303.768418828 222.872138787 235.540311315 c 0
 200.471665274 151.108108336 184.993901156 95.2210463956 176.438846433 67.8791254948 c 0
 173.878559108 59.6946882619 171.332828371 52.284738807 168.801654223 45.6492771301 c 0
 166.270480074 39.0138154532 163.671264425 32.986285521 161.004007276 27.5666873337 c 0
 158.336750127 22.1470891463 155.620919336 17.4209191342 152.856514903 13.3881772973 c 0
 148.415117732 6.90846329453 143.068151445 1.91116045685 136.81561604 -1.60373121574 c 0
 130.563080635 -5.11862288834 123.591298919 -6.99615519143 115.900270893 -7.236328125 c 0
 110.4339854 -7.236328125 105.319902428 -5.69272038419 100.558021977 -2.60550490258 c 0
 95.7961415257 0.481710579027 91.3894609112 5.08049727679 87.3379801336 11.1908551907 c 0
 83.286499356 17.3012131046 79.5790906294 24.1712061366 76.2157539537 31.8008342867 c 0
 72.852417278 39.4304624368 69.4347383654 48.4982305389 65.9627172159 59.0041385931 c 0
 52.4026564753 100.031879397 42.5024399771 148.279568583 36.2620677214 203.74720615 c 0
 30.0502465321 258.961067157 26.9443359375 323.786542711 26.9443359375 398.223632812 c 0
 26.9443359375 472.441185195 27.2889853449 520.917184875 27.9782841598 543.651631854 c 0
 28.64426507 565.616376659 28.994707449 577.768259555 29.0296112969 580.10728054 c 0
 29.1890143804 585.952676288 30.6824969087 591.040188104 33.5100588816 595.369815987 c 0
 36.3376208546 599.69944387 40.5911038316 601.864257812 46.2705078125 601.864257812 c 0
 52.2585280768 601.864257812 57.3869810879 599.726094544 61.6558668457 595.449768009 c 0
 65.9247526036 591.173441474 69.4600357148 585.433063383 72.2617161793 578.228633737 c 2
 72.8017439106 575.579515346 l 1
 73.7345185812 545.794650304 74.466488309 504.136074776 74.9976530939 450.603788762 c 0
 75.2625991996 423.901772531 75.58010322 400.429684444 75.9501651553 380.187524503 c 0
 76.3202270905 359.945364562 76.742155297 342.955237547 77.2159497749 329.217143458 c 0
 77.6862600272 315.580077598 78.6760801603 300.071980629 80.1854101742 282.692852552 c 0
 81.6947401881 265.313724475 83.7230170813 246.095689489 86.2702408538 225.038747592 c 0
 91.3514676375 183.028813488 98.7971199183 142.037257711 108.607197696 102.064080261 c 0
 112.721665665 85.8134358541 116.493689781 74.3582216381 119.923270046 67.6984376132 c 1
 121.000043444 69.6523395243 122.127286543 72.0686426169 123.304999343 74.9473468909 c 0
 124.482712142 77.8260511648 125.739288242 81.2585310272 127.074727643 85.2447864779 c 0
 128.410167044 89.2310419287 129.805134131 93.733307778 131.259628904 98.7515840257 c 0
 143.533743919 141.097248301 157.04347883 188.814556947 171.788833637 241.903509962 c 0
 186.542492633 295.025668554 198.650328645 338.208856935 208.112341673 371.453075106 c 0
 212.85673923 388.119049316 217.282840039 403.222510797 221.390644098 416.763459548 c 0
 225.498448157 430.304408299 229.294152087 442.301108202 232.777755889 452.753559258 c 0
 256.548715214 524.063170017 273.472212004 570.837335282 283.548246259 593.076055051 c 0
 284.292699306 594.70224989 285.39092897 597.117333979 286.842935249 600.321307317 c 0
 290.266352345 607.871235363 293.330099171 614.439584728 296.034175726 620.026355411 c 0
 298.738252281 625.613126094 301.116708001 630.282243641 303.169542888 634.033708054 c 0
 307.456347915 641.86753158 314.095271614 650.491579188 323.086313985 659.905850879 c 0
 327.67606512 664.710565486 332.705428794 669.077459736 338.174405008 673.006533629 c 0
 343.643381221 676.935607522 349.528055101 680.416029884 355.828426647 683.447800713 c 0
 357.150795612 684.084248314 359.085617955 685.022618679 361.632893674 686.262911808 c 0
 364.180169393 687.503204937 365.95434282 688.361198619 366.955413957 688.836892854 c 0
 367.956485094 689.312587089 369.376410833 689.972320933 371.215191176 690.816094386 c 0
 373.053971518 691.659867839 374.423188134 692.241341905 375.322841024 692.560516582 c 0
 376.222493914 692.879691259 377.314260144 693.249163509 378.598139713 693.668933332 c 0
 379.882019282 694.088703155 380.99987369 694.366173649 381.951702937 694.501344814 c 0
 382.903532184 694.636515979 383.853875996 694.704101562 384.802734375 694.704101562 c 0
 390.66012732 694.704101562 393.588823792 691.875331143 393.588823792 686.217790304 c 0
 393.57571981 682.239421763 391.251316828 678.023261186 386.615614845 673.569308575 c 0
 384.856744662 671.879397429 383.516144449 670.523055824 382.593814208 669.500283759 c 0
 366.928263639 652.126005944 355.741015394 637.193830964 349.032069472 624.703758817 c 0
EndSplineSet
EndChar

StartChar: W
Encoding: 87 87 31
Width: 475
VWidth: 965
Flags: HW
HStem: -4.67005 54.7491<245.678 285.166> 672.662 20G<432.269 434.803>
VStem: 27.9346 53.716<96.1583 305.087> 107.95 50.2248<492.686 600.479>
LayerCount: 2
Fore
SplineSet
458.0546875 655.122070312 m 2
 458.0546875 651.955981835 457.915730084 648.503502372 457.637815251 644.764631922 c 0
 457.359900419 641.025761472 456.950325018 637.036046541 456.409089047 632.795487129 c 0
 455.867853076 628.554927717 455.189992375 623.991303106 454.375506943 619.104613295 c 0
 453.195906465 612.027655725 451.076363706 598.036197926 448.016878667 577.130239899 c 0
 444.957393628 556.224281872 440.96244674 528.429904526 436.032038004 493.747107859 c 0
 435.399120153 489.902407344 434.667796257 485.385799076 433.838066317 480.197283055 c 0
 433.008336376 475.008767034 432.077174754 469.129234223 431.044581449 462.558684623 c 0
 430.011988145 455.988135023 428.878866955 448.732712823 427.645217879 440.792418023 c 0
 426.411568802 432.852123224 425.071959901 424.192245856 423.626391174 414.812785921 c 0
 421.703352826 402.334109268 419.831631513 390.365720902 418.011227236 378.907620823 c 0
 416.190822959 367.449520745 414.421127334 356.498043931 412.702140361 346.053190382 c 0
 410.983153388 335.608336833 409.315208793 325.672300884 407.698306576 316.245082536 c 0
 406.483802828 309.165131549 405.246820633 302.141570823 403.987359991 295.174400358 c 0
 402.727899349 288.207229893 401.445856157 281.295900342 400.141230414 274.440411706 c 0
 398.836604671 267.584923069 397.509381823 260.785311989 396.159561869 254.041578465 c 0
 394.809741916 247.29784494 393.43738456 240.610305006 392.042489802 233.978958661 c 0
 373.239489296 144.604341122 351.653074381 80.5765681985 327.283245058 41.8956398894 c 0
 316.549565772 24.859254237 306.82990625 12.853000332 298.124266492 5.87687817435 c 0
 289.28687367 -1.20380102522 278.916024423 -4.744140625 267.01171875 -4.744140625 c 2
 264.021448513 -4.67004758308 l 2
 256.666314212 -4.30864602261 249.550740367 -2.43821932388 242.674726976 0.941232513099 c 0
 239.432693726 2.53446437884 236.402294053 4.25570231098 233.583527958 6.10494630953 c 0
 230.764761863 7.95419030808 228.16177118 9.93784017191 225.77455591 12.055895901 c 0
 221.162235551 16.1481751705 216.47714482 21.4219884174 211.719283717 27.8773356415 c 0
 209.429470822 30.982845968 207.3886162 33.8602270627 205.596719851 36.5094789258 c 0
 203.804823503 39.1587307889 202.244278281 41.6114227622 200.915084185 43.8675548457 c 0
 200.065475096 45.3094986052 199.171161644 46.8596035648 198.232143829 48.5178697245 c 0
 197.293126014 50.1761358843 196.31256203 51.9365604184 195.290451878 53.7991433269 c 0
 194.268341726 55.6617262354 193.198539321 57.6372592524 192.081044664 59.7257423777 c 0
 187.407284842 68.4605455957 183.229039929 78.3964059443 179.546309926 89.5333234235 c 0
 175.863579923 100.670240902 172.639717939 113.052172388 169.874723975 126.67911788 c 0
 169.441514853 128.81335999 169.03396064 131.031037756 168.652061337 133.332151178 c 0
 168.270162034 135.633264599 167.914987456 138.007642598 167.586537603 140.455285175 c 0
 167.25808775 142.902927751 166.953965845 145.437292322 166.674171888 148.058378888 c 0
 166.341992186 151.167729244 166.01574143 154.045042268 165.695419619 156.69031796 c 1
 161.313281577 147.173954277 156.993441308 135.062788479 152.735898812 120.356820568 c 0
 142.121193783 86.3155434385 131.492690788 60.6866720302 120.850389825 43.4702063431 c 0
 110.208088862 26.253740656 98.2273599617 17.6455078125 84.908203125 17.6455078125 c 0
 83.9273616451 17.6455078125 82.9474053466 17.7000041592 81.9683342293 17.8089968525 c 0
 67.430947797 19.4292704446 54.6796222355 32.1055083364 43.7143575446 55.8377105279 c 0
 33.5313125403 77.8755825642 28.271383463 104.555315581 27.9345703125 135.876909579 c 0
 27.9345703125 178.584478404 40.0544133805 261.732171283 64.2940995165 385.319988216 c 0
 88.5906811255 509.199201415 103.142641456 575.575807059 107.949980509 584.449805147 c 0
 113.882845637 595.403190257 120.477643801 600.879882812 127.734375 600.879882812 c 0
 148.027994792 600.879882812 158.174804688 594.133138021 158.174804688 580.639648438 c 0
 158.174804688 580.179316147 158.135366157 579.722387886 158.056489094 579.268863655 c 0
 152.603937528 547.91799721 143.408139909 500.234975534 130.469096237 436.219798626 c 0
 111.683259938 347.381035711 98.3422983701 279.118498475 90.4462115344 231.432186916 c 0
 84.1962632198 193.693055136 81.0712890625 163.04085481 81.0712890625 139.475585938 c 2
 81.6505492509 123.282650153 l 2
 82.2352749782 115.790812852 83.2107456057 108.774585455 84.5769611334 102.233967963 c 0
 84.8041766945 101.14658656 85.0518651184 100.021659277 85.3200264051 98.8591861123 c 0
 85.5881876918 97.6967129478 85.8382198954 96.6445257563 86.070123016 95.7026245378 c 1
 87.6680419775 99.6181380593 89.1422944403 103.439150447 90.4928804044 107.165661702 c 0
 91.8434663685 110.892172956 93.5754723759 115.905186067 95.6888984268 122.204701036 c 0
 103.143798577 142.535351 109.144246299 158.308890202 113.690241593 169.525318641 c 0
 120.764516416 186.980808953 126.112315739 199.394865798 129.733639562 206.767489175 c 0
 143.474311588 234.739337596 158.761124527 248.810195019 175.59407838 248.980061444 c 0
 175.893100603 248.975167657 176.078099226 248.970613225 176.149074251 248.96639815 c 0
 186.371469906 248.359308997 194.364714179 243.413672567 200.128807072 234.129488862 c 0
 205.892899965 224.845305157 209.904900599 212.180345234 212.164808975 196.134609093 c 0
 220.321883028 130.94050344 233.747245025 85.9551960006 252.440894966 61.1786867735 c 0
 252.581904113 60.9917936604 252.714453662 60.7990819301 252.838543615 60.6005515825 c 0
 257.0851569 53.8064349458 261.878749477 50.2992525046 267.219321347 50.0790042589 c 0
 272.132307474 51.9663799944 280.084474798 62.8319408084 291.075823318 82.6756867009 c 0
 319.412696129 133.841496327 347.669212707 246.850265267 375.84537305 421.701993521 c 0
 376.746221858 428.009660526 377.87672818 435.792132961 379.236892016 445.049410827 c 0
 380.597055852 454.306688694 382.185815408 465.031232141 384.003170685 477.22304117 c 0
 385.820525961 489.414850199 387.860511174 503.033598077 390.123126325 518.079284804 c 0
 396.922383745 563.29418391 402.191137863 598.644593458 405.929388679 624.130513449 c 0
 409.673232209 649.659563482 412.057528561 665.668691574 413.082277734 672.157897727 c 0
 414.455938642 680.857457936 417.771092237 687.046359595 423.027738518 690.724602704 c 0
 423.512643861 691.063906443 424.048009448 691.35061784 424.633835277 691.584736897 c 0
 425.219661106 691.818855954 425.793386484 691.980674964 426.355011413 692.070193928 c 0
 428.830721261 692.464804226 431.168764332 692.662109375 433.369140625 692.662109375 c 0
 436.237344198 692.662109375 438.889121793 692.327031981 441.32447341 691.656877194 c 0
 442.756607897 691.262240668 444.071171143 690.813338396 445.268163149 690.310170378 c 0
 446.465155154 689.807002361 447.665197933 689.15595477 448.868291486 688.357027605 c 0
 450.071385039 687.55810044 451.143885706 686.648025856 452.085793485 685.626803852 c 0
 452.928018024 684.713291546 453.687266398 683.70913312 454.363538607 682.614328573 c 0
 455.039810815 681.519524026 455.609269542 680.410865664 456.071914788 679.288353486 c 0
 456.534560033 678.165841309 456.933449036 676.974230692 457.268581797 675.713521637 c 0
 457.718643336 674.020529358 458.0569029 672.445612037 458.28336049 670.988769674 c 0
 458.50981808 669.531927311 458.623046875 668.072994499 458.623046875 666.611971238 c 0
 458.616622151 664.479676927 458.513029643 661.988756896 458.31226935 659.139211146 c 2
 458.0546875 655.122070312 l 2
EndSplineSet
EndChar

